<?xml version="1.0" encoding="UTF-8" standalone="no"?>
<svg
   xmlns:dc="http://purl.org/dc/elements/1.1/"
   xmlns:cc="http://creativecommons.org/ns#"
   xmlns:rdf="http://www.w3.org/1999/02/22-rdf-syntax-ns#"
   xmlns:svg="http://www.w3.org/2000/svg"
   xmlns="http://www.w3.org/2000/svg"
   xmlns:sodipodi="http://sodipodi.sourceforge.net/DTD/sodipodi-0.dtd"
   xmlns:inkscape="http://www.inkscape.org/namespaces/inkscape"
   style="fill-opacity:1; color-rendering:auto; color-interpolation:auto; stroke:black; text-rendering:auto; stroke-linecap:square; stroke-miterlimit:10; stroke-opacity:1; shape-rendering:auto; fill:black; stroke-dasharray:none; font-weight:normal; stroke-width:1; font-family:'Dialog'; font-style:normal; stroke-linejoin:miter; font-size:12px; stroke-dashoffset:0; image-rendering:auto;"
   width="870"
   height="652"
   id="svg2"
   version="1.1"
   inkscape:version="0.48.5 r10040"
   sodipodi:docname="final.pdf">
  <metadata
     id="metadata287">
    <rdf:RDF>
      <cc:Work
         rdf:about="">
        <dc:format>image/svg+xml</dc:format>
        <dc:type
           rdf:resource="http://purl.org/dc/dcmitype/StillImage" />
        <dc:title></dc:title>
      </cc:Work>
    </rdf:RDF>
  </metadata>
  <sodipodi:namedview
     pagecolor="#ffffff"
     bordercolor="#666666"
     borderopacity="1"
     objecttolerance="10"
     gridtolerance="10"
     guidetolerance="10"
     inkscape:pageopacity="0"
     inkscape:pageshadow="2"
     inkscape:window-width="1920"
     inkscape:window-height="1060"
     id="namedview285"
     showgrid="false"
     inkscape:zoom="1.0237865"
     inkscape:cx="364.85491"
     inkscape:cy="308.25192"
     inkscape:window-x="-2"
     inkscape:window-y="-3"
     inkscape:window-maximized="1"
     inkscape:current-layer="svg2" />
  <!--Generated by the Batik Graphics2D SVG Generator-->
  <defs
     id="genericDefs">
    <defs
       id="defs1">
      <clipPath
         id="clipPath1"
         clipPathUnits="userSpaceOnUse">
        <path
           id="path9"
           d="M0 0 L870 0 L870 652 L0 652 L0 0 Z" />
      </clipPath>
    </defs>
  </defs>
  <g
     id="g11"
     style="fill:#ffffff;stroke:#ffffff">
    <rect
       clip-path="url(#clipPath1)"
       id="rect13"
       height="652"
       style="stroke:none"
       width="870"
       y="0"
       x="0" />
  </g>
  <g
     id="g15"
     style="fill:#ffffff;stroke:#ffffff">
    <rect
       clip-path="url(#clipPath1)"
       id="rect17"
       height="652"
       style="stroke:none"
       width="870"
       y="0"
       x="0" />
    <path
       inkscape:connector-curvature="0"
       id="path19"
       d="m 113,580 674,0 0,-531 -674,0 z"
       style="stroke:none" />
  </g>
  <g
     id="g21"
     style="font-size:18px;fill:#262626;stroke:#262626;font-family:CMU Serif"
     transform="translate(450,606.876)">
    <path
       inkscape:connector-curvature="0"
       id="path23"
       d="m -69.9862,18.6198 0,-0.5625 0.4375,0 q 0.9688,0 1.1953,-0.1563 0.2266,-0.1562 0.2266,-0.6875 l 0,-9.4844 q 0,-0.5156 -0.2266,-0.6796 -0.2265,-0.1641 -1.1953,-0.1641 l -0.4375,0 0,-0.5625 6.3594,0 q 1.8125,0 3.0312,1 1.2188,1 1.2188,2.3437 0,1.3438 -1.2344,2.3047 -1.2344,0.961 -2.875,0.961 l -3.0312,0 0,4.2812 q 0,0.5313 0.2187,0.6875 0.2188,0.1563 1.2031,0.1563 l 0.4219,0 0,0.5625 q -0.625,-0.0469 -2.6562,-0.0469 -2.0157,0 -2.6563,0.0469 z m 3.4063,-6.1563 2.4843,0 q 0.8125,0 1.3985,-0.2265 0.5859,-0.2266 0.8515,-0.5 0.2657,-0.2735 0.4219,-0.7266 0.1563,-0.4531 0.1719,-0.7031 0.0156,-0.25 0.0156,-0.6407 0,-0.3906 -0.0156,-0.6406 -0.0156,-0.25 -0.1719,-0.7031 -0.1562,-0.4531 -0.4219,-0.7266 -0.2656,-0.2734 -0.8515,-0.4922 -0.586,-0.2187 -1.3985,-0.2187 l -1.6093,0 q -0.6094,0 -0.7422,0.125 -0.1328,0.125 -0.1328,0.5937 l 0,4.8594 z m 8.952,4.4531 q 0,-1.5312 1.8125,-2.3437 1.0781,-0.5313 3.3125,-0.6563 l 0,-0.6562 q 0,-1.125 -0.586,-1.7188 -0.5859,-0.5937 -1.3359,-0.5937 -1.3125,0 -1.9375,0.8281 0.5469,0.0156 0.7344,0.2891 0.1875,0.2734 0.1875,0.539 0,0.3594 -0.2266,0.5938 -0.2265,0.2344 -0.6015,0.2344 -0.3594,0 -0.5938,-0.2266 -0.2344,-0.2266 -0.2344,-0.6172 0,-0.875 0.7891,-1.4531 0.7891,-0.5781 1.9297,-0.5781 1.4687,0 2.4687,0.9843 0.2969,0.3125 0.4532,0.711 0.1562,0.3984 0.1718,0.6562 0.0157,0.2578 0.0157,0.7578 l 0,3.6094 q 0,0.1094 0.039,0.2735 0.0391,0.164 0.1953,0.3906 0.1563,0.2265 0.4375,0.2265 0.6407,0 0.6407,-1.1562 l 0,-1 0.4531,0 0,1 q 0,0.9687 -0.5078,1.3437 -0.5078,0.375 -0.9766,0.375 -0.5937,0 -0.9687,-0.4453 -0.375,-0.4453 -0.4219,-1.039 -0.2813,0.6875 -0.8985,1.1328 -0.6171,0.4453 -1.4609,0.4453 -0.6562,0 -1.2656,-0.1641 -0.6094,-0.164 -1.1172,-0.6172 -0.5078,-0.4531 -0.5078,-1.125 z m 1.3906,-0.0312 q 0,0.6719 0.4766,1.1016 0.4765,0.4296 1.1484,0.4296 0.75,0 1.4297,-0.5859 0.6797,-0.5859 0.6797,-1.7266 l 0,-1.7968 q -2,0.0625 -2.8672,0.8593 -0.8672,0.7969 -0.8672,1.7188 z m 7.3544,1.7344 0,-0.5625 q 0.9532,0 1.1797,-0.1172 0.2266,-0.1172 0.2266,-0.6953 l 0,-4.8125 q 0,-0.6719 -0.2344,-0.8438 -0.2344,-0.1719 -1.1719,-0.1719 l 0,-0.5625 2.5,-0.1875 0,1.9844 q 0.2657,-0.7812 0.8047,-1.3828 0.5391,-0.6016 1.4141,-0.6016 0.5781,0 0.9531,0.3204 0.375,0.3203 0.375,0.7734 0,0.3906 -0.2422,0.5937 -0.2422,0.2032 -0.5234,0.2032 -0.3281,0 -0.5547,-0.211 -0.2266,-0.2109 -0.2266,-0.5703 0,-0.2187 0.1016,-0.3828 0.1016,-0.1641 0.1797,-0.2344 0.0781,-0.0703 0.1406,-0.0859 -0.0469,-0.0156 -0.2031,-0.0156 -0.9844,0 -1.5547,0.9922 -0.5703,0.9921 -0.5703,2.3984 l 0,2.7656 q 0,0.5313 0.2187,0.6875 0.2188,0.1563 1.1563,0.1563 l 0.375,0 0,0.5625 q -0.7188,-0.0469 -2.2813,-0.0469 -0.2187,0 -0.5625,0.0078 -0.3437,0.0078 -0.7968,0.0234 -0.4532,0.0157 -0.7032,0.0157 z m 7.2842,-1.7032 q 0,-1.5312 1.8125,-2.3437 1.0781,-0.5313 3.3125,-0.6563 l 0,-0.6562 q 0,-1.125 -0.586,-1.7188 -0.5859,-0.5937 -1.3359,-0.5937 -1.3125,0 -1.9375,0.8281 0.5469,0.0156 0.7344,0.2891 0.1875,0.2734 0.1875,0.539 0,0.3594 -0.2266,0.5938 -0.2265,0.2344 -0.6015,0.2344 -0.3594,0 -0.5938,-0.2266 -0.2344,-0.2266 -0.2344,-0.6172 0,-0.875 0.7891,-1.4531 0.7891,-0.5781 1.9297,-0.5781 1.4687,0 2.4687,0.9843 0.2969,0.3125 0.4532,0.711 0.1562,0.3984 0.1718,0.6562 0.0157,0.2578 0.0157,0.7578 l 0,3.6094 q 0,0.1094 0.039,0.2735 0.0391,0.164 0.1953,0.3906 0.1563,0.2265 0.4375,0.2265 0.6407,0 0.6407,-1.1562 l 0,-1 0.4531,0 0,1 q 0,0.9687 -0.5078,1.3437 -0.5078,0.375 -0.9766,0.375 -0.5937,0 -0.9687,-0.4453 -0.375,-0.4453 -0.4219,-1.039 -0.2813,0.6875 -0.8985,1.1328 -0.6171,0.4453 -1.4609,0.4453 -0.6562,0 -1.2656,-0.1641 -0.6094,-0.164 -1.1172,-0.6172 -0.5078,-0.4531 -0.5078,-1.125 z m 1.3906,-0.0312 q 0,0.6719 0.4766,1.1016 0.4765,0.4296 1.1484,0.4296 0.75,0 1.4297,-0.5859 0.6797,-0.5859 0.6797,-1.7266 l 0,-1.7968 q -2,0.0625 -2.8672,0.8593 -0.8672,0.7969 -0.8672,1.7188 z m 7.4326,1.7344 0,-0.5625 q 0.9531,0 1.1796,-0.1172 0.2266,-0.1172 0.2266,-0.6953 l 0,-4.8125 q 0,-0.6719 -0.2344,-0.8438 -0.2343,-0.1719 -1.1718,-0.1719 l 0,-0.5625 2.5312,-0.1875 0,1.8907 q 0.8438,-1.8907 2.6719,-1.8907 2.1094,0 2.3906,1.7657 0.3125,-0.6875 0.9609,-1.2266 0.6485,-0.5391 1.6485,-0.5391 1.3437,0 1.8906,0.6563 0.3906,0.4531 0.4766,0.9609 0.0859,0.5078 0.0859,1.8047 l 0,3.4375 q 0.0156,0.375 0.3047,0.4531 0.2891,0.0782 1.1016,0.0782 l 0,0.5625 q -1.8438,-0.0469 -2.0157,-0.0469 -0.1562,0 -2.0468,0.0469 l 0,-0.5625 q 0.9531,0 1.1796,-0.1172 0.2266,-0.1172 0.2266,-0.6953 l 0,-4.1875 q 0,-0.9219 -0.2734,-1.461 -0.2735,-0.539 -1.0547,-0.539 -0.9375,0 -1.6875,0.7812 -0.75,0.7813 -0.75,2.0938 l 0,3.3125 q 0,0.5781 0.2265,0.6953 0.2266,0.1172 1.1797,0.1172 l 0,0.5625 q -1.8281,-0.0469 -2.0156,-0.0469 -0.1406,0 -2.0312,0.0469 l 0,-0.5625 q 0.9531,0 1.1796,-0.1172 0.2266,-0.1172 0.2266,-0.6953 l 0,-4.1875 q 0,-0.9219 -0.2812,-1.461 -0.2813,-0.539 -1.0469,-0.539 -0.9375,0 -1.6875,0.7812 -0.75,0.7813 -0.75,2.0938 l 0,3.3125 q 0,0.5781 0.2265,0.6953 0.2266,0.1172 1.1797,0.1172 l 0,0.5625 q -1.8281,-0.0469 -2.0156,-0.0469 -0.1406,0 -2.0312,0.0469 z m 14.9076,-3.9532 q 0,-1.7031 1.0937,-2.9062 1.0938,-1.2031 2.6563,-1.2031 1.5781,0 2.3984,1.0234 0.8203,1.0234 0.8203,2.5078 0,0.2656 -0.0703,0.3203 -0.0703,0.0547 -0.3828,0.0547 l -5.0156,0 q 0,1.8281 0.5312,2.7031 0.7657,1.2032 2.0469,1.2032 0.1719,0 0.3828,-0.0391 0.211,-0.0391 0.6407,-0.1875 0.4296,-0.1484 0.8046,-0.5625 0.375,-0.4141 0.5938,-1.0703 0.0625,-0.25 0.2344,-0.25 0.2343,0 0.2343,0.2187 0,0.1563 -0.1718,0.5079 -0.1719,0.3515 -0.4922,0.7734 -0.3203,0.4219 -0.9531,0.7422 -0.6329,0.3203 -1.3829,0.3203 -1.5937,0 -2.7812,-1.2031 -1.1875,-1.2032 -1.1875,-2.9532 z m 1.5156,-0.5781 4.2656,0 q 0,-0.375 -0.0625,-0.8047 -0.0625,-0.4297 -0.25,-1.0156 -0.1875,-0.5859 -0.6328,-0.9531 -0.4453,-0.3672 -1.0859,-0.3672 -0.2969,0 -0.6094,0.125 -0.3125,0.125 -0.6875,0.4219 -0.375,0.2968 -0.6406,0.9765 -0.2656,0.6797 -0.2969,1.6172 z m 6.3158,-2.6719 0,-0.3906 q 0.8281,-0.0312 1.375,-0.6172 0.5468,-0.5859 0.7343,-1.3047 0.1875,-0.7187 0.2032,-1.5468 l 0.4531,0 0,3.2968 2.5781,0 0,0.5625 -2.5781,0 0,5 q 0,1.9532 1.2031,1.9532 0.5313,0 0.875,-0.5313 0.3438,-0.5312 0.3438,-1.4844 l 0,-1 0.4375,0 0,1.0313 q 0,0.9687 -0.4454,1.7031 -0.4453,0.7344 -1.3359,0.7344 -0.3125,0 -0.6406,-0.0859 -0.3281,-0.086 -0.7422,-0.2969 -0.4141,-0.211 -0.6719,-0.7422 -0.2578,-0.5313 -0.2578,-1.3125 l 0,-4.9688 -1.5312,0 z m 7.1364,3.25 q 0,-1.7031 1.0937,-2.9062 1.0938,-1.2031 2.6563,-1.2031 1.5781,0 2.3984,1.0234 0.8203,1.0234 0.8203,2.5078 0,0.2656 -0.0703,0.3203 -0.0703,0.0547 -0.3828,0.0547 l -5.0156,0 q 0,1.8281 0.5312,2.7031 0.7656,1.2032 2.0469,1.2032 0.1719,0 0.3828,-0.0391 0.2109,-0.0391 0.6406,-0.1875 0.4297,-0.1484 0.8047,-0.5625 0.375,-0.4141 0.5938,-1.0703 0.0625,-0.25 0.2343,-0.25 0.2344,0 0.2344,0.2187 0,0.1563 -0.1719,0.5079 -0.1718,0.3515 -0.4921,0.7734 -0.3204,0.4219 -0.9532,0.7422 -0.6328,0.3203 -1.3828,0.3203 -1.5937,0 -2.7812,-1.2031 -1.1875,-1.2032 -1.1875,-2.9532 z m 1.5156,-0.5781 4.2656,0 q 0,-0.375 -0.0625,-0.8047 -0.0625,-0.4297 -0.25,-1.0156 -0.1875,-0.5859 -0.6328,-0.9531 -0.4453,-0.3672 -1.0859,-0.3672 -0.2969,0 -0.6094,0.125 -0.3125,0.125 -0.6875,0.4219 -0.375,0.2968 -0.6406,0.9765 -0.2657,0.6797 -0.2969,1.6172 z m 6.472,4.5313 0,-0.5625 q 0.9531,0 1.1797,-0.1172 0.2265,-0.1172 0.2265,-0.6953 l 0,-4.8125 q 0,-0.6719 -0.2343,-0.8438 Q 6.025,11.4166 5.0875,11.4166 l 0,-0.5625 2.5,-0.1875 0,1.9844 q 0.2656,-0.7812 0.8047,-1.3828 0.539,-0.6016 1.414,-0.6016 0.5782,0 0.9532,0.3204 0.375,0.3203 0.375,0.7734 0,0.3906 -0.2422,0.5937 -0.2422,0.2032 -0.5235,0.2032 -0.3281,0 -0.5547,-0.211 -0.2265,-0.2109 -0.2265,-0.5703 0,-0.2187 0.1015,-0.3828 0.1016,-0.1641 0.1797,-0.2344 0.0782,-0.0703 0.1407,-0.0859 -0.0469,-0.0156 -0.2032,-0.0156 -0.9843,0 -1.5547,0.9922 -0.5703,0.9921 -0.5703,2.3984 l 0,2.7656 q 0,0.5313 0.2188,0.6875 0.2187,0.1563 1.1562,0.1563 l 0.375,0 0,0.5625 Q 8.7125,18.5729 7.15,18.5729 q -0.2188,0 -0.5625,0.0078 -0.3438,0.0078 -0.7969,0.0234 -0.4531,0.0157 -0.7031,0.0157 z m 13.1186,-0.2344 0,-2.375 q 0,-0.2031 0.0078,-0.2734 0.0078,-0.0704 0.0625,-0.125 0.0547,-0.0547 0.164,-0.0547 0.125,0 0.1719,0.0547 0.0469,0.0546 0.0781,0.2578 0.2657,1.2343 0.8516,1.8906 0.5859,0.6562 1.6484,0.6562 1.0157,0 1.5235,-0.4453 0.5078,-0.4453 0.5078,-1.1953 0,-1.3125 -1.8594,-1.6406 -1.0937,-0.2188 -1.539,-0.3672 -0.4454,-0.1484 -0.836,-0.4609 -0.7812,-0.6407 -0.7812,-1.5391 0,-0.8984 0.6875,-1.5547 0.6875,-0.6562 2.1875,-0.6562 1.0156,0 1.7031,0.5 0.1875,-0.1563 0.2969,-0.2813 0.2343,-0.2187 0.3593,-0.2187 0.1407,0 0.1719,0.0859 0.0313,0.0859 0.0313,0.3516 l 0,1.8125 q 0,0.2031 -0.0078,0.2734 -0.0079,0.0703 -0.0625,0.1172 -0.0547,0.0469 -0.1641,0.0469 -0.2031,0 -0.2188,-0.1719 -0.1406,-2.1719 -2.1093,-2.1719 -1.0625,0 -1.5391,0.4063 -0.4766,0.4062 -0.4766,0.9531 0,0.3125 0.1485,0.5469 0.1484,0.2343 0.3359,0.3672 0.1875,0.1328 0.5391,0.2578 0.3515,0.125 0.5703,0.1718 0.2187,0.0469 0.625,0.1407 1.4375,0.2656 2.0469,0.8593 0.7656,0.75 0.7656,1.7188 0,1.0625 -0.7188,1.7812 -0.7187,0.7188 -2.1875,0.7188 -1.1718,0 -1.9687,-0.7813 -0.1094,0.1094 -0.1953,0.2032 -0.086,0.0937 -0.1094,0.125 -0.0234,0.0312 -0.0312,0.0468 -0.0079,0.0157 -0.0391,0.0469 -0.3594,0.3594 -0.4375,0.3594 -0.1563,0 -0.1797,-0.0938 -0.0234,-0.0937 -0.0234,-0.3437 z m 6.9943,-3.7188 q 0,-1.7031 1.0938,-2.9062 1.0937,-1.2031 2.6562,-1.2031 1.5781,0 2.3985,1.0234 0.8203,1.0234 0.8203,2.5078 0,0.2656 -0.0703,0.3203 -0.0704,0.0547 -0.3829,0.0547 l -5.0156,0 q 0,1.8281 0.5313,2.7031 0.7656,1.2032 2.0468,1.2032 0.1719,0 0.3829,-0.0391 0.2109,-0.0391 0.6406,-0.1875 0.4297,-0.1484 0.8047,-0.5625 0.375,-0.4141 0.5937,-1.0703 0.0625,-0.25 0.2344,-0.25 0.2344,0 0.2344,0.2187 0,0.1563 -0.1719,0.5079 -0.1719,0.3515 -0.4922,0.7734 -0.3203,0.4219 -0.9531,0.7422 -0.6328,0.3203 -1.3828,0.3203 -1.5938,0 -2.7813,-1.2031 -1.1875,-1.2032 -1.1875,-2.9532 z m 1.5156,-0.5781 4.2657,0 q 0,-0.375 -0.0625,-0.8047 -0.0625,-0.4297 -0.25,-1.0156 -0.1875,-0.5859 -0.6328,-0.9531 -0.4454,-0.3672 -1.086,-0.3672 -0.2969,0 -0.6094,0.125 -0.3125,0.125 -0.6875,0.4219 -0.375,0.2968 -0.6406,0.9765 -0.2656,0.6797 -0.2969,1.6172 z m 6.3158,-2.6719 0,-0.3906 q 0.8281,-0.0312 1.375,-0.6172 0.5469,-0.5859 0.7344,-1.3047 0.1875,-0.7187 0.2031,-1.5468 l 0.4531,0 0,3.2968 2.5781,0 0,0.5625 -2.5781,0 0,5 q 0,1.9532 1.2031,1.9532 0.5313,0 0.875,-0.5313 0.3438,-0.5312 0.3438,-1.4844 l 0,-1 0.4375,0 0,1.0313 q 0,0.9687 -0.4453,1.7031 -0.4453,0.7344 -1.336,0.7344 -0.3125,0 -0.6406,-0.0859 -0.3281,-0.086 -0.7422,-0.2969 -0.414,-0.211 -0.6719,-0.7422 -0.2578,-0.5313 -0.2578,-1.3125 l 0,-4.9688 -1.5312,0 z m 6.9801,0 0,-0.3906 q 0.8282,-0.0312 1.375,-0.6172 0.5469,-0.5859 0.7344,-1.3047 0.1875,-0.7187 0.2031,-1.5468 l 0.4532,0 0,3.2968 2.5781,0 0,0.5625 -2.5781,0 0,5 q 0,1.9532 1.2031,1.9532 0.5312,0 0.875,-0.5313 0.3437,-0.5312 0.3437,-1.4844 l 0,-1 0.4375,0 0,1.0313 q 0,0.9687 -0.4453,1.7031 -0.4453,0.7344 -1.3359,0.7344 -0.3125,0 -0.6406,-0.0859 -0.3282,-0.086 -0.7422,-0.2969 -0.4141,-0.211 -0.6719,-0.7422 -0.2578,-0.5313 -0.2578,-1.3125 l 0,-4.9688 -1.5313,0 z m 7.2302,7.2032 0,-0.5625 q 0.9531,0 1.1797,-0.1172 0.2266,-0.1172 0.2266,-0.6953 l 0,-4.8282 q 0,-0.6718 -0.2266,-0.8359 -0.2266,-0.1641 -1.1016,-0.1641 l 0,-0.5625 2.5157,-0.1875 0,6.6094 q 0,0.5313 0.1875,0.6563 0.1875,0.125 1.0781,0.125 l 0,0.5625 q -1.8438,-0.0469 -1.875,-0.0469 -0.25,0 -1.9844,0.0469 z m 0.75,-11.0938 q 0,-0.3594 0.2813,-0.6562 0.2812,-0.2969 0.6796,-0.2969 0.3985,0 0.6797,0.2734 0.2813,0.2735 0.2813,0.6875 0,0.4141 -0.2813,0.6797 -0.2812,0.2656 -0.6875,0.2656 -0.4062,0 -0.6797,-0.2812 Q 47.9921,7.9166 47.9921,7.526 z m 4.2176,11.0938 0,-0.5625 q 0.9532,0 1.1797,-0.1172 0.2266,-0.1172 0.2266,-0.6953 l 0,-4.8125 q 0,-0.6719 -0.2344,-0.8438 -0.2344,-0.1719 -1.1719,-0.1719 l 0,-0.5625 2.5313,-0.1875 0,1.8907 q 0.8437,-1.8907 2.6719,-1.8907 1.3437,0 1.8906,0.6563 0.3906,0.4531 0.4687,0.9609 0.0782,0.5078 0.0782,1.8047 l 0,3.4375 q 0.0312,0.375 0.3125,0.4531 0.2812,0.0782 1.0937,0.0782 l 0,0.5625 q -1.8281,-0.0469 -2.0156,-0.0469 -0.1406,0 -2.0313,0.0469 l 0,-0.5625 q 0.9532,0 1.1797,-0.1172 0.2266,-0.1172 0.2266,-0.6953 l 0,-4.1875 q 0,-0.9219 -0.2813,-1.461 -0.2812,-0.539 -1.0468,-0.539 -0.9375,0 -1.6875,0.7812 -0.75,0.7813 -0.75,2.0938 l 0,3.3125 q 0,0.5781 0.2265,0.6953 0.2266,0.1172 1.1797,0.1172 l 0,0.5625 q -1.8281,-0.0469 -2.0156,-0.0469 -0.1406,0 -2.0313,0.0469 z m 9.9064,1.4218 q 0,-0.5781 0.4453,-1.0781 0.4454,-0.5 1.211,-0.7187 -0.7813,-0.5 -0.7813,-1.6094 0,-0.8438 0.5469,-1.4844 -0.8437,-0.7031 -0.8437,-1.8594 0,-1.0625 0.8437,-1.8437 0.8438,-0.7813 2.0781,-0.7813 1.0782,0 1.9063,0.6407 0.8594,-0.8438 1.9062,-0.8438 0.4688,0 0.6953,0.2891 0.2266,0.289 0.2266,0.6015 0,0.2657 -0.1719,0.3985 -0.1718,0.1328 -0.3593,0.1328 -0.2188,0 -0.3672,-0.1406 -0.1485,-0.1407 -0.1485,-0.375 0,-0.375 0.2813,-0.4844 -0.0469,-0.0313 -0.1719,-0.0313 -0.8906,0 -1.625,0.7032 0.7344,0.6875 0.7344,1.75 0,1.0625 -0.8438,1.8437 -0.8437,0.7813 -2.0625,0.7813 -1.0156,0 -1.7812,-0.5469 -0.3125,0.3594 -0.3125,0.8437 0,0.4532 0.2734,0.8047 0.2735,0.3516 0.6797,0.3985 0.125,0.0156 1.3594,0.0156 0.7187,0 1.1094,0.0156 0.3906,0.0156 0.9609,0.1328 0.5703,0.1172 1.0234,0.3516 1.1719,0.6562 1.1719,2.0625 0,1.0156 -1.1797,1.6641 -1.1797,0.6484 -2.8203,0.6484 -1.6562,0 -2.8203,-0.6563 -1.1641,-0.6562 -1.1641,-1.625 z m 0.9375,0 q 0,0.7344 0.875,1.3047 0.875,0.5703 2.1875,0.5703 1.2969,0 2.1719,-0.5625 0.875,-0.5625 0.875,-1.3125 0,-0.5468 -0.3047,-0.8828 -0.3047,-0.3359 -0.9375,-0.4765 -0.6328,-0.1407 -1.0781,-0.1641 -0.4453,-0.0234 -1.2422,-0.0234 l -1.0625,0 q -0.625,0.0312 -1.0547,0.4843 -0.4297,0.4532 -0.4297,1.0625 z m 1,-6.7343 q 0,2.2187 1.5625,2.2187 0.7813,0 1.2813,-0.7187 0.2812,-0.4844 0.2812,-1.5157 0,-2.2187 -1.5625,-2.2187 -0.7968,0 -1.2812,0.7187 -0.2813,0.4844 -0.2813,1.5157 z"
       style="stroke:none" />
  </g>
  <g
     id="g25"
     style="fill:#262626;stroke:#262626">
    <line
       id="line27"
       y1="580"
       x2="787"
       x1="113"
       style="fill:none"
       y2="580" />
    <line
       id="line29"
       y1="580"
       x2="113"
       x1="113"
       style="fill:none"
       y2="573.26001" />
    <line
       id="line31"
       y1="580"
       x2="247.8"
       x1="247.8"
       style="fill:none"
       y2="573.26001" />
    <line
       id="line33"
       y1="580"
       x2="382.60001"
       x1="382.60001"
       style="fill:none"
       y2="573.26001" />
    <line
       id="line35"
       y1="580"
       x2="517.40002"
       x1="517.40002"
       style="fill:none"
       y2="573.26001" />
    <line
       id="line37"
       y1="580"
       x2="652.20001"
       x1="652.20001"
       style="fill:none"
       y2="573.26001" />
    <line
       id="line39"
       y1="580"
       x2="787"
       x1="787"
       style="fill:none"
       y2="573.26001" />
  </g>
  <g
     id="g41"
     style="font-size:17px;fill:#262626;stroke:#262626;font-family:CMU Serif"
     transform="translate(113,586)">
    <path
       inkscape:connector-curvature="0"
       id="path43"
       d="m -3.5933,12.1557 q 0,-2.5 0.6406,-3.8593 0.875,-2.0313 2.9531,-2.0313 0.4375,0 0.8985,0.125 0.4609,0.125 1.0468,0.5781 0.586,0.4532 0.9454,1.2032 0.6718,1.4531 0.6718,3.9843 0,2.4844 -0.625,3.8438 -0.9218,1.9687 -2.9531,1.9687 -0.7656,0 -1.5391,-0.3906 -0.7734,-0.3906 -1.2734,-1.3281 -0.7656,-1.4063 -0.7656,-4.0938 z m 1.4219,-0.2031 q 0,2.5625 0.1875,3.5781 0.2031,1.1094 0.7734,1.586 0.5703,0.4765 1.1953,0.4765 0.6719,0 1.2422,-0.5078 0.5703,-0.5078 0.7422,-1.6172 0.1875,-1.0937 0.1875,-3.5156 0,-2.3594 -0.1719,-3.3125 Q 1.7661,7.5307 1.1723,7.0854 0.5786,6.6401 -0.0152,6.6401 q -0.2187,0 -0.4609,0.0703 -0.2422,0.0703 -0.5782,0.2578 -0.3359,0.1875 -0.6015,0.6641 -0.2656,0.4766 -0.3906,1.1953 -0.125,0.9063 -0.125,3.125 z"
       style="stroke:none" />
  </g>
  <g
     id="g45"
     style="font-size:17px;fill:#262626;stroke:#262626;font-family:CMU Serif"
     transform="translate(247.8,586)">
    <path
       inkscape:connector-curvature="0"
       id="path47"
       d="m -3.4058,14.8589 q 0,-0.5157 0.2734,-0.711 0.2735,-0.1953 0.5703,-0.1953 0.3907,0 0.6172,0.25 0.2266,0.25 0.2266,0.5859 0,0.336 -0.2266,0.586 -0.2265,0.25 -0.6172,0.25 -0.1875,0 -0.2968,-0.0313 0.2187,0.7813 0.9062,1.336 0.6875,0.5547 1.5938,0.5547 1.1406,0 1.8281,-1.0938 0.4062,-0.7187 0.4062,-2.3281 0,-1.4375 -0.3125,-2.1406 -0.4687,-1.0938 -1.4375,-1.0938 -1.3906,0 -2.2031,1.1875 -0.0937,0.1563 -0.2187,0.1563 -0.1719,0 -0.2032,-0.0938 -0.0312,-0.0937 -0.0312,-0.3437 l 0,-5.0313 q 0,-0.4219 0.1719,-0.4219 0.0625,0 0.2031,0.0625 1.0625,0.4688 2.2656,0.4688 1.2188,0 2.2969,-0.4844 0.0937,-0.0625 0.1406,-0.0625 0.1719,0 0.1719,0.1875 0,0.0781 -0.1328,0.2734 -0.1328,0.1954 -0.4219,0.4454 -0.2891,0.25 -0.6641,0.4921 -0.375,0.2422 -0.9218,0.4063 -0.5469,0.1641 -1.1407,0.1641 -0.7187,0 -1.4375,-0.2344 l 0,3.3281 q 0.875,-0.875 2.1563,-0.875 1.3594,0 2.2969,1.0938 0.9375,1.0937 0.9375,2.625 0,1.6093 -1.1094,2.7031 -1.1094,1.0937 -2.6094,1.0937 -1.3594,0 -2.2187,-0.9687 -0.8594,-0.9688 -0.8594,-2.1406 z"
       style="stroke:none" />
  </g>
  <g
     id="g49"
     style="font-size:17px;fill:#262626;stroke:#262626;font-family:CMU Serif"
     transform="translate(382.6,586)">
    <path
       inkscape:connector-curvature="0"
       id="path51"
       d="m -6.9835,7.8901 0,-0.5312 q 2.0312,0 3.0937,-1.0938 0.2813,0 0.336,0.0703 0.0547,0.0703 0.0547,0.3828 l 0,9.5313 q 0,0.5156 0.2421,0.664 0.2422,0.1485 1.336,0.1485 l 0.5469,0 0,0.5312 q -0.5938,-0.0468 -2.7579,-0.0468 -2.164,0 -2.7578,0.0468 l 0,-0.5312 0.5469,0 q 1.0781,0 1.3281,-0.1485 0.25,-0.1484 0.25,-0.664 l 0,-8.8125 q -0.875,0.4531 -2.2187,0.4531 z m 7.6397,4.2656 q 0,-2.5 0.6407,-3.8593 0.875,-2.0313 2.9531,-2.0313 0.4375,0 0.8984,0.125 0.461,0.125 1.0469,0.5781 0.5859,0.4532 0.9453,1.2032 0.6719,1.4531 0.6719,3.9843 0,2.4844 -0.625,3.8438 -0.9219,1.9687 -2.9531,1.9687 -0.7656,0 -1.5391,-0.3906 Q 1.9219,17.187 1.4219,16.2495 0.6562,14.8432 0.6562,12.1557 z m 1.4219,-0.2031 q 0,2.5625 0.1875,3.5781 0.2032,1.1094 0.7735,1.586 0.5703,0.4765 1.1953,0.4765 0.6718,0 1.2422,-0.5078 0.5703,-0.5078 0.7422,-1.6172 0.1874,-1.0937 0.1874,-3.5156 0,-2.3594 -0.1718,-3.3125 Q 6.0156,7.5307 5.4219,7.0854 4.8281,6.6401 4.2344,6.6401 4.0156,6.6401 3.7734,6.7104 3.5312,6.7807 3.1953,6.9682 2.8594,7.1557 2.5938,7.6323 2.3281,8.1089 2.2031,8.8276 q -0.125,0.9063 -0.125,3.125 z"
       style="stroke:none" />
  </g>
  <g
     id="g53"
     style="font-size:17px;fill:#262626;stroke:#262626;font-family:CMU Serif"
     transform="translate(517.4,586)">
    <path
       inkscape:connector-curvature="0"
       id="path55"
       d="m -6.9835,7.8901 0,-0.5312 q 2.0312,0 3.0937,-1.0938 0.2813,0 0.336,0.0703 0.0547,0.0703 0.0547,0.3828 l 0,9.5313 q 0,0.5156 0.2421,0.664 0.2422,0.1485 1.336,0.1485 l 0.5469,0 0,0.5312 q -0.5938,-0.0468 -2.7579,-0.0468 -2.164,0 -2.7578,0.0468 l 0,-0.5312 0.5469,0 q 1.0781,0 1.3281,-0.1485 0.25,-0.1484 0.25,-0.664 l 0,-8.8125 q -0.875,0.4531 -2.2187,0.4531 z m 7.8273,6.9688 q 0,-0.5157 0.2734,-0.711 0.2734,-0.1953 0.5703,-0.1953 0.3906,0 0.6172,0.25 0.2265,0.25 0.2265,0.5859 0,0.336 -0.2265,0.586 -0.2266,0.25 -0.6172,0.25 -0.1875,0 -0.2969,-0.0313 0.2188,0.7813 0.9063,1.336 0.6875,0.5547 1.5937,0.5547 1.1406,0 1.8282,-1.0938 0.4062,-0.7187 0.4062,-2.3281 0,-1.4375 -0.3125,-2.1406 -0.4687,-1.0938 -1.4375,-1.0938 -1.3906,0 -2.2031,1.1875 -0.0938,0.1563 -0.2188,0.1563 -0.1719,0 -0.2031,-0.0938 -0.0312,-0.0937 -0.0312,-0.3437 l 0,-5.0313 q 0,-0.4219 0.1718,-0.4219 0.0625,0 0.2032,0.0625 1.0624,0.4688 2.2656,0.4688 1.2187,0 2.2968,-0.4844 0.0938,-0.0625 0.1407,-0.0625 0.1719,0 0.1719,0.1875 0,0.0781 -0.1329,0.2734 Q 6.7031,6.9214 6.4141,7.1714 6.125,7.4214 5.75,7.6635 5.375,7.9057 4.8281,8.0698 4.2812,8.2339 3.6875,8.2339 2.9688,8.2339 2.25,7.9995 l 0,3.3281 q 0.875,-0.875 2.1562,-0.875 1.3594,0 2.2969,1.0938 0.9375,1.0937 0.9375,2.625 0,1.6093 -1.1094,2.7031 -1.1093,1.0937 -2.6093,1.0937 -1.3594,0 -2.2188,-0.9687 -0.8593,-0.9688 -0.8593,-2.1406 z"
       style="stroke:none" />
  </g>
  <g
     id="g57"
     style="font-size:17px;fill:#262626;stroke:#262626;font-family:CMU Serif"
     transform="translate(652.2,586)">
    <path
       inkscape:connector-curvature="0"
       id="path59"
       d="m -7.6554,17.5932 q 0,-0.3125 0.0313,-0.4062 0.0312,-0.0938 0.1562,-0.2188 l 3.2656,-3.6406 q 1.7969,-2 1.7969,-3.7656 0,-1.125 -0.6016,-1.9453 -0.6015,-0.8203 -1.6796,-0.8203 -0.75,0 -1.3829,0.4609 -0.6328,0.4609 -0.914,1.2734 0.0469,-0.0156 0.2187,-0.0156 0.4219,0 0.6641,0.2656 0.2422,0.2657 0.2422,0.625 0,0.4532 -0.2969,0.6719 -0.2969,0.2188 -0.5937,0.2188 -0.125,0 -0.2735,-0.0235 -0.1484,-0.0234 -0.3906,-0.2578 -0.2422,-0.2344 -0.2422,-0.6719 0,-1.1875 0.9063,-2.1328 0.9062,-0.9453 2.2812,-0.9453 1.5625,0 2.5859,0.9297 1.0235,0.9297 1.0235,2.3672 0,0.5156 -0.1563,0.9765 -0.1562,0.461 -0.3593,0.8204 -0.2032,0.3593 -0.75,0.9218 -0.5469,0.5625 -0.9844,0.9766 -0.4375,0.4141 -1.4219,1.2734 l -1.8125,1.75 3.0625,0 q 1.5,0 1.6094,-0.125 0.1719,-0.25 0.375,-1.5156 l 0.4375,0 -0.4844,2.9531 -6.3125,0 z m 8.3116,-5.4375 q 0,-2.5 0.6407,-3.8593 0.875,-2.0313 2.9531,-2.0313 0.4375,0 0.8984,0.125 0.461,0.125 1.0469,0.5781 0.5859,0.4532 0.9453,1.2032 0.6719,1.4531 0.6719,3.9843 0,2.4844 -0.625,3.8438 -0.9219,1.9687 -2.9531,1.9687 -0.7656,0 -1.5391,-0.3906 Q 1.9219,17.187 1.4219,16.2495 0.6562,14.8432 0.6562,12.1557 z m 1.4219,-0.2031 q 0,2.5625 0.1875,3.5781 0.2032,1.1094 0.7735,1.586 0.5703,0.4765 1.1953,0.4765 0.6718,0 1.2422,-0.5078 0.5703,-0.5078 0.7422,-1.6172 0.1874,-1.0937 0.1874,-3.5156 0,-2.3594 -0.1718,-3.3125 Q 6.0156,7.5307 5.4219,7.0854 4.8281,6.6401 4.2344,6.6401 4.0156,6.6401 3.7734,6.7104 3.5312,6.7807 3.1953,6.9682 2.8594,7.1557 2.5938,7.6323 2.3281,8.1089 2.2031,8.8276 q -0.125,0.9063 -0.125,3.125 z"
       style="stroke:none" />
  </g>
  <g
     id="g61"
     style="font-size:17px;fill:#262626;stroke:#262626;font-family:CMU Serif"
     transform="translate(787,586)">
    <path
       inkscape:connector-curvature="0"
       id="path63"
       d="m -7.6554,17.5932 q 0,-0.3125 0.0313,-0.4062 0.0312,-0.0938 0.1562,-0.2188 l 3.2656,-3.6406 q 1.7969,-2 1.7969,-3.7656 0,-1.125 -0.6016,-1.9453 -0.6015,-0.8203 -1.6796,-0.8203 -0.75,0 -1.3829,0.4609 -0.6328,0.4609 -0.914,1.2734 0.0469,-0.0156 0.2187,-0.0156 0.4219,0 0.6641,0.2656 0.2422,0.2657 0.2422,0.625 0,0.4532 -0.2969,0.6719 -0.2969,0.2188 -0.5937,0.2188 -0.125,0 -0.2735,-0.0235 -0.1484,-0.0234 -0.3906,-0.2578 -0.2422,-0.2344 -0.2422,-0.6719 0,-1.1875 0.9063,-2.1328 0.9062,-0.9453 2.2812,-0.9453 1.5625,0 2.5859,0.9297 1.0235,0.9297 1.0235,2.3672 0,0.5156 -0.1563,0.9765 -0.1562,0.461 -0.3593,0.8204 -0.2032,0.3593 -0.75,0.9218 -0.5469,0.5625 -0.9844,0.9766 -0.4375,0.4141 -1.4219,1.2734 l -1.8125,1.75 3.0625,0 q 1.5,0 1.6094,-0.125 0.1719,-0.25 0.375,-1.5156 l 0.4375,0 -0.4844,2.9531 -6.3125,0 z m 8.4992,-2.7343 q 0,-0.5157 0.2734,-0.711 0.2734,-0.1953 0.5703,-0.1953 0.3906,0 0.6172,0.25 0.2265,0.25 0.2265,0.5859 0,0.336 -0.2265,0.586 -0.2266,0.25 -0.6172,0.25 -0.1875,0 -0.2969,-0.0313 0.2188,0.7813 0.9063,1.336 0.6875,0.5547 1.5937,0.5547 1.1406,0 1.8282,-1.0938 0.4062,-0.7187 0.4062,-2.3281 0,-1.4375 -0.3125,-2.1406 -0.4687,-1.0938 -1.4375,-1.0938 -1.3906,0 -2.2031,1.1875 -0.0938,0.1563 -0.2188,0.1563 -0.1719,0 -0.2031,-0.0938 -0.0312,-0.0937 -0.0312,-0.3437 l 0,-5.0313 q 0,-0.4219 0.1718,-0.4219 0.0625,0 0.2032,0.0625 1.0624,0.4688 2.2656,0.4688 1.2187,0 2.2968,-0.4844 0.0938,-0.0625 0.1407,-0.0625 0.1719,0 0.1719,0.1875 0,0.0781 -0.1329,0.2734 Q 6.7031,6.9214 6.4141,7.1714 6.125,7.4214 5.75,7.6635 5.375,7.9057 4.8281,8.0698 4.2812,8.2339 3.6875,8.2339 2.9688,8.2339 2.25,7.9995 l 0,3.3281 q 0.875,-0.875 2.1562,-0.875 1.3594,0 2.2969,1.0938 0.9375,1.0937 0.9375,2.625 0,1.6093 -1.1094,2.7031 -1.1093,1.0937 -2.6093,1.0937 -1.3594,0 -2.2188,-0.9687 -0.8593,-0.9688 -0.8593,-2.1406 z"
       style="stroke:none" />
  </g>
  <g
     id="g65"
     style="font-size:18px;fill:#262626;stroke:#262626;font-family:CMU Serif"
     transform="matrix(0,-1,1,0,81.2762,314.5)">
    <path
       inkscape:connector-curvature="0"
       id="path67"
       d="m -105.5347,-2.2965 0,-0.5625 0.4375,0 q 0.9688,0 1.1954,-0.1563 0.2265,-0.1562 0.2265,-0.6875 l 0,-9.4844 q 0,-0.5156 -0.2265,-0.6797 -0.2266,-0.164 -1.1954,-0.164 l -0.4375,0 0,-0.5625 6.3594,0 q 1.8125,0 3.0313,1 1.2187,1 1.2187,2.3437 0,1.3438 -1.2344,2.3047 -1.2343,0.961 -2.875,0.961 l -3.0312,0 0,4.2812 q 0,0.5313 0.2187,0.6875 0.2188,0.1563 1.2032,0.1563 l 0.4218,0 0,0.5625 q -0.625,-0.0469 -2.6562,-0.0469 -2.0156,0 -2.6563,0.0469 z m 3.4063,-6.1563 2.4844,0 q 0.8125,0 1.3984,-0.2266 0.5859,-0.2265 0.8516,-0.5 0.2656,-0.2734 0.4218,-0.7265 0.1563,-0.4531 0.1719,-0.7031 0.0156,-0.25 0.0156,-0.6407 0,-0.3906 -0.0156,-0.6406 -0.0156,-0.25 -0.1719,-0.7031 -0.1562,-0.4531 -0.4218,-0.7266 -0.2657,-0.2734 -0.8516,-0.4922 -0.5859,-0.2187 -1.3984,-0.2187 l -1.6094,0 q -0.6094,0 -0.7422,0.125 -0.1328,0.125 -0.1328,0.5937 l 0,4.8594 z m 8.702,6.1563 0,-0.5625 q 0.9531,0 1.1797,-0.1172 0.2266,-0.1172 0.2266,-0.6953 l 0,-4.8125 q 0,-0.6719 -0.2344,-0.8438 -0.2344,-0.1719 -1.1719,-0.1719 l 0,-0.5625 2.5,-0.1875 0,1.9844 q 0.2656,-0.7812 0.8047,-1.3828 0.5391,-0.6016 1.4141,-0.6016 0.5781,0 0.9531,0.3203 0.375,0.3204 0.375,0.7735 0,0.3906 -0.2422,0.5937 -0.2422,0.2032 -0.5234,0.2032 -0.3282,0 -0.5547,-0.211 -0.2266,-0.2109 -0.2266,-0.5703 0,-0.2187 0.1016,-0.3828 0.1015,-0.1641 0.1797,-0.2344 0.0781,-0.0703 0.1406,-0.0859 -0.0469,-0.0156 -0.2031,-0.0156 -0.9844,0 -1.5547,0.9921 -0.5703,0.9922 -0.5703,2.3985 l 0,2.7656 q 0,0.5313 0.2187,0.6875 0.2188,0.1563 1.1563,0.1563 l 0.375,0 0,0.5625 q -0.7188,-0.0469 -2.2813,-0.0469 -0.2187,0 -0.5625,0.0078 -0.3437,0.0078 -0.7969,0.0234 -0.4531,0.0157 -0.7031,0.0157 z m 7.0342,-3.9532 q 0,-1.7031 1.0937,-2.9062 1.0938,-1.2031 2.6563,-1.2031 1.5781,0 2.3984,1.0234 0.8203,1.0234 0.8203,2.5078 0,0.2656 -0.0703,0.3203 -0.0703,0.0547 -0.3828,0.0547 l -5.0156,0 q 0,1.8281 0.5312,2.7031 0.7656,1.2032 2.0469,1.2032 0.1719,0 0.3828,-0.0391 0.2109,-0.0391 0.6406,-0.1875 0.4297,-0.1484 0.8047,-0.5625 0.375,-0.4141 0.5938,-1.0703 0.0625,-0.25 0.2343,-0.25 0.2344,0 0.2344,0.2187 0,0.1563 -0.1719,0.5078 -0.1718,0.3516 -0.4922,0.7735 -0.3203,0.4219 -0.9531,0.7422 -0.6328,0.3203 -1.3828,0.3203 -1.5937,0 -2.7812,-1.2031 -1.1875,-1.2032 -1.1875,-2.9532 z m 1.5156,-0.5781 4.2656,0 q 0,-0.375 -0.0625,-0.8047 -0.0625,-0.4297 -0.25,-1.0156 -0.1875,-0.5859 -0.6328,-0.9531 -0.4453,-0.3672 -1.0859,-0.3672 -0.2969,0 -0.6094,0.125 -0.3125,0.125 -0.6875,0.4219 -0.375,0.2968 -0.6406,0.9765 -0.2657,0.6797 -0.2969,1.6172 z m 6.5813,0.6484 q 0,-1.7109 1.125,-2.9453 1.125,-1.2343 2.7813,-1.2343 1.0937,0 1.9219,0.5234 0.8281,0.5234 0.8281,1.3984 0,0.4063 -0.2344,0.625 -0.2344,0.2188 -0.5937,0.2188 -0.375,0 -0.6016,-0.2344 -0.2266,-0.2344 -0.2266,-0.5937 0,-0.1563 0.0547,-0.3125 0.0547,-0.1563 0.2578,-0.3282 0.2032,-0.1718 0.5469,-0.1875 -0.6562,-0.6562 -1.9375,-0.6562 -0.9062,0 -1.664,0.8594 -0.7579,0.8593 -0.7579,2.8281 0,1.0312 0.25,1.7812 0.25,0.75 0.6641,1.1407 0.4141,0.3906 0.8203,0.5703 0.4063,0.1797 0.7969,0.1797 1.7656,0 2.3594,-1.8907 0.0625,-0.1875 0.2343,-0.1875 0.2344,0 0.2344,0.1875 0,0.0938 -0.0703,0.3125 -0.0703,0.2188 -0.2891,0.586 -0.2187,0.3672 -0.5312,0.6797 -0.3125,0.3125 -0.8594,0.539 -0.5469,0.2266 -1.2344,0.2266 -1.5937,0 -2.7343,-1.1875 -1.1407,-1.1875 -1.1407,-2.8985 z m 7.972,3.8829 0,-0.5625 q 0.9532,0 1.1797,-0.1172 0.2266,-0.1172 0.2266,-0.6953 l 0,-4.8282 q 0,-0.6718 -0.2266,-0.8359 -0.2265,-0.1641 -1.1015,-0.1641 l 0,-0.5625 2.5156,-0.1875 0,6.6094 q 0,0.5313 0.1875,0.6563 0.1875,0.125 1.0781,0.125 l 0,0.5625 q -1.8437,-0.0469 -1.875,-0.0469 -0.25,0 -1.9844,0.0469 z m 0.75,-11.0938 q 0,-0.3594 0.2813,-0.6562 0.2812,-0.2969 0.6797,-0.2969 0.3984,0 0.6797,0.2734 0.2812,0.2735 0.2812,0.6875 0,0.4141 -0.2812,0.6797 -0.2813,0.2656 -0.6875,0.2656 -0.4063,0 -0.6797,-0.2812 -0.2735,-0.2813 -0.2735,-0.6719 z m 4.2333,10.8594 0,-2.375 q 0,-0.2031 0.0078,-0.2735 0.0078,-0.0703 0.0625,-0.125 0.0547,-0.0546 0.1641,-0.0546 0.125,0 0.1718,0.0546 0.0469,0.0547 0.0782,0.2579 0.2656,1.2343 0.8515,1.8906 0.586,0.6562 1.6485,0.6562 1.0156,0 1.5234,-0.4453 0.5078,-0.4453 0.5078,-1.1953 0,-1.3125 -1.8594,-1.6406 -1.0937,-0.2188 -1.539,-0.3672 -0.4453,-0.1484 -0.836,-0.4609 -0.7812,-0.6407 -0.7812,-1.5391 0,-0.8984 0.6875,-1.5547 0.6875,-0.6562 2.1875,-0.6562 1.0156,0 1.7031,0.5 0.1875,-0.1563 0.2969,-0.2813 0.2344,-0.2187 0.3594,-0.2187 0.1406,0 0.1718,0.0859 0.0313,0.0859 0.0313,0.3516 l 0,1.8125 q 0,0.2031 -0.0078,0.2734 -0.0078,0.0703 -0.0625,0.1172 -0.0547,0.0469 -0.1641,0.0469 -0.2031,0 -0.2187,-0.1719 -0.1407,-2.1719 -2.1094,-2.1719 -1.0625,0 -1.5391,0.4063 -0.4765,0.4062 -0.4765,0.9531 0,0.3125 0.1484,0.5469 0.1484,0.2343 0.3359,0.3671 0.1875,0.1329 0.5391,0.2579 0.3516,0.125 0.5703,0.1718 0.2188,0.0469 0.625,0.1407 1.4375,0.2656 2.0469,0.8593 0.7656,0.75 0.7656,1.7188 0,1.0625 -0.7187,1.7812 -0.7188,0.7188 -2.1875,0.7188 -1.1719,0 -1.9688,-0.7813 -0.1094,0.1094 -0.1953,0.2032 -0.0859,0.0937 -0.1094,0.125 -0.0234,0.0312 -0.0312,0.0468 -0.0078,0.0157 -0.0391,0.0469 -0.3594,0.3594 -0.4375,0.3594 -0.1562,0 -0.1797,-0.0938 -0.0234,-0.0937 -0.0234,-0.3437 z m 7.0881,0.2344 0,-0.5625 q 0.9531,0 1.1797,-0.1172 0.2265,-0.1172 0.2265,-0.6953 l 0,-4.8282 q 0,-0.6718 -0.2265,-0.8359 -0.2266,-0.1641 -1.1016,-0.1641 l 0,-0.5625 2.5156,-0.1875 0,6.6094 q 0,0.5313 0.1875,0.6563 0.1875,0.125 1.0782,0.125 l 0,0.5625 q -1.8438,-0.0469 -1.875,-0.0469 -0.25,0 -1.9844,0.0469 z m 0.75,-11.0938 q 0,-0.3594 0.2812,-0.6562 0.2813,-0.2969 0.6797,-0.2969 0.3985,0 0.6797,0.2734 0.2813,0.2735 0.2813,0.6875 0,0.4141 -0.2813,0.6797 -0.2812,0.2656 -0.6875,0.2656 -0.4062,0 -0.6797,-0.2812 -0.2734,-0.2813 -0.2734,-0.6719 z m 4.1395,7.2422 q 0,-1.7109 1.1641,-2.9609 1.164,-1.25 2.8359,-1.25 1.6406,0 2.8125,1.2421 1.1719,1.2422 1.1719,2.961 0,1.7031 -1.1797,2.8828 -1.1797,1.1797 -2.8203,1.1797 -1.6094,0 -2.7969,-1.1719 -1.1875,-1.1719 -1.1875,-2.8828 z m 1.5,-0.1484 q 0,1.75 0.4531,2.5468 0.7032,1.2032 2.0469,1.2032 0.6719,0 1.2266,-0.3594 0.5547,-0.3594 0.8672,-0.9688 0.3906,-0.7968 0.3906,-2.4218 0,-1.7188 -0.4688,-2.5 -0.7031,-1.1719 -2.0312,-1.1719 -0.5781,0 -1.1485,0.3047 -0.5703,0.3047 -0.8984,0.8984 -0.4375,0.7969 -0.4375,2.4688 z m 7.5732,4 0,-0.5625 q 0.9531,0 1.1797,-0.1172 0.2265,-0.1172 0.2265,-0.6953 l 0,-4.8125 q 0,-0.6719 -0.2343,-0.8438 -0.2344,-0.1719 -1.1719,-0.1719 l 0,-0.5625 2.5312,-0.1875 0,1.8907 q 0.8438,-1.8907 2.6719,-1.8907 1.3438,0 1.8906,0.6563 0.3907,0.4531 0.4688,0.9609 0.0781,0.5078 0.0781,1.8047 l 0,3.4375 q 0.0313,0.375 0.3125,0.4531 0.2813,0.0782 1.0938,0.0782 l 0,0.5625 q -1.8282,-0.0469 -2.0157,-0.0469 -0.1406,0 -2.0312,0.0469 l 0,-0.5625 q 0.9531,0 1.1797,-0.1172 0.2265,-0.1172 0.2265,-0.6953 l 0,-4.1875 q 0,-0.9219 -0.2812,-1.461 -0.2813,-0.539 -1.0469,-0.539 -0.9375,0 -1.6875,0.7812 -0.75,0.7813 -0.75,2.0938 l 0,3.3125 q 0,0.5781 0.2266,0.6953 0.2265,0.1172 1.1797,0.1172 l 0,0.5625 q -1.8282,-0.0469 -2.0157,-0.0469 -0.1406,0 -2.0312,0.0469 z m 16.944,-6.7422 q 0,-0.3985 0.2812,-0.6797 0.2813,-0.2813 0.6719,-0.2813 0.3906,0 0.6719,0.2813 0.2812,0.2812 0.2812,0.6797 0,0.3984 -0.2812,0.6797 -0.2813,0.2812 -0.6719,0.2812 -0.3906,0 -0.6719,-0.2812 -0.2812,-0.2813 -0.2812,-0.6797 z m 0,6 q 0,-0.3985 0.2812,-0.6797 0.2813,-0.2813 0.6719,-0.2813 0.3906,0 0.6719,0.2813 0.2812,0.2812 0.2812,0.6797 0,0.3984 -0.2812,0.6797 -0.2813,0.2812 -0.6719,0.2812 -0.3906,0 -0.6719,-0.2812 -0.2812,-0.2813 -0.2812,-0.6797 z m 10.052,0.7422 0,-0.5625 0.4375,0 q 0.9688,0 1.1954,-0.1563 0.2265,-0.1562 0.2265,-0.6875 l 0,-9.4844 q 0,-0.5156 -0.2265,-0.6797 -0.2266,-0.164 -1.1954,-0.164 l -0.4375,0 0,-0.5625 6.3594,0 q 1.8125,0 3.0313,1 1.2187,1 1.2187,2.3437 0,1.3438 -1.2344,2.3047 -1.2343,0.961 -2.875,0.961 l -3.0312,0 0,4.2812 q 0,0.5313 0.2187,0.6875 0.2188,0.1563 1.2032,0.1563 l 0.4218,0 0,0.5625 q -0.625,-0.0469 -2.6562,-0.0469 -2.0156,0 -2.6563,0.0469 z m 3.4063,-6.1563 2.4844,0 q 0.8125,0 1.3984,-0.2266 0.5859,-0.2265 0.8516,-0.5 0.2656,-0.2734 0.4218,-0.7265 0.1563,-0.4531 0.1719,-0.7031 0.0156,-0.25 0.0156,-0.6407 0,-0.3906 -0.0156,-0.6406 -0.0156,-0.25 -0.1719,-0.7031 -0.1562,-0.4531 -0.4218,-0.7266 -0.2657,-0.2734 -0.8516,-0.4922 -0.5859,-0.2187 -1.3984,-0.2187 l -1.6094,0 q -0.6094,0 -0.7422,0.125 -0.1328,0.125 -0.1328,0.5937 l 0,4.8594 z m 8.702,6.1563 0,-0.5625 q 0.9531,0 1.1797,-0.1172 0.2266,-0.1172 0.2266,-0.6953 l 0,-4.8125 q 0,-0.6719 -0.2344,-0.8438 -0.2344,-0.1719 -1.1719,-0.1719 l 0,-0.5625 2.5,-0.1875 0,1.9844 q 0.2656,-0.7812 0.8047,-1.3828 0.5391,-0.6016 1.4141,-0.6016 0.5781,0 0.9531,0.3203 0.375,0.3204 0.375,0.7735 0,0.3906 -0.2422,0.5937 -0.2422,0.2032 -0.5234,0.2032 -0.3282,0 -0.5547,-0.211 -0.2266,-0.2109 -0.2266,-0.5703 0,-0.2187 0.1016,-0.3828 0.1015,-0.1641 0.1797,-0.2344 0.0781,-0.0703 0.1406,-0.0859 -0.0469,-0.0156 -0.2031,-0.0156 -0.9844,0 -1.5547,0.9921 -0.5703,0.9922 -0.5703,2.3985 l 0,2.7656 q 0,0.5313 0.2187,0.6875 0.2188,0.1563 1.1563,0.1563 l 0.375,0 0,0.5625 q -0.7188,-0.0469 -2.2813,-0.0469 -0.2187,0 -0.5625,0.0078 -0.3437,0.0078 -0.7969,0.0234 -0.4531,0.0157 -0.7031,0.0157 z m 7.0342,-3.9532 q 0,-1.7031 1.0937,-2.9062 1.0938,-1.2031 2.6563,-1.2031 1.5781,0 2.3984,1.0234 0.8203,1.0234 0.8203,2.5078 0,0.2656 -0.0703,0.3203 -0.0703,0.0547 -0.3828,0.0547 l -5.0156,0 q 0,1.8281 0.5312,2.7031 0.7656,1.2032 2.0469,1.2032 0.1719,0 0.3828,-0.0391 0.2109,-0.0391 0.6406,-0.1875 0.4297,-0.1484 0.8047,-0.5625 0.375,-0.4141 0.5938,-1.0703 0.0625,-0.25 0.2343,-0.25 0.2344,0 0.2344,0.2187 0,0.1563 -0.1719,0.5078 -0.1718,0.3516 -0.4922,0.7735 -0.3203,0.4219 -0.9531,0.7422 -0.6328,0.3203 -1.3828,0.3203 -1.5937,0 -2.7812,-1.2031 -1.1875,-1.2032 -1.1875,-2.9532 z m 1.5156,-0.5781 4.2656,0 q 0,-0.375 -0.0625,-0.8047 Q 7.5055,-8.0622 7.318,-8.6481 7.1305,-9.234 6.6852,-9.6012 6.2399,-9.9684 5.5993,-9.9684 q -0.2969,0 -0.6094,0.125 -0.3125,0.125 -0.6875,0.4219 -0.375,0.2968 -0.6406,0.9765 -0.2657,0.6797 -0.2969,1.6172 z m 6.5813,0.6563 q 0,-1.7032 1.1954,-2.8907 1.1953,-1.1875 2.8203,-1.1875 1.375,0 2.2656,1.1094 l 0,-3.8906 q 0,-0.6563 -0.2344,-0.8281 -0.2344,-0.1719 -1.1719,-0.1719 l 0,-0.5625 2.5938,-0.1875 0,10.9219 q 0,0.6562 0.2344,0.8281 0.2343,0.1719 1.1718,0.1719 l 0,0.5625 -2.6406,0.2031 0,-1.1875 q -0.9375,1.1875 -2.4219,1.1875 -1.5468,0 -2.6796,-1.1875 -1.1329,-1.1875 -1.1329,-2.8906 z m 1.5,0.0156 q 0,1.6875 0.5157,2.5156 0.7187,1.1406 1.8906,1.1406 1.3281,0 2.125,-1.25 0.2031,-0.3125 0.2031,-0.6718 l 0,-3.6875 q 0,-0.3594 -0.2031,-0.6719 -0.7344,-1.0781 -1.9375,-1.0781 -1.2656,0 -2.0469,1.1562 -0.5469,0.8594 -0.5469,2.5469 z m 8.4689,3.8594 0,-0.5625 q 0.9532,0 1.1797,-0.1172 0.2266,-0.1172 0.2266,-0.6953 l 0,-4.8282 q 0,-0.6718 -0.2266,-0.8359 -0.2265,-0.1641 -1.1015,-0.1641 l 0,-0.5625 2.5156,-0.1875 0,6.6094 q 0,0.5313 0.1875,0.6563 0.1875,0.125 1.0781,0.125 l 0,0.5625 q -1.8437,-0.0469 -1.875,-0.0469 -0.25,0 -1.9844,0.0469 z m 0.75,-11.0938 q 0,-0.3594 0.2813,-0.6562 0.2812,-0.2969 0.6797,-0.2969 0.3984,0 0.6797,0.2734 0.2812,0.2735 0.2812,0.6875 0,0.4141 -0.2812,0.6797 -0.2813,0.2656 -0.6875,0.2656 -0.4063,0 -0.6797,-0.2812 -0.2735,-0.2813 -0.2735,-0.6719 z m 4.2489,7.2109 q 0,-1.7109 1.125,-2.9453 1.125,-1.2343 2.7813,-1.2343 1.0937,0 1.9218,0.5234 0.8282,0.5234 0.8282,1.3984 0,0.4063 -0.2344,0.625 -0.2344,0.2188 -0.5938,0.2188 -0.375,0 -0.6015,-0.2344 -0.2266,-0.2344 -0.2266,-0.5937 0,-0.1563 0.0547,-0.3125 0.0547,-0.1563 0.2578,-0.3282 0.2031,-0.1718 0.5469,-0.1875 -0.6563,-0.6562 -1.9375,-0.6562 -0.9063,0 -1.6641,0.8594 -0.7578,0.8593 -0.7578,2.8281 0,1.0312 0.25,1.7812 0.25,0.75 0.6641,1.1407 0.414,0.3906 0.8203,0.5703 0.4062,0.1797 0.7969,0.1797 1.7656,0 2.3593,-1.8907 0.0625,-0.1875 0.2344,-0.1875 0.2344,0 0.2344,0.1875 0,0.0938 -0.0703,0.3125 -0.0703,0.2188 -0.2891,0.586 -0.2187,0.3672 -0.5312,0.6797 -0.3125,0.3125 -0.8594,0.539 -0.5469,0.2266 -1.2344,0.2266 -1.5937,0 -2.7344,-1.1875 -1.1406,-1.1875 -1.1406,-2.8985 z m 7.722,-3.3203 0,-0.3906 q 0.8281,-0.0312 1.375,-0.6172 0.5469,-0.5859 0.7344,-1.3047 0.1875,-0.7187 0.2031,-1.5468 l 0.4531,0 0,3.2968 2.5782,0 0,0.5625 -2.5782,0 0,5 q 0,1.9532 1.2032,1.9532 0.5312,0 0.875,-0.5313 0.3437,-0.5312 0.3437,-1.4844 l 0,-1 0.4375,0 0,1.0313 q 0,0.9687 -0.4453,1.7031 -0.4453,0.7344 -1.3359,0.7344 -0.3125,0 -0.6407,-0.086 -0.3281,-0.0859 -0.7422,-0.2968 -0.414,-0.211 -0.6718,-0.7422 -0.2578,-0.5313 -0.2578,-1.3125 l 0,-4.9688 -1.5313,0 z m 7.2302,7.2032 0,-0.5625 q 0.9531,0 1.1797,-0.1172 0.2265,-0.1172 0.2265,-0.6953 l 0,-4.8282 q 0,-0.6718 -0.2265,-0.8359 -0.2266,-0.1641 -1.1016,-0.1641 l 0,-0.5625 2.5156,-0.1875 0,6.6094 q 0,0.5313 0.1875,0.6563 0.1875,0.125 1.0781,0.125 l 0,0.5625 q -1.8437,-0.0469 -1.875,-0.0469 -0.25,0 -1.9843,0.0469 z m 0.75,-11.0938 q 0,-0.3594 0.2812,-0.6562 0.2813,-0.2969 0.6797,-0.2969 0.3984,0 0.6797,0.2734 0.2812,0.2735 0.2812,0.6875 0,0.4141 -0.2812,0.6797 -0.2813,0.2656 -0.6875,0.2656 -0.4063,0 -0.6797,-0.2812 -0.2734,-0.2813 -0.2734,-0.6719 z m 4.1395,7.2422 q 0,-1.7109 1.164,-2.9609 1.1641,-1.25 2.836,-1.25 1.6406,0 2.8125,1.2421 1.1719,1.2422 1.1719,2.961 0,1.7031 -1.1797,2.8828 -1.1797,1.1797 -2.8203,1.1797 -1.6094,0 -2.7969,-1.1719 -1.1875,-1.1719 -1.1875,-2.8828 z m 1.5,-0.1484 q 0,1.75 0.4531,2.5468 0.7031,1.2032 2.0469,1.2032 0.6719,0 1.2265,-0.3594 0.5547,-0.3594 0.8672,-0.9688 0.3907,-0.7968 0.3907,-2.4218 0,-1.7188 -0.4688,-2.5 -0.7031,-1.1719 -2.0312,-1.1719 -0.5782,0 -1.1485,0.3047 -0.5703,0.3047 -0.8984,0.8984 -0.4375,0.7969 -0.4375,2.4688 z m 7.5732,4 0,-0.5625 q 0.9531,0 1.1796,-0.1172 0.2266,-0.1172 0.2266,-0.6953 l 0,-4.8125 q 0,-0.6719 -0.2344,-0.8438 -0.2343,-0.1719 -1.1718,-0.1719 l 0,-0.5625 2.5312,-0.1875 0,1.8907 q 0.8438,-1.8907 2.6719,-1.8907 1.3437,0 1.8906,0.6563 0.3906,0.4531 0.4688,0.9609 0.0781,0.5078 0.0781,1.8047 l 0,3.4375 q 0.0312,0.375 0.3125,0.4531 0.2812,0.0782 1.0937,0.0782 l 0,0.5625 q -1.8281,-0.0469 -2.0156,-0.0469 -0.1406,0 -2.0312,0.0469 l 0,-0.5625 q 0.9531,0 1.1796,-0.1172 0.2266,-0.1172 0.2266,-0.6953 l 0,-4.1875 q 0,-0.9219 -0.2812,-1.461 -0.2813,-0.539 -1.0469,-0.539 -0.9375,0 -1.6875,0.7812 -0.75,0.7813 -0.75,2.0938 l 0,3.3125 q 0,0.5781 0.2265,0.6953 0.2266,0.1172 1.1797,0.1172 l 0,0.5625 q -1.8281,-0.0469 -2.0156,-0.0469 -0.1406,0 -2.0312,0.0469 z m 17.1783,-4.5 q 0,-3.0469 1.1406,-5.4844 0.4844,-1.0313 1.1563,-1.8985 0.6719,-0.8671 1.125,-1.2421 0.4531,-0.375 0.5781,-0.375 0.1719,0 0.1719,0.1875 0,0.0781 -0.2344,0.2968 -2.8906,2.9532 -2.8906,8.5157 0,5.5781 2.8281,8.4218 0.2969,0.3125 0.2969,0.3907 0,0.1875 -0.1719,0.1875 -0.125,0 -0.5625,-0.3594 -0.4375,-0.3594 -1.1016,-1.1875 -0.664,-0.8281 -1.1484,-1.8438 -1.1875,-2.4375 -1.1875,-5.6093 z m 5.9489,2.0625 q 0,-0.5313 0.3125,-0.7813 0.3125,-0.25 0.7031,-0.25 0.4063,0 0.7032,0.2656 0.2968,0.2657 0.2968,0.7344 0,0.5 -0.3515,0.7813 -0.3516,0.2812 -0.836,0.2187 0.4375,0.7188 1.2266,1.0391 0.7891,0.3203 1.5391,0.3203 0.7656,0 1.3984,-0.6641 0.6328,-0.664 0.6328,-2.3047 0,-1.3906 -0.539,-2.1875 Q 81.503,-8.359 80.4405,-8.359 l -0.7969,0 q -0.2656,0 -0.3515,-0.0313 -0.086,-0.0312 -0.086,-0.1719 0,-0.1718 0.2813,-0.2187 0.2656,0 0.7031,-0.0469 1.0312,-0.0312 1.5937,-0.9375 0.5,-0.8437 0.5,-2.0469 0,-1.1093 -0.5156,-1.5625 -0.5156,-0.4531 -1.2031,-0.4531 -0.6406,0 -1.3281,0.2578 -0.6875,0.2578 -1.0625,0.8516 1.1093,0 1.1093,0.9062 0,0.3907 -0.25,0.6485 -0.25,0.2578 -0.6718,0.2578 -0.3907,0 -0.6563,-0.25 -0.2656,-0.25 -0.2656,-0.6875 0,-1.0156 0.9219,-1.7266 0.9218,-0.7109 2.2656,-0.7109 1.3437,0 2.3281,0.7031 0.9844,0.7031 0.9844,1.7813 0,1.0625 -0.6953,1.9296 -0.6953,0.8672 -1.8203,1.2266 1.375,0.2813 2.1875,1.2031 0.8125,0.9219 0.8125,2.0625 0,1.4063 -1.1016,2.4375 -1.1016,1.0313 -2.7266,1.0313 -1.5,0 -2.5703,-0.8047 -1.0703,-0.8047 -1.0703,-2.0234 z m 9.7919,-4.3047 q 0,-0.3985 0.2813,-0.6797 0.2812,-0.2813 0.6719,-0.2813 0.3906,0 0.6718,0.2813 0.2813,0.2812 0.2813,0.6797 0,0.3984 -0.2813,0.6797 -0.2812,0.2812 -0.6718,0.2812 -0.3907,0 -0.6719,-0.2812 -0.2813,-0.2813 -0.2813,-0.6797 z m 0,6 q 0,-0.3985 0.2813,-0.6797 0.2812,-0.2813 0.6719,-0.2813 0.3906,0 0.6718,0.2813 0.2813,0.2812 0.2813,0.6797 0,0.3984 -0.2813,0.6797 -0.2812,0.2812 -0.6718,0.2812 -0.3907,0 -0.6719,-0.2812 -0.2813,-0.2813 -0.2813,-0.6797 z m 5.0458,-9.5391 0,-0.5625 q 2.1563,0 3.2656,-1.1406 0.3125,0 0.3672,0.0703 0.0547,0.0703 0.0547,0.3984 l 0,10.0938 q 0,0.5469 0.2578,0.7031 0.2578,0.1563 1.4141,0.1563 l 0.5781,0 0,0.5625 q -0.6406,-0.0469 -2.9219,-0.0469 -2.2812,0 -2.9218,0.0469 l 0,-0.5625 0.5781,0 q 1.1406,0 1.4062,-0.1563 0.2657,-0.1562 0.2657,-0.7031 l 0,-9.3281 q -0.9219,0.4687 -2.3438,0.4687 z m 8.4169,14.5938 q 0,-0.0782 0.2344,-0.2969 2.8906,-2.9531 2.8906,-8.5156 0,-5.5782 -2.7812,-8.4063 -0.3438,-0.3281 -0.3438,-0.4062 0,-0.1875 0.1719,-0.1875 0.125,0 0.5625,0.3593 0.4375,0.3594 1.1016,1.1875 0.664,0.8282 1.1484,1.8438 1.1875,2.4375 1.1875,5.6094 0,3.0468 -1.1406,5.4843 -0.4844,1.0313 -1.1563,1.8985 -0.6718,0.8672 -1.125,1.2422 -0.4531,0.375 -0.5781,0.375 -0.1719,0 -0.1719,-0.1875 z"
       style="stroke:none" />
  </g>
  <g
     id="g69"
     style="fill:#262626;stroke:#262626">
    <line
       id="line71"
       y1="580"
       x2="113"
       x1="113"
       style="fill:none"
       y2="49" />
    <line
       id="line73"
       y1="580"
       x2="119.74"
       x1="113"
       style="fill:none"
       y2="580" />
    <line
       id="line75"
       y1="513.625"
       x2="119.74"
       x1="113"
       style="fill:none"
       y2="513.625" />
    <line
       id="line77"
       y1="447.25"
       x2="119.74"
       x1="113"
       style="fill:none"
       y2="447.25" />
    <line
       id="line79"
       y1="380.875"
       x2="119.74"
       x1="113"
       style="fill:none"
       y2="380.875" />
    <line
       id="line81"
       y1="314.5"
       x2="119.74"
       x1="113"
       style="fill:none"
       y2="314.5" />
    <line
       id="line83"
       y1="248.125"
       x2="119.74"
       x1="113"
       style="fill:none"
       y2="248.125" />
    <line
       id="line85"
       y1="181.75"
       x2="119.74"
       x1="113"
       style="fill:none"
       y2="181.75" />
    <line
       id="line87"
       y1="115.375"
       x2="119.74"
       x1="113"
       style="fill:none"
       y2="115.375" />
    <line
       id="line89"
       y1="49"
       x2="119.74"
       x1="113"
       style="fill:none"
       y2="49" />
  </g>
  <g
     id="g91"
     style="font-size:17px;fill:#262626;stroke:#262626;font-family:CMU Serif"
     transform="translate(107,580)">
    <path
       inkscape:connector-curvature="0"
       id="path93"
       d="m -7.8429,2.3844 q 0,-2.5 0.6406,-3.8594 0.875,-2.0312 2.9532,-2.0312 0.4375,0 0.8984,0.125 0.4609,0.125 1.0469,0.5781 0.5859,0.4531 0.9453,1.2031 0.6719,1.4532 0.6719,3.9844 0,2.4844 -0.625,3.8438 -0.9219,1.9687 -2.9532,1.9687 -0.7656,0 -1.539,-0.3906 Q -6.5773,7.4157 -7.0773,6.4782 -7.8429,5.0719 -7.8429,2.3844 z M -6.421,2.1813 q 0,2.5625 0.1875,3.5781 0.2031,1.1094 0.7734,1.586 0.5703,0.4765 1.1953,0.4765 0.6719,0 1.2422,-0.5078 0.5703,-0.5078 0.7422,-1.6172 0.1875,-1.0937 0.1875,-3.5156 0,-2.3594 -0.1719,-3.3125 -0.2187,-1.1094 -0.8125,-1.5547 -0.5937,-0.4453 -1.1875,-0.4453 -0.2187,0 -0.4609,0.0703 -0.2422,0.0703 -0.5781,0.2578 -0.336,0.1875 -0.6016,0.6641 -0.2656,0.4765 -0.3906,1.1953 -0.125,0.9062 -0.125,3.125 z"
       style="stroke:none" />
  </g>
  <g
     id="g95"
     style="font-size:17px;fill:#262626;stroke:#262626;font-family:CMU Serif"
     transform="translate(107,513.625)">
    <path
       inkscape:connector-curvature="0"
       id="path97"
       d="m -21.0676,2.3844 q 0,-2.5 0.6407,-3.8594 0.875,-2.0312 2.9531,-2.0312 0.4375,0 0.8984,0.125 0.461,0.125 1.0469,0.5781 0.5859,0.4531 0.9453,1.2031 0.6719,1.4532 0.6719,3.9844 0,2.4844 -0.625,3.8438 -0.9219,1.9687 -2.9531,1.9687 -0.7657,0 -1.5391,-0.3906 -0.7734,-0.3906 -1.2734,-1.3281 -0.7657,-1.4063 -0.7657,-4.0938 z m 1.4219,-0.2031 q 0,2.5625 0.1875,3.5781 0.2031,1.1094 0.7734,1.586 0.5704,0.4765 1.1954,0.4765 0.6718,0 1.2421,-0.5078 0.5704,-0.5078 0.7422,-1.6172 0.1875,-1.0937 0.1875,-3.5156 0,-2.3594 -0.1718,-3.3125 -0.2188,-1.1094 -0.8125,-1.5547 -0.5938,-0.4453 -1.1875,-0.4453 -0.2188,0 -0.461,0.0703 -0.2422,0.0703 -0.5781,0.2578 -0.3359,0.1875 -0.6016,0.6641 -0.2656,0.4765 -0.3906,1.1953 -0.125,0.9062 -0.125,3.125 z m 7.8585,4.7344 q 0,-0.3594 0.2578,-0.6172 0.2579,-0.2578 0.6485,-0.2578 0.375,0 0.6328,0.2422 0.2578,0.2421 0.2578,0.6328 0,0.3906 -0.2734,0.6484 -0.2735,0.2578 -0.6172,0.2578 -0.3906,0 -0.6485,-0.2734 -0.2578,-0.2735 -0.2578,-0.6328 z m 4.8037,-8.7969 0,-0.5313 q 2.0312,0 3.0937,-1.0937 0.2813,0 0.336,0.0703 0.0547,0.0703 0.0547,0.3828 l 0,9.5313 q 0,0.5156 0.2421,0.664 0.2422,0.1485 1.336,0.1485 l 0.5469,0 0,0.5312 Q -1.9679,7.775 -4.132,7.775 q -2.164,0 -2.7578,0.0469 l 0,-0.5312 0.5469,0 q 1.0781,0 1.3281,-0.1485 0.25,-0.1484 0.25,-0.664 l 0,-8.8125 q -0.875,0.4531 -2.2187,0.4531 z"
       style="stroke:none" />
  </g>
  <g
     id="g99"
     style="font-size:17px;fill:#262626;stroke:#262626;font-family:CMU Serif"
     transform="translate(107,447.25)">
    <path
       inkscape:connector-curvature="0"
       id="path101"
       d="m -21.0676,2.3844 q 0,-2.5 0.6407,-3.8594 0.875,-2.0312 2.9531,-2.0312 0.4375,0 0.8984,0.125 0.461,0.125 1.0469,0.5781 0.5859,0.4531 0.9453,1.2031 0.6719,1.4532 0.6719,3.9844 0,2.4844 -0.625,3.8438 -0.9219,1.9687 -2.9531,1.9687 -0.7657,0 -1.5391,-0.3906 -0.7734,-0.3906 -1.2734,-1.3281 -0.7657,-1.4063 -0.7657,-4.0938 z m 1.4219,-0.2031 q 0,2.5625 0.1875,3.5781 0.2031,1.1094 0.7734,1.586 0.5704,0.4765 1.1954,0.4765 0.6718,0 1.2421,-0.5078 0.5704,-0.5078 0.7422,-1.6172 0.1875,-1.0937 0.1875,-3.5156 0,-2.3594 -0.1718,-3.3125 -0.2188,-1.1094 -0.8125,-1.5547 -0.5938,-0.4453 -1.1875,-0.4453 -0.2188,0 -0.461,0.0703 -0.2422,0.0703 -0.5781,0.2578 -0.3359,0.1875 -0.6016,0.6641 -0.2656,0.4765 -0.3906,1.1953 -0.125,0.9062 -0.125,3.125 z m 7.8585,4.7344 q 0,-0.3594 0.2578,-0.6172 0.2579,-0.2578 0.6485,-0.2578 0.375,0 0.6328,0.2422 0.2578,0.2421 0.2578,0.6328 0,0.3906 -0.2734,0.6484 -0.2735,0.2578 -0.6172,0.2578 -0.3906,0 -0.6485,-0.2734 -0.2578,-0.2735 -0.2578,-0.6328 z m 4.1318,0.9062 q 0,-0.3125 0.0313,-0.4062 0.0312,-0.0938 0.1562,-0.2188 l 3.2656,-3.6406 q 1.7969,-2 1.7969,-3.7656 0,-1.125 -0.6016,-1.9453 -0.6015,-0.8204 -1.6796,-0.8204 -0.75,0 -1.3829,0.461 -0.6328,0.4609 -0.914,1.2734 0.0469,-0.0156 0.2187,-0.0156 0.4219,0 0.6641,0.2656 0.2422,0.2656 0.2422,0.625 0,0.4531 -0.2969,0.6719 -0.2969,0.2187 -0.5937,0.2187 -0.125,0 -0.2735,-0.0234 -0.1484,-0.0234 -0.3906,-0.2578 -0.2422,-0.2344 -0.2422,-0.6719 0,-1.1875 0.9063,-2.1328 0.9062,-0.9453 2.2812,-0.9453 1.5625,0 2.5859,0.9297 1.0235,0.9297 1.0235,2.3672 0,0.5156 -0.1563,0.9765 -0.1562,0.461 -0.3593,0.8203 -0.2032,0.3594 -0.75,0.9219 Q -2.671,3.0719 -3.1085,3.486 -3.546,3.9 -4.5304,4.7594 l -1.8125,1.75 3.0625,0 q 1.5,0 1.6094,-0.125 0.1719,-0.25 0.375,-1.5156 l 0.4375,0 -0.4844,2.9531 -6.3125,0 z"
       style="stroke:none" />
  </g>
  <g
     id="g103"
     style="font-size:17px;fill:#262626;stroke:#262626;font-family:CMU Serif"
     transform="translate(107,380.875)">
    <path
       inkscape:connector-curvature="0"
       id="path105"
       d="m -21.0676,2.3844 q 0,-2.5 0.6407,-3.8594 0.875,-2.0312 2.9531,-2.0312 0.4375,0 0.8984,0.125 0.461,0.125 1.0469,0.5781 0.5859,0.4531 0.9453,1.2031 0.6719,1.4532 0.6719,3.9844 0,2.4844 -0.625,3.8438 -0.9219,1.9687 -2.9531,1.9687 -0.7657,0 -1.5391,-0.3906 -0.7734,-0.3906 -1.2734,-1.3281 -0.7657,-1.4063 -0.7657,-4.0938 z m 1.4219,-0.2031 q 0,2.5625 0.1875,3.5781 0.2031,1.1094 0.7734,1.586 0.5704,0.4765 1.1954,0.4765 0.6718,0 1.2421,-0.5078 0.5704,-0.5078 0.7422,-1.6172 0.1875,-1.0937 0.1875,-3.5156 0,-2.3594 -0.1718,-3.3125 -0.2188,-1.1094 -0.8125,-1.5547 -0.5938,-0.4453 -1.1875,-0.4453 -0.2188,0 -0.461,0.0703 -0.2422,0.0703 -0.5781,0.2578 -0.3359,0.1875 -0.6016,0.6641 -0.2656,0.4765 -0.3906,1.1953 -0.125,0.9062 -0.125,3.125 z m 7.8585,4.7344 q 0,-0.3594 0.2578,-0.6172 0.2579,-0.2578 0.6485,-0.2578 0.375,0 0.6328,0.2422 0.2578,0.2421 0.2578,0.6328 0,0.3906 -0.2734,0.6484 -0.2735,0.2578 -0.6172,0.2578 -0.3906,0 -0.6485,-0.2734 -0.2578,-0.2735 -0.2578,-0.6328 z M -7.7804,5.525 q 0,-0.5156 0.2891,-0.75 0.289,-0.2343 0.664,-0.2343 0.3907,0 0.6719,0.2578 0.2813,0.2578 0.2813,0.6953 0,0.4687 -0.336,0.7344 -0.3359,0.2656 -0.789,0.2031 0.4062,0.6719 1.1562,0.9766 0.75,0.3046 1.4375,0.3046 0.7344,0 1.3281,-0.625 0.5938,-0.625 0.5938,-2.1718 0,-1.3125 -0.5078,-2.0703 -0.5078,-0.7579 -1.5078,-0.7579 l -0.75,0 q -0.2657,0 -0.336,-0.0234 Q -5.6554,2.0407 -5.6554,1.9 q 0,-0.1718 0.25,-0.2031 0.25,0 0.6563,-0.0469 1,-0.0312 1.5156,-0.8906 0.4844,-0.7969 0.4844,-1.9375 0,-1.0312 -0.4922,-1.4609 -0.4922,-0.4297 -1.1485,-0.4297 -0.5937,0 -1.25,0.2422 -0.6562,0.2422 -1,0.8047 1.0469,0 1.0469,0.8437 0,0.375 -0.2344,0.625 -0.2343,0.25 -0.625,0.25 -0.375,0 -0.625,-0.2422 -0.25,-0.2422 -0.25,-0.6484 0,-0.9688 0.8672,-1.6406 0.8672,-0.6719 2.1485,-0.6719 1.25,0 2.1875,0.6641 0.9375,0.664 0.9375,1.6953 0,1 -0.6641,1.8203 -0.6641,0.8203 -1.7109,1.164 1.2812,0.25 2.0546,1.125 0.7735,0.875 0.7735,1.9532 0,1.3281 -1.0469,2.3047 -1.0469,0.9765 -2.5781,0.9765 -1.4063,0 -2.4141,-0.7656 Q -7.7804,6.6657 -7.7804,5.525 z"
       style="stroke:none" />
  </g>
  <g
     id="g107"
     style="font-size:17px;fill:#262626;stroke:#262626;font-family:CMU Serif"
     transform="translate(107,314.5)">
    <path
       inkscape:connector-curvature="0"
       id="path109"
       d="m -21.0676,2.3844 q 0,-2.5 0.6407,-3.8594 0.875,-2.0312 2.9531,-2.0312 0.4375,0 0.8984,0.125 0.461,0.125 1.0469,0.5781 0.5859,0.4531 0.9453,1.2031 0.6719,1.4532 0.6719,3.9844 0,2.4844 -0.625,3.8438 -0.9219,1.9687 -2.9531,1.9687 -0.7657,0 -1.5391,-0.3906 -0.7734,-0.3906 -1.2734,-1.3281 -0.7657,-1.4063 -0.7657,-4.0938 z m 1.4219,-0.2031 q 0,2.5625 0.1875,3.5781 0.2031,1.1094 0.7734,1.586 0.5704,0.4765 1.1954,0.4765 0.6718,0 1.2421,-0.5078 0.5704,-0.5078 0.7422,-1.6172 0.1875,-1.0937 0.1875,-3.5156 0,-2.3594 -0.1718,-3.3125 -0.2188,-1.1094 -0.8125,-1.5547 -0.5938,-0.4453 -1.1875,-0.4453 -0.2188,0 -0.461,0.0703 -0.2422,0.0703 -0.5781,0.2578 -0.3359,0.1875 -0.6016,0.6641 -0.2656,0.4765 -0.3906,1.1953 -0.125,0.9062 -0.125,3.125 z m 7.8585,4.7344 q 0,-0.3594 0.2578,-0.6172 0.2579,-0.2578 0.6485,-0.2578 0.375,0 0.6328,0.2422 0.2578,0.2421 0.2578,0.6328 0,0.3906 -0.2734,0.6484 -0.2735,0.2578 -0.6172,0.2578 -0.3906,0 -0.6485,-0.2734 -0.2578,-0.2735 -0.2578,-0.6328 z m 3.7568,-1.9063 0,-0.5156 5.2188,-7.9844 q 0.1406,-0.2031 0.3437,-0.2031 0.1875,0 0.2344,0.0781 0.0469,0.0781 0.0469,0.375 l 0,7.7344 1.6875,0 0,0.5156 -1.6875,0 0,1.4844 q 0,0.5 0.2031,0.6484 0.2031,0.1485 1.0781,0.1485 l 0.3594,0 0,0.5312 Q -1.2335,7.775 -2.8585,7.775 q -1.5938,0 -2.2969,0.0469 l 0,-0.5312 0.3594,0 q 0.8906,0 1.0937,-0.1485 0.2032,-0.1484 0.2032,-0.6484 l 0,-1.4844 -4.5313,0 z m 0.4844,-0.5156 4.1406,0 0,-6.3438 -4.1406,6.3438 z"
       style="stroke:none" />
  </g>
  <g
     id="g111"
     style="font-size:17px;fill:#262626;stroke:#262626;font-family:CMU Serif"
     transform="translate(107,248.125)">
    <path
       inkscape:connector-curvature="0"
       id="path113"
       d="m -21.0676,2.3844 q 0,-2.5 0.6407,-3.8594 0.875,-2.0312 2.9531,-2.0312 0.4375,0 0.8984,0.125 0.461,0.125 1.0469,0.5781 0.5859,0.4531 0.9453,1.2031 0.6719,1.4532 0.6719,3.9844 0,2.4844 -0.625,3.8438 -0.9219,1.9687 -2.9531,1.9687 -0.7657,0 -1.5391,-0.3906 -0.7734,-0.3906 -1.2734,-1.3281 -0.7657,-1.4063 -0.7657,-4.0938 z m 1.4219,-0.2031 q 0,2.5625 0.1875,3.5781 0.2031,1.1094 0.7734,1.586 0.5704,0.4765 1.1954,0.4765 0.6718,0 1.2421,-0.5078 0.5704,-0.5078 0.7422,-1.6172 0.1875,-1.0937 0.1875,-3.5156 0,-2.3594 -0.1718,-3.3125 -0.2188,-1.1094 -0.8125,-1.5547 -0.5938,-0.4453 -1.1875,-0.4453 -0.2188,0 -0.461,0.0703 -0.2422,0.0703 -0.5781,0.2578 -0.3359,0.1875 -0.6016,0.6641 -0.2656,0.4765 -0.3906,1.1953 -0.125,0.9062 -0.125,3.125 z m 7.8585,4.7344 q 0,-0.3594 0.2578,-0.6172 0.2579,-0.2578 0.6485,-0.2578 0.375,0 0.6328,0.2422 0.2578,0.2421 0.2578,0.6328 0,0.3906 -0.2734,0.6484 -0.2735,0.2578 -0.6172,0.2578 -0.3906,0 -0.6485,-0.2734 -0.2578,-0.2735 -0.2578,-0.6328 z m 4.1318,-1.8282 q 0,-0.5156 0.2734,-0.7109 0.2735,-0.1953 0.5704,-0.1953 0.3906,0 0.6171,0.25 0.2266,0.25 0.2266,0.5859 0,0.336 -0.2266,0.586 -0.2265,0.25 -0.6171,0.25 -0.1875,0 -0.2969,-0.0313 0.2187,0.7813 0.9062,1.336 0.6875,0.5546 1.5938,0.5546 1.1406,0 1.8281,-1.0937 0.4063,-0.7188 0.4063,-2.3281 0,-1.4375 -0.3125,-2.1407 -0.4688,-1.0937 -1.4375,-1.0937 -1.3907,0 -2.2032,1.1875 Q -6.421,2.4 -6.546,2.4 -6.7179,2.4 -6.7491,2.3063 -6.7804,2.2125 -6.7804,1.9625 l 0,-5.0312 q 0,-0.4219 0.1719,-0.4219 0.0625,0 0.2031,0.0625 1.0625,0.4688 2.2656,0.4688 1.2188,0 2.2969,-0.4844 0.0938,-0.0625 0.1406,-0.0625 0.1719,0 0.1719,0.1875 0,0.0781 -0.1328,0.2734 -0.1328,0.1953 -0.4219,0.4453 -0.289,0.25 -0.664,0.4922 -0.375,0.2422 -0.9219,0.4063 -0.5469,0.164 -1.1406,0.164 -0.7188,0 -1.4375,-0.2343 l 0,3.3281 q 0.875,-0.875 2.1562,-0.875 1.3594,0 2.2969,1.0937 0.9375,1.0938 0.9375,2.625 0,1.6094 -1.1094,2.7032 -1.1094,1.0937 -2.6094,1.0937 -1.3593,0 -2.2187,-0.9687 -0.8594,-0.9688 -0.8594,-2.1407 z"
       style="stroke:none" />
  </g>
  <g
     id="g115"
     style="font-size:17px;fill:#262626;stroke:#262626;font-family:CMU Serif"
     transform="translate(107,181.75)">
    <path
       inkscape:connector-curvature="0"
       id="path117"
       d="m -21.0676,2.3844 q 0,-2.5 0.6407,-3.8594 0.875,-2.0312 2.9531,-2.0312 0.4375,0 0.8984,0.125 0.461,0.125 1.0469,0.5781 0.5859,0.4531 0.9453,1.2031 0.6719,1.4532 0.6719,3.9844 0,2.4844 -0.625,3.8438 -0.9219,1.9687 -2.9531,1.9687 -0.7657,0 -1.5391,-0.3906 -0.7734,-0.3906 -1.2734,-1.3281 -0.7657,-1.4063 -0.7657,-4.0938 z m 1.4219,-0.2031 q 0,2.5625 0.1875,3.5781 0.2031,1.1094 0.7734,1.586 0.5704,0.4765 1.1954,0.4765 0.6718,0 1.2421,-0.5078 0.5704,-0.5078 0.7422,-1.6172 0.1875,-1.0937 0.1875,-3.5156 0,-2.3594 -0.1718,-3.3125 -0.2188,-1.1094 -0.8125,-1.5547 -0.5938,-0.4453 -1.1875,-0.4453 -0.2188,0 -0.461,0.0703 -0.2422,0.0703 -0.5781,0.2578 -0.3359,0.1875 -0.6016,0.6641 -0.2656,0.4765 -0.3906,1.1953 -0.125,0.9062 -0.125,3.125 z m 7.8585,4.7344 q 0,-0.3594 0.2578,-0.6172 0.2579,-0.2578 0.6485,-0.2578 0.375,0 0.6328,0.2422 0.2578,0.2421 0.2578,0.6328 0,0.3906 -0.2734,0.6484 -0.2735,0.2578 -0.6172,0.2578 -0.3906,0 -0.6485,-0.2734 -0.2578,-0.2735 -0.2578,-0.6328 z m 4.0068,-4.4688 q 0,-2.6719 1.3594,-4.3125 1.3594,-1.6406 3.1094,-1.6406 1.0156,0 1.5859,0.5234 0.5703,0.5235 0.5703,1.3203 0,0.4375 -0.2578,0.625 -0.2578,0.1875 -0.5234,0.1875 -0.3125,0 -0.5469,-0.2031 -0.2344,-0.2031 -0.2344,-0.5781 0,-0.7656 0.9375,-0.7656 -0.4531,-0.6719 -1.5,-0.6719 -0.3281,0 -0.6562,0.0937 -0.3282,0.0938 -0.7657,0.4063 -0.4375,0.3125 -0.7656,0.8125 -0.3281,0.5 -0.5547,1.4375 -0.2265,0.9375 -0.2265,2.1562 l 0,0.4063 q 0.6875,-1.6875 2.1171,-1.6875 1.4297,0 2.4141,1.0937 0.9844,1.0938 0.9844,2.7032 0,1.6562 -1.0235,2.75 -1.0234,1.0937 -2.4765,1.0937 -0.6406,0 -1.2266,-0.2734 Q -6.046,7.65 -6.5929,7.0407 -7.1398,6.4313 -7.4601,5.2516 -7.7804,4.0719 -7.7804,2.4469 z m 1.5625,1.5313 q 0,1.6718 0.2969,2.4687 0.0625,0.1406 0.1719,0.3125 0.1093,0.1719 0.3046,0.4141 0.1954,0.2422 0.5157,0.3906 0.3203,0.1484 0.6953,0.1484 1.1406,0 1.6875,-1.0937 0.2812,-0.6094 0.2812,-2.2813 0,-1.7031 -0.2968,-2.3281 -0.5313,-1.0625 -1.5782,-1.0625 -0.7187,0 -1.2109,0.5 -0.4922,0.5 -0.6797,1.1485 -0.1875,0.6484 -0.1875,1.3828 z"
       style="stroke:none" />
  </g>
  <g
     id="g119"
     style="font-size:17px;fill:#262626;stroke:#262626;font-family:CMU Serif"
     transform="translate(107,115.375)">
    <path
       inkscape:connector-curvature="0"
       id="path121"
       d="m -21.0676,2.3844 q 0,-2.5 0.6407,-3.8594 0.875,-2.0312 2.9531,-2.0312 0.4375,0 0.8984,0.125 0.461,0.125 1.0469,0.5781 0.5859,0.4531 0.9453,1.2031 0.6719,1.4532 0.6719,3.9844 0,2.4844 -0.625,3.8438 -0.9219,1.9687 -2.9531,1.9687 -0.7657,0 -1.5391,-0.3906 -0.7734,-0.3906 -1.2734,-1.3281 -0.7657,-1.4063 -0.7657,-4.0938 z m 1.4219,-0.2031 q 0,2.5625 0.1875,3.5781 0.2031,1.1094 0.7734,1.586 0.5704,0.4765 1.1954,0.4765 0.6718,0 1.2421,-0.5078 0.5704,-0.5078 0.7422,-1.6172 0.1875,-1.0937 0.1875,-3.5156 0,-2.3594 -0.1718,-3.3125 -0.2188,-1.1094 -0.8125,-1.5547 -0.5938,-0.4453 -1.1875,-0.4453 -0.2188,0 -0.461,0.0703 -0.2422,0.0703 -0.5781,0.2578 -0.3359,0.1875 -0.6016,0.6641 -0.2656,0.4765 -0.3906,1.1953 -0.125,0.9062 -0.125,3.125 z m 7.8585,4.7344 q 0,-0.3594 0.2578,-0.6172 0.2579,-0.2578 0.6485,-0.2578 0.375,0 0.6328,0.2422 0.2578,0.2421 0.2578,0.6328 0,0.3906 -0.2734,0.6484 -0.2735,0.2578 -0.6172,0.2578 -0.3906,0 -0.6485,-0.2734 -0.2578,-0.2735 -0.2578,-0.6328 z m 4.2412,-7.0782 0.5625,-3.5 0.4219,0 q 0.0468,0.2032 0.1328,0.2969 0.0859,0.0938 0.5703,0.1641 0.4844,0.0703 1.4687,0.0703 l 4.1407,0 q 0,0.3906 -0.1563,0.5937 L -2.7023,0.6969 Q -3.4366,1.7125 -3.7491,3.6032 -3.9366,4.8688 -3.9366,6.4 l 0,0.8594 q 0,0.9375 -0.7891,0.9375 -0.7891,0 -0.7891,-0.9375 0,-3.25 2.0938,-6.3906 0.2187,-0.3281 1.0469,-1.4844 0.8281,-1.1562 0.8593,-1.2031 l -3.5156,0 q -1.5469,0 -1.6719,0.1094 -0.1718,0.1406 -0.4218,1.5468 l -0.4219,0 z"
       style="stroke:none" />
  </g>
  <g
     id="g123"
     style="font-size:17px;fill:#262626;stroke:#262626;font-family:CMU Serif"
     transform="translate(107,49)">
    <path
       inkscape:connector-curvature="0"
       id="path125"
       d="m -21.0676,2.3844 q 0,-2.5 0.6407,-3.8594 0.875,-2.0312 2.9531,-2.0312 0.4375,0 0.8984,0.125 0.461,0.125 1.0469,0.5781 0.5859,0.4531 0.9453,1.2031 0.6719,1.4532 0.6719,3.9844 0,2.4844 -0.625,3.8438 -0.9219,1.9687 -2.9531,1.9687 -0.7657,0 -1.5391,-0.3906 -0.7734,-0.3906 -1.2734,-1.3281 -0.7657,-1.4063 -0.7657,-4.0938 z m 1.4219,-0.2031 q 0,2.5625 0.1875,3.5781 0.2031,1.1094 0.7734,1.586 0.5704,0.4765 1.1954,0.4765 0.6718,0 1.2421,-0.5078 0.5704,-0.5078 0.7422,-1.6172 0.1875,-1.0937 0.1875,-3.5156 0,-2.3594 -0.1718,-3.3125 -0.2188,-1.1094 -0.8125,-1.5547 -0.5938,-0.4453 -1.1875,-0.4453 -0.2188,0 -0.461,0.0703 -0.2422,0.0703 -0.5781,0.2578 -0.3359,0.1875 -0.6016,0.6641 -0.2656,0.4765 -0.3906,1.1953 -0.125,0.9062 -0.125,3.125 z m 7.8585,4.7344 q 0,-0.3594 0.2578,-0.6172 0.2579,-0.2578 0.6485,-0.2578 0.375,0 0.6328,0.2422 0.2578,0.2421 0.2578,0.6328 0,0.3906 -0.2734,0.6484 -0.2735,0.2578 -0.6172,0.2578 -0.3906,0 -0.6485,-0.2734 -0.2578,-0.2735 -0.2578,-0.6328 z m 4.0068,-1.6563 q 0,-1.9062 2.4375,-3.125 -1.0469,-0.7187 -1.2344,-0.9219 -0.75,-0.8437 -0.75,-1.875 0,-1.1875 0.8985,-2.0156 0.8984,-0.8281 2.1797,-0.8281 1.2187,0 2.1406,0.7109 0.9219,0.711 0.9219,1.836 0,1.5781 -2.0625,2.625 1.3593,0.8593 1.6875,1.2031 0.8281,0.9219 0.8281,2.0937 0,1.3594 -1.0469,2.2969 -1.0469,0.9375 -2.4844,0.9375 -1.4062,0 -2.4609,-0.8281 -1.0547,-0.8281 -1.0547,-2.1094 z m 0.8438,0 q 0,1.0469 0.789,1.75 0.7891,0.7031 1.8985,0.7031 1.0781,0 1.875,-0.6093 0.7968,-0.6094 0.7968,-1.5313 0,-0.3437 -0.1172,-0.6562 Q -1.8116,4.6032 -2.0538,4.361 -2.296,4.1188 -2.4366,4.0094 -2.5773,3.9 -2.8585,3.7125 L -4.9523,2.3844 q -1.9843,1.1094 -1.9843,2.875 z m 0.3593,-6.5781 q 0,0.8125 0.8438,1.375 l 2.1094,1.3594 q 1.6875,-0.9844 1.6875,-2.375 0,-0.9063 -0.6875,-1.5078 -0.6875,-0.6016 -1.6407,-0.6016 -0.9375,0 -1.625,0.4922 -0.6875,0.4922 -0.6875,1.2578 z"
       style="stroke:none" />
  </g>
  <rect
     style="fill:#e4ebf3;fill-opacity:1;fill-rule:nonzero;stroke:#3a6e90;stroke-width:2;stroke-linecap:butt;stroke-linejoin:miter;stroke-miterlimit:4;stroke-opacity:1;stroke-dasharray:none;stroke-dashoffset:0"
     id="rect4202"
     width="211.95825"
     height="69.350395"
     x="268.93774"
     y="112.11669"
     ry="4.4348917" />
  <g
     id="g127"
     style="fill:#00ff00;stroke:#00ff00">
    <path
       inkscape:connector-curvature="0"
       id="path129"
       d="m 129.176,580 0,-158.3949 21.568,0 0,158.3949 z"
       style="stroke:none" />
    <path
       inkscape:connector-curvature="0"
       id="path131"
       d="m 156.136,580 0,-160.2805 21.568,0 0,160.2805 z"
       style="stroke:none" />
    <path
       inkscape:connector-curvature="0"
       id="path133"
       d="m 183.096,580 0,-162.1662 21.568,0 0,162.1662 z"
       style="stroke:none" />
    <path
       inkscape:connector-curvature="0"
       id="path135"
       d="m 210.056,580 0,-156.5092 21.568,0 0,156.5092 z"
       style="stroke:none" />
    <path
       inkscape:connector-curvature="0"
       id="path137"
       d="m 237.016,580 0,-158.3949 21.568,0 0,158.3949 z"
       style="stroke:none" />
    <path
       inkscape:connector-curvature="0"
       id="path139"
       d="m 263.976,580 0,-158.3949 21.568,0 0,158.3949 z"
       style="stroke:none" />
    <path
       inkscape:connector-curvature="0"
       id="path141"
       d="m 290.936,580 0,-158.3949 21.568,0 0,158.3949 z"
       style="stroke:none" />
    <path
       inkscape:connector-curvature="0"
       id="path143"
       d="m 317.896,580 0,-158.3949 21.568,0 0,158.3949 z"
       style="stroke:none" />
    <path
       inkscape:connector-curvature="0"
       id="path145"
       d="m 344.856,580 0,-156.5092 21.568,0 0,156.5092 z"
       style="stroke:none" />
    <path
       inkscape:connector-curvature="0"
       id="path147"
       d="m 371.816,580 0,-152.7379 21.568,0 0,152.7379 z"
       style="stroke:none" />
    <path
       inkscape:connector-curvature="0"
       id="path149"
       d="m 398.776,580 0,-152.7379 21.568,0 0,152.7379 z"
       style="stroke:none" />
    <path
       inkscape:connector-curvature="0"
       id="path151"
       d="m 425.736,580 0,-178.7678 21.568,0 0,178.7678 z"
       style="stroke:none" />
    <path
       inkscape:connector-curvature="0"
       id="path153"
       d="m 452.696,580 0,-131.9957 21.568,0 0,131.9957 z"
       style="stroke:none" />
    <path
       inkscape:connector-curvature="0"
       id="path155"
       d="m 479.656,580 0,-139.5384 21.568,0 0,139.5384 z"
       style="stroke:none" />
    <path
       inkscape:connector-curvature="0"
       id="path157"
       d="m 506.616,580 0,-326.4247 21.568,0 0,326.4247 z"
       style="stroke:none" />
    <path
       inkscape:connector-curvature="0"
       id="path159"
       d="m 533.576,580 0,-465.2915 21.568,0 0,465.2915 z"
       style="stroke:none" />
    <path
       inkscape:connector-curvature="0"
       id="path161"
       d="m 560.536,580 0,-279.2054 21.568,0 0,279.2054 z"
       style="stroke:none" />
    <path
       inkscape:connector-curvature="0"
       id="path163"
       d="m 587.496,580 0,-419.3722 21.568,0 0,419.3722 z"
       style="stroke:none" />
    <path
       inkscape:connector-curvature="0"
       id="path165"
       d="m 614.456,580 0,-429.6668 21.568,0 0,429.6668 z"
       style="stroke:none" />
    <path
       inkscape:connector-curvature="0"
       id="path167"
       d="m 641.416,580 0,-380.0382 21.568,0 0,380.0382 z"
       style="stroke:none" />
    <path
       inkscape:connector-curvature="0"
       id="path169"
       d="m 668.376,580 0,-370.3991 21.568,0 0,370.3991 z"
       style="stroke:none" />
    <path
       inkscape:connector-curvature="0"
       id="path171"
       d="m 695.336,580 0,-273.2506 21.568,0 0,273.2506 z"
       style="stroke:none" />
    <path
       inkscape:connector-curvature="0"
       id="path173"
       d="m 722.296,580 0,-233.5757 21.568,0 0,233.5757 z"
       style="stroke:none" />
    <path
       inkscape:connector-curvature="0"
       id="path175"
       d="m 749.256,580 0,-211.1812 21.568,0 0,211.1812 z"
       style="stroke:none" />
  </g>
  <path
     d="m 129.176,580 0,-158.3949 21.568,0 0,158.3949 -21.568,0"
     style="fill:none"
     id="path179"
     inkscape:connector-curvature="0" />
  <path
     d="m 156.136,580 0,-160.2805 21.568,0 0,160.2805 -21.568,0"
     style="fill:none"
     id="path181"
     inkscape:connector-curvature="0" />
  <path
     d="m 183.096,580 0,-162.1662 21.568,0 0,162.1662 -21.568,0"
     style="fill:none"
     id="path183"
     inkscape:connector-curvature="0" />
  <path
     d="m 210.056,580 0,-156.5092 21.568,0 0,156.5092 -21.568,0"
     style="fill:none"
     id="path185"
     inkscape:connector-curvature="0" />
  <path
     d="m 237.016,580 0,-158.3949 21.568,0 0,158.3949 -21.568,0"
     style="fill:none"
     id="path187"
     inkscape:connector-curvature="0" />
  <path
     d="m 263.976,580 0,-158.3949 21.568,0 0,158.3949 -21.568,0"
     style="fill:none"
     id="path189"
     inkscape:connector-curvature="0" />
  <path
     d="m 290.936,580 0,-158.3949 21.568,0 0,158.3949 -21.568,0"
     style="fill:none"
     id="path191"
     inkscape:connector-curvature="0" />
  <path
     d="m 317.896,580 0,-158.3949 21.568,0 0,158.3949 -21.568,0"
     style="fill:none"
     id="path193"
     inkscape:connector-curvature="0" />
  <path
     d="m 344.856,580 0,-156.5092 21.568,0 0,156.5092 -21.568,0"
     style="fill:none"
     id="path195"
     inkscape:connector-curvature="0" />
  <path
     d="m 371.816,580 0,-152.7379 21.568,0 0,152.7379 -21.568,0"
     style="fill:none"
     id="path197"
     inkscape:connector-curvature="0" />
  <path
     d="m 398.776,580 0,-152.7379 21.568,0 0,152.7379 -21.568,0"
     style="fill:none"
     id="path199"
     inkscape:connector-curvature="0" />
  <path
     d="m 425.736,580 0,-178.7678 21.568,0 0,178.7678 -21.568,0"
     style="fill:none"
     id="path201"
     inkscape:connector-curvature="0" />
  <path
     d="m 452.696,580 0,-131.9957 21.568,0 0,131.9957 -21.568,0"
     style="fill:none"
     id="path203"
     inkscape:connector-curvature="0" />
  <path
     d="m 479.656,580 0,-139.5384 21.568,0 0,139.5384 -21.568,0"
     style="fill:none"
     id="path205"
     inkscape:connector-curvature="0" />
  <path
     d="m 506.616,580 0,-326.4247 21.568,0 0,326.4247 -21.568,0"
     style="fill:none"
     id="path207"
     inkscape:connector-curvature="0" />
  <path
     d="m 533.576,580 0,-465.2915 21.568,0 0,465.2915 -21.568,0"
     style="fill:#3a6e90"
     id="path209"
     inkscape:connector-curvature="0" />
  <path
     d="m 560.536,580 0,-279.2054 21.568,0 0,279.2054 -21.568,0"
     style="fill:none"
     id="path211"
     inkscape:connector-curvature="0" />
  <path
     d="m 587.496,580 0,-419.3722 21.568,0 0,419.3722 -21.568,0"
     style="fill:none"
     id="path213"
     inkscape:connector-curvature="0" />
  <path
     d="m 614.456,580 0,-429.6668 21.568,0 0,429.6668 -21.568,0"
     style="fill:none"
     id="path215"
     inkscape:connector-curvature="0" />
  <path
     d="m 641.416,580 0,-380.0382 21.568,0 0,380.0382 -21.568,0"
     style="fill:none"
     id="path217"
     inkscape:connector-curvature="0" />
  <path
     d="m 668.376,580 0,-370.3991 21.568,0 0,370.3991 -21.568,0"
     style="fill:none"
     id="path219"
     inkscape:connector-curvature="0" />
  <path
     d="m 695.336,580 0,-273.2506 21.568,0 0,273.2506 -21.568,0"
     style="fill:none"
     id="path221"
     inkscape:connector-curvature="0" />
  <path
     d="m 722.296,580 0,-233.5757 21.568,0 0,233.5757 -21.568,0"
     style="fill:none"
     id="path223"
     inkscape:connector-curvature="0" />
  <path
     d="m 749.256,580 0,-211.1812 21.568,0 0,211.1812 -21.568,0"
     style="fill:none"
     id="path225"
     inkscape:connector-curvature="0" />
  <g
     id="g227"
     style="fill:#a4e2c2;stroke:#a4e2c2">
    <path
       inkscape:connector-curvature="0"
       id="path229"
       d="m 129.176,580 0,-158.3949 21.568,0 0,158.3949 z"
       style="stroke:none" />
    <path
       inkscape:connector-curvature="0"
       id="path231"
       d="m 156.136,580 0,-160.2805 21.568,0 0,160.2805 z"
       style="stroke:none" />
    <path
       inkscape:connector-curvature="0"
       id="path233"
       d="m 183.096,580 0,-162.1662 21.568,0 0,162.1662 z"
       style="stroke:none" />
    <path
       inkscape:connector-curvature="0"
       id="path235"
       d="m 210.056,580 0,-156.5092 21.568,0 0,156.5092 z"
       style="stroke:none" />
    <path
       inkscape:connector-curvature="0"
       id="path237"
       d="m 237.016,580 0,-158.3949 21.568,0 0,158.3949 z"
       style="stroke:none" />
    <path
       inkscape:connector-curvature="0"
       id="path239"
       d="m 263.976,580 0,-158.3949 21.568,0 0,158.3949 z"
       style="stroke:none" />
    <path
       inkscape:connector-curvature="0"
       id="path241"
       d="m 290.936,580 0,-158.3949 21.568,0 0,158.3949 z"
       style="stroke:none" />
    <path
       inkscape:connector-curvature="0"
       id="path243"
       d="m 317.896,580 0,-158.3949 21.568,0 0,158.3949 z"
       style="stroke:none" />
    <path
       inkscape:connector-curvature="0"
       id="path245"
       d="m 344.856,580 0,-156.5092 21.568,0 0,156.5092 z"
       style="stroke:none" />
    <path
       inkscape:connector-curvature="0"
       id="path247"
       d="m 371.816,580 0,-152.7379 21.568,0 0,152.7379 z"
       style="stroke:none" />
    <path
       inkscape:connector-curvature="0"
       id="path249"
       d="m 398.776,580 0,-152.7379 21.568,0 0,152.7379 z"
       style="stroke:none" />
    <path
       inkscape:connector-curvature="0"
       id="path251"
       d="m 425.736,580 0,-178.7678 21.568,0 0,178.7678 z"
       style="stroke:none" />
    <path
       inkscape:connector-curvature="0"
       id="path253"
       d="m 452.696,580 0,-131.9957 21.568,0 0,131.9957 z"
       style="stroke:none" />
    <path
       inkscape:connector-curvature="0"
       id="path255"
       d="m 479.656,580 0,-139.5384 21.568,0 0,139.5384 z"
       style="stroke:none" />
    <path
       inkscape:connector-curvature="0"
       id="path257"
       d="m 506.616,580 0,-326.4247 21.568,0 0,326.4247 z"
       style="stroke:none" />
    <path
       inkscape:connector-curvature="0"
       id="path259"
       d="m 533.576,580 0,0 21.568,0 0,0 z"
       style="stroke:none" />
    <path
       inkscape:connector-curvature="0"
       id="path261"
       d="m 560.536,580 0,-279.2054 21.568,0 0,279.2054 z"
       style="stroke:none" />
    <path
       inkscape:connector-curvature="0"
       id="path263"
       d="m 587.496,580 0,-419.3722 21.568,0 0,419.3722 z"
       style="stroke:none" />
    <path
       inkscape:connector-curvature="0"
       id="path265"
       d="m 614.456,580 0,-429.6668 21.568,0 0,429.6668 z"
       style="stroke:none" />
    <path
       inkscape:connector-curvature="0"
       id="path267"
       d="m 641.416,580 0,-380.0382 21.568,0 0,380.0382 z"
       style="stroke:none" />
    <path
       inkscape:connector-curvature="0"
       id="path269"
       d="m 668.376,580 0,-370.3991 21.568,0 0,370.3991 z"
       style="stroke:none" />
    <path
       inkscape:connector-curvature="0"
       id="path271"
       d="m 695.336,580 0,-273.2506 21.568,0 0,273.2506 z"
       style="stroke:none" />
    <path
       inkscape:connector-curvature="0"
       id="path273"
       d="m 722.296,580 0,-233.5757 21.568,0 0,233.5757 z"
       style="stroke:none" />
    <path
       inkscape:connector-curvature="0"
       id="path275"
       d="m 749.256,580 0,-211.1812 21.568,0 0,211.1812 z"
       style="stroke:none" />
  </g>
  <g
     id="g277"
     style="font-size:18px;font-weight:bold;font-family:CMU Serif"
     transform="translate(450,44.4167)">
    <path
       inkscape:connector-curvature="0"
       id="path279"
       d="m -180.3214,-7.2618 q 0,-1.8594 1.211,-3.0469 1.2109,-1.1875 3.3828,-1.1875 2.1406,0 3.3593,1.1875 1.2188,1.1875 1.2188,3.0469 0,1.75 -1.2031,2.8906 -1.2032,1.1406 -3.3828,1.1406 -2.1797,0 -3.3829,-1.1406 -1.2031,-1.1406 -1.2031,-2.8906 z m 2.2969,-0.2032 q 0,0.5469 0.008,0.8203 0.008,0.2735 0.0781,0.7735 0.0703,0.5 0.211,0.7656 0.1406,0.2656 0.3828,0.5781 0.2422,0.3125 0.6484,0.4453 0.4063,0.1329 0.961,0.1329 0.5546,0 0.9609,-0.1329 0.4062,-0.1328 0.6484,-0.4453 0.2422,-0.3125 0.3907,-0.5781 0.1484,-0.2656 0.2109,-0.7656 0.0625,-0.5 0.0703,-0.7735 0.008,-0.2734 0.008,-0.8203 0,-1.8437 -0.375,-2.4687 -0.5781,-0.9063 -1.9062,-0.9063 -1.4532,0 -1.9844,1.0313 -0.3125,0.625 -0.3125,2.3437 z m 8.1412,6.7657 1.2344,0 0,-9.0625 q 0,-0.5157 -0.1875,-0.6016 -0.1875,-0.0859 -1.0469,-0.0859 l 0,-0.8438 3.1875,-0.1406 0,0.875 q 1.125,-0.875 2.7031,-0.875 1.9375,0 3.0859,1.1328 1.1485,1.1328 1.1485,2.9453 0,1.875 -1.25,3 -1.25,1.125 -3.2813,1.125 -1.3125,0 -2.3125,-0.8125 l 0,3.3438 1.25,0 0,0.8437 q -1.5156,-0.0469 -2.2734,-0.0469 -0.7578,0 -2.2578,0.0469 l 0,-0.8437 z m 3.2812,-4.75 q 0,0.2656 0.0313,0.3437 0.0312,0.0781 0.1719,0.25 0.8125,0.9688 1.9062,0.9688 1,0 1.7188,-0.8516 0.7187,-0.8516 0.7187,-2.6172 0,-1.625 -0.6328,-2.4922 -0.6328,-0.8672 -1.5859,-0.8672 -1.2188,0 -2.0469,0.8438 -0.2031,0.1875 -0.2422,0.2734 -0.0391,0.086 -0.0391,0.336 l 0,3.8125 z m 7.8996,-5.0313 0,-0.6562 q 1.2656,-0.0313 1.9688,-1.1016 0.7031,-1.0703 0.7187,-2.5391 l 0.8438,0 0,3.4532 2.625,0 0,0.8437 -2.625,0 0,4.9688 q 0,1.5625 1.0468,1.5625 0.4219,0 0.75,-0.4063 0.3282,-0.4062 0.3282,-1.25 l 0,-0.9219 0.8437,0 0,0.9532 q 0,1.0156 -0.5859,1.6796 -0.586,0.6641 -1.586,0.6641 -2.8437,0 -2.8437,-2.3281 l 0,-4.9219 -1.4844,0 z m 9.4478,-3.6875 q 0,-0.5781 0.4063,-0.9922 0.4062,-0.414 1,-0.414 0.5781,0 0.9922,0.414 0.414,0.4141 0.414,0.9922 0,0.5781 -0.414,0.9922 -0.4141,0.4141 -0.9922,0.4141 -0.5938,0 -1,-0.4141 -0.4063,-0.4141 -0.4063,-0.9922 z m -0.9375,10.8281 0,-0.8437 1.25,0 0,-5.5625 q 0,-0.5 -0.1797,-0.6016 -0.1796,-0.1015 -1.0078,-0.1015 l 0,-0.8438 3.125,-0.1406 0,7.25 1.1094,0 0,0.8437 q -1.9375,-0.0468 -2.0937,-0.0468 -0.5313,0 -2.2032,0.0468 z m 5.5983,0 0,-0.8437 1.9375,0 0,-10.5469 -1.9375,0 0,-0.8437 10.8906,0 0.5625,4.3281 -0.8594,0 q -0.0781,-0.7188 -0.1875,-1.1797 -0.1094,-0.4609 -0.3437,-0.9453 -0.2344,-0.4844 -0.6016,-0.75 -0.3672,-0.2656 -0.9844,-0.4375 -0.6172,-0.1719 -1.4609,-0.1719 l -2.5156,0 0,4.8438 0.9062,0 q 1.2031,0 1.5391,-0.4922 0.3359,-0.4922 0.3359,-1.6172 l 0.8594,0 0,5.0625 -0.8594,0 q 0,-1.1406 -0.3359,-1.625 -0.336,-0.4844 -1.5391,-0.4844 l -0.9062,0 0,4.8594 2.4218,0 0,0.8437 q -0.7812,-0.0468 -3.625,-0.0468 -2.6093,0 -3.2968,0.0468 z m 14.0849,-10.8281 q 0,-0.5781 0.4063,-0.9922 0.4062,-0.414 1,-0.414 0.5781,0 0.9922,0.414 0.414,0.4141 0.414,0.9922 0,0.5781 -0.414,0.9922 -0.4141,0.4141 -0.9922,0.4141 -0.5938,0 -1,-0.4141 -0.4063,-0.4141 -0.4063,-0.9922 z m -0.9375,10.8281 0,-0.8437 1.25,0 0,-5.5625 q 0,-0.5 -0.1797,-0.6016 -0.1796,-0.1015 -1.0078,-0.1015 l 0,-0.8438 3.125,-0.1406 0,7.25 1.1094,0 0,0.8437 q -1.9375,-0.0468 -2.0937,-0.0468 -0.5313,0 -2.2032,0.0468 z m 5.7076,0 0,-0.8437 1.2344,0 0,-5.5625 q 0,-0.5 -0.1875,-0.6016 -0.1875,-0.1015 -1.0469,-0.1015 l 0,-0.8438 3.0938,-0.1406 0,1.9375 q 0.9843,-1.9375 3.1562,-1.9375 1.375,0 2.0703,0.6015 0.6953,0.6016 0.6953,1.9766 l 0,4.6719 1.2344,0 0,0.8437 q -1.5,-0.0468 -2.2578,-0.0468 -0.7578,0 -2.2734,0.0468 l 0,-0.8437 1.25,0 0,-4.8594 q 0,-0.9687 -0.2578,-1.3594 -0.2579,-0.3906 -0.7422,-0.3906 -0.9844,0 -1.8282,0.75 -0.8437,0.75 -0.8437,2.0938 l 0,3.7656 1.2344,0 0,0.8437 q -1.5157,-0.0468 -2.2657,-0.0468 -0.75,0 -2.2656,0.0468 z m 11.3527,-3.9843 q 0,-1.8594 1.2578,-2.9844 1.2578,-1.125 3.2578,-1.125 1.3907,0 2.4219,0.7969 l 0,-3.5 q 0,-0.5 -0.1875,-0.6016 -0.1875,-0.1016 -1.0469,-0.1016 l 0,-0.8437 3.1875,-0.1406 0,10.9375 q 0,0.5 0.1875,0.6015 0.1875,0.1016 1.0469,0.1016 l 0,0.8437 -3.2812,0.1094 0,-0.8906 q -1.1094,0.8906 -2.5313,0.8906 -1.9687,0 -3.1406,-1.1406 -1.1719,-1.1406 -1.1719,-2.9531 z m 2.2969,0 q 0,0.4531 0.008,0.7187 0.008,0.2656 0.0625,0.7344 0.0547,0.4687 0.2031,0.7656 0.1485,0.2969 0.3828,0.6094 0.2344,0.3125 0.625,0.4609 0.3907,0.1485 0.9219,0.1485 1.375,0 2.3438,-1.3125 l 0,-4.5 q -0.8282,-1.0938 -2.1563,-1.0938 -1.2656,0 -1.9219,0.9375 -0.4687,0.7031 -0.4687,2.5313 z m 9.0714,-0.0625 q 0,-1.7657 1.1797,-2.9375 1.1797,-1.1719 3.2578,-1.1719 1.8594,0 2.875,0.9687 1,1.0157 1,2.7813 0,0.3437 -0.1172,0.414 -0.1171,0.0704 -0.4609,0.0704 l -5.4375,0 q 0,3.3125 2.5625,3.3125 0.875,0 1.5781,-0.3985 0.7032,-0.3984 1,-1.039 0.0782,-0.2344 0.1563,-0.3125 0.0781,-0.0782 0.2812,-0.0782 0.4375,0 0.4375,0.3282 0,0.125 -0.1015,0.3515 -0.1016,0.2266 -0.3594,0.5625 -0.2578,0.336 -0.6484,0.625 -0.3907,0.2891 -1.0469,0.4844 -0.6563,0.1953 -1.4531,0.1953 -2.1563,0 -3.4297,-1.1641 -1.2735,-1.164 -1.2735,-2.9921 z m 2.2969,-0.4688 4.3125,0 q -0.0937,-2.9844 -2.1719,-2.9844 -1.0937,0 -1.7031,0.9375 -0.3594,0.5469 -0.4375,2.0469 z m 7.2777,4.5156 0,-0.8437 1.2343,0 0,-5.5625 q 0,-0.5 -0.1875,-0.6016 -0.1875,-0.1015 -1.0468,-0.1015 l 0,-0.8438 2.9843,-0.1406 0,2.0312 q 0.7344,-2.0312 2.3907,-2.0312 0.75,0 1.3281,0.3906 0.5781,0.3906 0.5781,1.0781 0,0.5 -0.3281,0.7969 -0.3281,0.2969 -0.7656,0.2969 -0.4375,0 -0.7657,-0.2891 -0.3281,-0.289 -0.3281,-0.8047 0,-0.4843 0.3438,-0.8281 -0.6407,0 -1.1094,0.3516 -0.4688,0.3515 -0.7031,0.9218 -0.2344,0.5704 -0.336,1.1094 -0.1015,0.5391 -0.1015,1.0703 l 0,3.1563 1.5625,0 0,0.8437 q -0.6563,-0.0468 -2.4844,-0.0468 -0.375,0 -2.2656,0.0468 z m 14.9464,-3.125 0,-1.75 5.5,0 0,1.75 -5.5,0 z m 14.2648,3.125 0,-0.8437 1.9375,0 0,-10.6563 -1.9375,0 0,-0.8437 7.5,0 q 2.2031,0 3.4922,0.9844 1.289,0.9843 1.289,2.5156 0,1.5312 -1.3281,2.4687 -1.3281,0.9375 -3.2656,0.9375 l -3.1875,0 0,4.5938 1.9375,0 0,0.8437 q -0.6719,-0.0468 -3.211,-0.0468 -2.539,0 -3.2265,0.0468 z m 4.3906,-6.1718 2.4063,0 q 0.5625,0 1.0078,-0.0938 0.4453,-0.0937 0.7265,-0.2109 0.2813,-0.1172 0.4844,-0.3516 0.2031,-0.2344 0.2969,-0.4219 0.0937,-0.1875 0.1406,-0.5078 0.0469,-0.3203 0.0547,-0.5234 0.0078,-0.2031 0.0078,-0.5625 0,-0.4219 -0.0156,-0.6485 -0.0156,-0.2265 -0.0781,-0.5937 -0.0625,-0.3672 -0.2344,-0.5781 -0.1719,-0.211 -0.461,-0.4219 -0.289,-0.2109 -0.7734,-0.3125 -0.4844,-0.1016 -1.125,-0.1016 l -2.4375,0 0,5.3282 z m 9.7184,6.1718 0,-0.8437 1.2343,0 0,-5.5625 q 0,-0.5 -0.1875,-0.6016 -0.1875,-0.1015 -1.0468,-0.1015 l 0,-0.8438 2.9843,-0.1406 0,2.0312 q 0.7344,-2.0312 2.3907,-2.0312 0.75,0 1.3281,0.3906 0.5781,0.3906 0.5781,1.0781 0,0.5 -0.3281,0.7969 -0.3281,0.2969 -0.7656,0.2969 -0.4375,0 -0.7657,-0.2891 -0.3281,-0.289 -0.3281,-0.8047 0,-0.4843 0.3438,-0.8281 -0.6407,0 -1.1094,0.3516 -0.4688,0.3515 -0.7031,0.9218 -0.2344,0.5704 -0.336,1.1094 -0.1015,0.5391 -0.1015,1.0703 l 0,3.1563 1.5625,0 0,0.8437 q -0.6563,-0.0468 -2.4844,-0.0468 -0.375,0 -2.2656,0.0468 z m 8.4155,-4.0468 q 0,-1.7657 1.1797,-2.9375 1.1797,-1.1719 3.2578,-1.1719 1.8594,0 2.875,0.9687 1,1.0157 1,2.7813 0,0.3437 -0.1172,0.414 -0.1171,0.0704 -0.4609,0.0704 l -5.4375,0 q 0,3.3125 2.5625,3.3125 0.875,0 1.5781,-0.3985 0.7032,-0.3984 1,-1.039 0.0782,-0.2344 0.1563,-0.3125 0.0781,-0.0782 0.2812,-0.0782 0.4375,0 0.4375,0.3282 0,0.125 -0.1015,0.3515 -0.1016,0.2266 -0.3594,0.5625 -0.2578,0.336 -0.6484,0.625 -0.3907,0.2891 -1.0469,0.4844 -0.6563,0.1953 -1.4531,0.1953 -2.1563,0 -3.4297,-1.1641 -1.2735,-1.164 -1.2735,-2.9921 z m 2.2969,-0.4688 4.3125,0 q -0.0937,-2.9844 -2.1719,-2.9844 -1.0937,0 -1.7031,0.9375 -0.3594,0.5469 -0.4375,2.0469 z m 7.2933,0.5156 q 0,-1.7187 1.1406,-2.9375 1.1406,-1.2187 3.4063,-1.2187 3.1406,0 3.1406,1.6562 0,0.5469 -0.3438,0.8438 -0.3437,0.2969 -0.7968,0.2969 -0.4063,0 -0.7578,-0.2969 -0.3516,-0.2969 -0.3516,-0.8438 0,-0.5 0.3594,-0.8281 -0.4688,-0.1094 -1.1719,-0.1094 -0.6719,0 -1.1406,0.2735 -0.4688,0.2734 -0.6875,0.6015 -0.2188,0.3282 -0.336,0.8828 -0.1172,0.5547 -0.1406,0.8516 -0.0234,0.2969 -0.0234,0.7344 0,3.4844 2.5,3.4844 1.6406,0 2.25,-1.4844 0.0781,-0.1719 0.1406,-0.2188 0.0625,-0.0468 0.2969,-0.0468 0.4375,0 0.4375,0.25 0,0.0781 -0.0782,0.2812 -0.0781,0.2031 -0.3125,0.5469 -0.2343,0.3437 -0.5937,0.6406 -0.3594,0.2969 -1.0156,0.5234 -0.6563,0.2266 -1.4688,0.2266 -2.0469,0 -3.25,-1.1406 -1.2031,-1.1406 -1.2031,-2.9688 z m 10.2867,-6.8281 q 0,-0.5781 0.4062,-0.9922 0.4063,-0.414 1,-0.414 0.5782,0 0.9922,0.414 0.4141,0.4141 0.4141,0.9922 0,0.5781 -0.4141,0.9922 -0.414,0.4141 -0.9922,0.4141 -0.5937,0 -1,-0.4141 -0.4062,-0.4141 -0.4062,-0.9922 z m -0.9375,10.8281 0,-0.8437 1.25,0 0,-5.5625 q 0,-0.5 -0.1797,-0.6016 -0.1797,-0.1015 -1.0078,-0.1015 l 0,-0.8438 3.125,-0.1406 0,7.25 1.1094,0 0,0.8437 q -1.9375,-0.0468 -2.0938,-0.0468 -0.5312,0 -2.2031,0.0468 z m 5.5826,-0.3906 0,-1.9687 q 0,-0.3438 0.0625,-0.4297 0.0625,-0.086 0.3594,-0.086 0.2187,0 0.3047,0.0313 0.0859,0.0312 0.1328,0.2187 0.1093,0.375 0.2422,0.6641 0.1328,0.2891 0.414,0.6562 0.2813,0.3672 0.7735,0.5625 0.4921,0.1954 1.164,0.1954 2.0469,0 2.0469,-1.3438 0,-0.375 -0.1953,-0.6484 -0.1953,-0.2735 -0.5703,-0.4219 -0.375,-0.1484 -0.625,-0.2109 -0.25,-0.0625 -0.6094,-0.125 -0.875,-0.1563 -1.2188,-0.2266 -0.3437,-0.0703 -0.7812,-0.2656 -0.4375,-0.1953 -0.7813,-0.4922 -0.7187,-0.6094 -0.7187,-1.5156 0,-0.5625 0.1953,-0.9922 0.1953,-0.4297 0.5469,-0.6719 0.3515,-0.2422 0.6953,-0.3984 0.3437,-0.1563 0.7812,-0.211 0.4375,-0.0547 0.6485,-0.0703 0.2109,-0.0156 0.4453,-0.0156 1.125,0 1.8125,0.3437 0.7031,-0.3437 0.8125,-0.3437 0.2187,0 0.2734,0.1015 0.0547,0.1016 0.0547,0.3985 l 0,1.4531 q 0,0.3281 -0.0625,0.4141 -0.0625,0.0859 -0.375,0.0859 -0.2656,0 -0.3281,-0.0703 -0.0625,-0.0703 -0.0781,-0.2891 -0.1563,-1.5156 -2.125,-1.5156 -2.0157,0 -2.0157,1.1094 0,0.3125 0.1641,0.5312 0.1641,0.2188 0.5156,0.3438 0.3516,0.125 0.5547,0.1797 0.2031,0.0547 0.5938,0.1172 1.1718,0.2031 1.6875,0.3593 0.5156,0.1563 1,0.5157 0.9843,0.7812 0.9843,1.9062 0,0.625 -0.1953,1.1016 -0.1953,0.4765 -0.5468,0.75 -0.3516,0.2734 -0.6954,0.4453 -0.3437,0.1719 -0.7968,0.2344 -0.4532,0.0625 -0.6485,0.0781 -0.1953,0.0156 -0.4453,0.0156 -1.2969,0 -2.125,-0.5781 l -0.4687,0.3125 q -0.375,0.2656 -0.5313,0.2656 -0.2187,0 -0.2734,-0.1094 -0.0547,-0.1093 -0.0547,-0.3906 z m 9.2433,-10.4375 q 0,-0.5781 0.4062,-0.9922 0.4063,-0.414 1,-0.414 0.5781,0 0.9922,0.414 0.4141,0.4141 0.4141,0.9922 0,0.5781 -0.4141,0.9922 -0.4141,0.4141 -0.9922,0.4141 -0.5937,0 -1,-0.4141 -0.4062,-0.4141 -0.4062,-0.9922 z m -0.9375,10.8281 0,-0.8437 1.25,0 0,-5.5625 q 0,-0.5 -0.1797,-0.6016 -0.1797,-0.1015 -1.0078,-0.1015 l 0,-0.8438 3.125,-0.1406 0,7.25 1.1093,0 0,0.8437 q -1.9375,-0.0468 -2.0937,-0.0468 -0.5313,0 -2.2031,0.0468 z m 5.4732,-3.9218 q 0,-1.8594 1.2109,-3.0469 1.211,-1.1875 3.3828,-1.1875 2.1407,0 3.3594,1.1875 1.2188,1.1875 1.2188,3.0469 0,1.75 -1.2032,2.8906 -1.2031,1.1406 -3.3828,1.1406 -2.1797,0 -3.3828,-1.1406 -1.2031,-1.1406 -1.2031,-2.8906 z m 2.2969,-0.2032 q 0,0.5469 0.0078,0.8203 0.0078,0.2735 0.0781,0.7735 0.0703,0.5 0.2109,0.7656 0.1407,0.2656 0.3828,0.5781 0.2422,0.3125 0.6485,0.4453 0.4062,0.1329 0.9609,0.1329 0.5547,0 0.961,-0.1329 0.4062,-0.1328 0.6484,-0.4453 0.2422,-0.3125 0.3906,-0.5781 0.1485,-0.2656 0.211,-0.7656 0.0625,-0.5 0.0703,-0.7735 0.0078,-0.2734 0.0078,-0.8203 0,-1.8437 -0.375,-2.4687 -0.5781,-0.9063 -1.9063,-0.9063 -1.4531,0 -1.9843,1.0313 -0.3125,0.625 -0.3125,2.3437 z m 8.2818,4.125 0,-0.8437 1.2343,0 0,-5.5625 q 0,-0.5 -0.1875,-0.6016 -0.1875,-0.1015 -1.0468,-0.1015 l 0,-0.8438 3.0937,-0.1406 0,1.9375 q 0.9844,-1.9375 3.1563,-1.9375 1.375,0 2.0703,0.6015 0.6953,0.6016 0.6953,1.9766 l 0,4.6719 1.2344,0 0,0.8437 q -1.5,-0.0468 -2.2578,-0.0468 -0.7579,0 -2.2735,0.0468 l 0,-0.8437 1.25,0 0,-4.8594 q 0,-0.9687 -0.2578,-1.3594 -0.2578,-0.3906 -0.7422,-0.3906 -0.9844,0 -1.8281,0.75 -0.8438,0.75 -0.8438,2.0938 l 0,3.7656 1.2344,0 0,0.8437 q -1.5156,-0.0468 -2.2656,-0.0468 -0.75,0 -2.2656,0.0468 z m 19.3366,-6.8281 q 0,-0.5781 0.4063,-0.9922 0.4062,-0.414 1,-0.414 0.5781,0 0.9922,0.414 0.414,0.4141 0.414,0.9922 0,0.5781 -0.414,0.9922 -0.4141,0.4141 -0.9922,0.4141 -0.5938,0 -1,-0.4141 -0.4063,-0.4141 -0.4063,-0.9922 z m 0,5 q 0,-0.5781 0.4063,-0.9922 0.4062,-0.414 1,-0.414 0.5781,0 0.9922,0.414 0.414,0.4141 0.414,0.9922 0,0.5781 -0.414,0.9922 -0.4141,0.4141 -0.9922,0.4141 -0.5938,0 -1,-0.4141 -0.4063,-0.4141 -0.4063,-0.9922 z m 11.551,1.8281 0,-0.8437 1.9375,0 0,-10.6563 -1.9375,0 0,-0.8437 7.5,0 q 2.2031,0 3.4921,0.9844 1.2891,0.9843 1.2891,2.5156 0,1.5312 -1.3281,2.4687 -1.3281,0.9375 -3.2656,0.9375 l -3.1875,0 0,4.5938 1.9375,0 0,0.8437 q -0.6719,-0.0468 -3.211,-0.0468 -2.539,0 -3.2265,0.0468 z m 4.3906,-6.1718 2.4062,0 q 0.5625,0 1.0078,-0.0938 0.4454,-0.0937 0.7266,-0.2109 0.2813,-0.1172 0.4844,-0.3516 0.2031,-0.2344 0.2969,-0.4219 0.0937,-0.1875 0.1406,-0.5078 0.0469,-0.3203 0.0547,-0.5234 0.0078,-0.2031 0.0078,-0.5625 0,-0.4219 -0.0156,-0.6485 -0.0157,-0.2265 -0.0782,-0.5937 -0.0625,-0.3672 -0.2343,-0.5781 -0.1719,-0.211 -0.461,-0.4219 -0.289,-0.2109 -0.7734,-0.3125 -0.4844,-0.1016 -1.125,-0.1016 l -2.4375,0 0,5.3282 z m 9.7183,6.1718 0,-0.8437 1.2344,0 0,-5.5625 q 0,-0.5 -0.1875,-0.6016 -0.1875,-0.1015 -1.0469,-0.1015 l 0,-0.8438 2.9844,-0.1406 0,2.0312 q 0.7344,-2.0312 2.3906,-2.0312 0.75,0 1.3282,0.3906 0.5781,0.3906 0.5781,1.0781 0,0.5 -0.3281,0.7969 -0.3282,0.2969 -0.7657,0.2969 -0.4375,0 -0.7656,-0.2891 -0.3281,-0.289 -0.3281,-0.8047 0,-0.4843 0.3437,-0.8281 -0.6406,0 -1.1093,0.3516 -0.4688,0.3515 -0.7032,0.9218 -0.2343,0.5704 -0.3359,1.1094 -0.1016,0.5391 -0.1016,1.0703 l 0,3.1563 1.5625,0 0,0.8437 q -0.6562,-0.0468 -2.4843,-0.0468 -0.375,0 -2.2657,0.0468 z m 8.4156,-4.0468 q 0,-1.7657 1.1797,-2.9375 1.1797,-1.1719 3.2578,-1.1719 1.8594,0 2.875,0.9687 1,1.0157 1,2.7813 0,0.3437 -0.1172,0.414 -0.1172,0.0704 -0.4609,0.0704 l -5.4375,0 q 0,3.3125 2.5625,3.3125 0.875,0 1.5781,-0.3985 0.7031,-0.3984 1,-1.039 0.0781,-0.2344 0.1563,-0.3125 0.0781,-0.0782 0.2812,-0.0782 0.4375,0 0.4375,0.3282 0,0.125 -0.1015,0.3515 -0.1016,0.2266 -0.3594,0.5625 -0.2578,0.336 -0.6485,0.625 -0.3906,0.2891 -1.0468,0.4844 -0.6563,0.1953 -1.4532,0.1953 -2.1562,0 -3.4296,-1.1641 -1.2735,-1.164 -1.2735,-2.9921 z m 2.2969,-0.4688 4.3125,0 q -0.0938,-2.9844 -2.1719,-2.9844 -1.0937,0 -1.7031,0.9375 -0.3594,0.5469 -0.4375,2.0469 z m 7.2933,0.5313 q 0,-1.8594 1.2578,-2.9844 1.2578,-1.125 3.2578,-1.125 1.3906,0 2.4219,0.7969 l 0,-3.5 q 0,-0.5 -0.1875,-0.6016 -0.1875,-0.1016 -1.0469,-0.1016 l 0,-0.8437 3.1875,-0.1406 0,10.9375 q 0,0.5 0.1875,0.6015 0.1875,0.1016 1.0469,0.1016 l 0,0.8437 -3.2813,0.1094 0,-0.8906 q -1.1093,0.8906 -2.5312,0.8906 -1.9688,0 -3.1406,-1.1406 -1.1719,-1.1406 -1.1719,-2.9531 z m 2.2969,0 q 0,0.4531 0.0078,0.7187 0.0078,0.2656 0.0625,0.7344 0.0547,0.4687 0.2031,0.7656 0.1484,0.2969 0.3828,0.6094 0.2344,0.3125 0.625,0.4609 0.3906,0.1485 0.9219,0.1485 1.375,0 2.3437,-1.3125 l 0,-4.5 q -0.8281,-1.0938 -2.1562,-1.0938 -1.2656,0 -1.9219,0.9375 -0.4687,0.7031 -0.4687,2.5313 z m 10.2745,-6.8438 q 0,-0.5781 0.4063,-0.9922 0.4062,-0.414 1,-0.414 0.5781,0 0.9922,0.414 0.414,0.4141 0.414,0.9922 0,0.5781 -0.414,0.9922 -0.4141,0.4141 -0.9922,0.4141 -0.5938,0 -1,-0.4141 -0.4063,-0.4141 -0.4063,-0.9922 z m -0.9375,10.8281 0,-0.8437 1.25,0 0,-5.5625 q 0,-0.5 -0.1797,-0.6016 -0.1797,-0.1015 -1.0078,-0.1015 l 0,-0.8438 3.125,-0.1406 0,7.25 1.1094,0 0,0.8437 q -1.9375,-0.0468 -2.0938,-0.0468 -0.5312,0 -2.2031,0.0468 z m 5.5826,-4 q 0,-1.7187 1.1406,-2.9375 1.1406,-1.2187 3.4063,-1.2187 3.1406,0 3.1406,1.6562 0,0.5469 -0.3438,0.8438 -0.3437,0.2969 -0.7968,0.2969 -0.4063,0 -0.7578,-0.2969 -0.3516,-0.2969 -0.3516,-0.8438 0,-0.5 0.3594,-0.8281 -0.4688,-0.1094 -1.1719,-0.1094 -0.6719,0 -1.1406,0.2735 -0.4688,0.2734 -0.6875,0.6015 -0.2188,0.3282 -0.336,0.8828 -0.1172,0.5547 -0.1406,0.8516 -0.0234,0.2969 -0.0234,0.7344 0,3.4844 2.5,3.4844 1.6406,0 2.25,-1.4844 0.0781,-0.1719 0.1406,-0.2188 0.0625,-0.0468 0.2969,-0.0468 0.4375,0 0.4375,0.25 0,0.0781 -0.0782,0.2812 -0.0781,0.2031 -0.3125,0.5469 -0.2343,0.3437 -0.5937,0.6406 -0.3594,0.2969 -1.0156,0.5234 -0.6563,0.2266 -1.4688,0.2266 -2.0469,0 -3.25,-1.1406 -1.2031,-1.1406 -1.2031,-2.9688 z m 8.8804,-3.1406 0,-0.6562 q 1.2657,-0.0313 1.9688,-1.1016 0.7031,-1.0703 0.7187,-2.5391 l 0.8438,0 0,3.4532 2.625,0 0,0.8437 -2.625,0 0,4.9688 q 0,1.5625 1.0469,1.5625 0.4218,0 0.75,-0.4063 0.3281,-0.4062 0.3281,-1.25 l 0,-0.9219 0.8437,0 0,0.9532 q 0,1.0156 -0.5859,1.6796 -0.5859,0.6641 -1.5859,0.6641 -2.8438,0 -2.8438,-2.3281 l 0,-4.9219 -1.4844,0 z m 9.4478,-3.6875 q 0,-0.5781 0.4063,-0.9922 0.4062,-0.414 1,-0.414 0.5781,0 0.9922,0.414 0.414,0.4141 0.414,0.9922 0,0.5781 -0.414,0.9922 -0.4141,0.4141 -0.9922,0.4141 -0.5938,0 -1,-0.4141 -0.4063,-0.4141 -0.4063,-0.9922 z m -0.9375,10.8281 0,-0.8437 1.25,0 0,-5.5625 q 0,-0.5 -0.1796,-0.6016 -0.1797,-0.1015 -1.0079,-0.1015 l 0,-0.8438 3.125,-0.1406 0,7.25 1.1094,0 0,0.8437 q -1.9375,-0.0468 -2.0937,-0.0468 -0.5313,0 -2.2032,0.0468 z m 5.4733,-3.9218 q 0,-1.8594 1.2109,-3.0469 1.2109,-1.1875 3.3828,-1.1875 2.1406,0 3.3594,1.1875 1.2187,1.1875 1.2187,3.0469 0,1.75 -1.2031,2.8906 -1.2031,1.1406 -3.3828,1.1406 -2.1797,0 -3.3828,-1.1406 -1.2031,-1.1406 -1.2031,-2.8906 z m 2.2968,-0.2032 q 0,0.5469 0.008,0.8203 0.008,0.2735 0.0782,0.7735 0.0703,0.5 0.2109,0.7656 0.1406,0.2656 0.3828,0.5781 0.2422,0.3125 0.6485,0.4453 0.4062,0.1329 0.9609,0.1329 0.5547,0 0.9609,-0.1329 0.4063,-0.1328 0.6485,-0.4453 0.2422,-0.3125 0.3906,-0.5781 0.1484,-0.2656 0.2109,-0.7656 0.0625,-0.5 0.0703,-0.7735 0.008,-0.2734 0.008,-0.8203 0,-1.8437 -0.375,-2.4687 -0.5782,-0.9063 -1.9063,-0.9063 -1.4531,0 -1.9844,1.0313 -0.3125,0.625 -0.3125,2.3437 z m 8.2818,4.125 0,-0.8437 1.2344,0 0,-5.5625 q 0,-0.5 -0.1875,-0.6016 -0.1875,-0.1015 -1.0469,-0.1015 l 0,-0.8438 3.0938,-0.1406 0,1.9375 q 0.9844,-1.9375 3.1562,-1.9375 1.375,0 2.0703,0.6015 0.6954,0.6016 0.6954,1.9766 l 0,4.6719 1.2343,0 0,0.8437 q -1.5,-0.0468 -2.2578,-0.0468 -0.7578,0 -2.2734,0.0468 l 0,-0.8437 1.25,0 0,-4.8594 q 0,-0.9687 -0.2578,-1.3594 -0.2578,-0.3906 -0.7422,-0.3906 -0.9844,0 -1.8281,0.75 -0.8438,0.75 -0.8438,2.0938 l 0,3.7656 1.2344,0 0,0.8437 q -1.5156,-0.0468 -2.2656,-0.0468 -0.75,0 -2.2657,0.0468 z m 19.4929,-4.5156 q 0,-4.8125 3.2344,-8.0156 1.0156,-0.9688 1.375,-0.9688 0.3281,0 0.3281,0.25 0,0.0938 -0.2812,0.375 -2.9063,2.9219 -2.9063,8.375 0,2.5938 0.6875,4.6563 0.75,2.3281 2.4532,3.8906 0,0 0.0156,0.0625 0.0312,0.0625 0.0312,0.125 0,0.25 -0.3281,0.25 -0.1875,0 -0.6875,-0.3672 -0.5,-0.3672 -1.2187,-1.164 -0.7188,-0.7969 -1.25,-1.75 -1.4532,-2.5313 -1.4532,-5.7188 z m 6.9635,2.0156 q 0,-0.6718 0.3984,-1.039 0.3985,-0.3672 0.9922,-0.3672 0.5938,0 0.9844,0.375 0.3906,0.375 0.3906,1 0,1.0625 -1.0469,1.3437 0.9688,0.6094 2.2657,0.6094 0.5312,0 0.914,-0.2187 0.3828,-0.2188 0.5625,-0.4766 0.1797,-0.2578 0.2813,-0.6875 0.1015,-0.4297 0.1093,-0.6719 0.008,-0.2422 0.008,-0.6328 0,-0.3906 -0.008,-0.6328 -0.008,-0.2422 -0.1171,-0.6797 -0.1094,-0.4375 -0.2969,-0.6953 -0.1875,-0.2578 -0.586,-0.4609 -0.3984,-0.2032 -0.9609,-0.2032 l -0.7969,0 q -0.1875,0 -0.2734,-0.0078 -0.0859,-0.0078 -0.1563,-0.0859 -0.0703,-0.0781 -0.0703,-0.2344 0,-0.2812 0.2188,-0.2969 0.2031,-0.0468 0.8594,-0.0781 0.4531,-0.0156 0.7968,-0.2031 0.3438,-0.1875 0.5313,-0.5 0.1875,-0.3125 0.3125,-0.5938 0.125,-0.2812 0.1797,-0.625 0.0547,-0.3437 0.0625,-0.5 0.008,-0.1562 0.008,-0.2812 0,-1.75 -1.5469,-1.75 -1.1719,0 -1.9844,0.6562 1.0469,0.25 1.0469,1.25 0,0.5313 -0.3359,0.8907 -0.336,0.3593 -0.9141,0.3593 -0.5312,0 -0.8906,-0.3515 -0.3594,-0.3516 -0.3594,-0.9141 0,-1.0937 0.9844,-1.8437 0.9844,-0.75 2.5625,-0.75 1.8437,0 2.875,0.7109 1.0312,0.7109 1.0312,1.7969 0,1.0859 -0.7578,1.8593 -0.7578,0.7735 -1.789,1.086 0.9062,0.2031 1.5625,0.5703 0.6562,0.3672 0.9765,0.8281 0.3203,0.461 0.4531,0.8672 0.1329,0.4063 0.1329,0.8438 0,1.375 -1.1407,2.4062 -1.1406,1.0313 -3.3906,1.0313 -1.7656,0 -2.9219,-0.75 -1.1562,-0.75 -1.1562,-1.9532 z m 11.2662,-4.3281 q 0,-0.5781 0.4062,-0.9922 0.4063,-0.414 1,-0.414 0.5781,0 0.9922,0.414 0.4141,0.4141 0.4141,0.9922 0,0.5781 -0.4141,0.9922 -0.4141,0.4141 -0.9922,0.4141 -0.5937,0 -1,-0.4141 -0.4062,-0.4141 -0.4062,-0.9922 z m 0,5 q 0,-0.5781 0.4062,-0.9922 0.4063,-0.414 1,-0.414 0.5781,0 0.9922,0.414 0.4141,0.4141 0.4141,0.9922 0,0.5781 -0.4141,0.9922 -0.4141,0.4141 -0.9922,0.4141 -0.5937,0 -1,-0.4141 -0.4062,-0.4141 -0.4062,-0.9922 z m 5.4888,-7.9687 0,-0.8438 0.3594,0 q 2.2343,0 3.625,-1.0156 0.1562,-0.1406 0.3906,-0.1406 0.3281,0 0.3984,0.1171 0.0703,0.1172 0.0703,0.461 l 0,10.375 2.5157,0 0,0.8437 q -0.7969,-0.0468 -3.586,-0.0468 -2.789,0 -3.5703,0.0468 l 0,-0.8437 2.5,0 0,-9.3125 q -1.125,0.3594 -2.3437,0.3594 l -0.3594,0 z m 9.9693,14.0312 q 0,-0.0937 0.2812,-0.375 2.9063,-2.9219 2.9063,-8.375 0,-5.3906 -2.8906,-8.3125 -0.2969,-0.2969 -0.2969,-0.4219 0,-0.25 0.3125,-0.25 0.2031,0 0.6953,0.3672 0.4922,0.3672 1.2188,1.1641 0.7265,0.7969 1.2578,1.75 1.4375,2.5312 1.4375,5.7187 0,4.8125 -3.2188,8.0157 -1.0156,0.9687 -1.3906,0.9687 -0.3125,0 -0.3125,-0.25 z"
       style="stroke:none" />
  </g>
  <g
     id="g281"
     style="fill:#262626;stroke:#262626">
    <line
       id="line283"
       y1="580"
       x2="787"
       x1="113"
       style="fill:none"
       y2="580" />
  </g>
  <text
     xml:space="preserve"
     style="font-size:20px;font-style:italic;font-variant:normal;font-weight:normal;font-stretch:normal;line-height:125%;letter-spacing:0px;word-spacing:0px;fill:#000000;fill-opacity:1;stroke:none;font-family:Ubuntu;-inkscape-font-specification:Sans Italic"
     x="295.26126"
     y="141.01189"
     id="text4196"
     sodipodi:linespacing="125%"><tspan
       sodipodi:role="line"
       id="tspan4198"
       x="295.26126"
       y="141.01189"
       style="font-style:normal;font-variant:normal;font-weight:500;font-stretch:normal;fill:#000000;fill-opacity:1;font-family:CMU Serif;-inkscape-font-specification:CMU Serif Medium">moveProb = 0.45</tspan><tspan
       sodipodi:role="line"
       x="295.26126"
       y="166.01189"
       id="tspan4200"
       style="font-style:normal;font-variant:normal;font-weight:500;font-stretch:normal;fill:#000000;fill-opacity:1;font-family:CMU Serif;-inkscape-font-specification:CMU Serif Medium">moveCorr = 0.099</tspan></text>
</svg>
