<?xml version="1.0" encoding="UTF-8" standalone="no"?>
<svg
   xmlns:dc="http://purl.org/dc/elements/1.1/"
   xmlns:cc="http://creativecommons.org/ns#"
   xmlns:rdf="http://www.w3.org/1999/02/22-rdf-syntax-ns#"
   xmlns:svg="http://www.w3.org/2000/svg"
   xmlns="http://www.w3.org/2000/svg"
   xmlns:sodipodi="http://sodipodi.sourceforge.net/DTD/sodipodi-0.dtd"
   xmlns:inkscape="http://www.inkscape.org/namespaces/inkscape"
   style="fill-opacity:1; color-rendering:auto; color-interpolation:auto; stroke:black; text-rendering:auto; stroke-linecap:square; stroke-miterlimit:10; stroke-opacity:1; shape-rendering:auto; fill:black; stroke-dasharray:none; font-weight:normal; stroke-width:1; font-family:'Dialog'; font-style:normal; stroke-linejoin:miter; font-size:12px; stroke-dashoffset:0; image-rendering:auto;"
   width="945"
   height="709"
   id="svg2"
   version="1.1"
   inkscape:version="0.48.5 r10040"
   sodipodi:docname="prepred1.pdf">
  <metadata
     id="metadata281">
    <rdf:RDF>
      <cc:Work
         rdf:about="">
        <dc:format>image/svg+xml</dc:format>
        <dc:type
           rdf:resource="http://purl.org/dc/dcmitype/StillImage" />
        <dc:title></dc:title>
      </cc:Work>
    </rdf:RDF>
  </metadata>
  <sodipodi:namedview
     pagecolor="#ffffff"
     bordercolor="#666666"
     borderopacity="1"
     objecttolerance="10"
     gridtolerance="10"
     guidetolerance="10"
     inkscape:pageopacity="0"
     inkscape:pageshadow="2"
     inkscape:window-width="1920"
     inkscape:window-height="1060"
     id="namedview279"
     showgrid="false"
     inkscape:zoom="0.94147927"
     inkscape:cx="570.98578"
     inkscape:cy="298.84468"
     inkscape:window-x="-2"
     inkscape:window-y="-3"
     inkscape:window-maximized="1"
     inkscape:current-layer="svg2" />
  <!--Generated by the Batik Graphics2D SVG Generator-->
  <defs
     id="genericDefs">
    <defs
       id="defs1">
      <clipPath
         id="clipPath1"
         clipPathUnits="userSpaceOnUse">
        <path
           id="path9"
           d="M0 0 L945 0 L945 709 L0 709 L0 0 Z" />
      </clipPath>
    </defs>
  </defs>
  <g
     id="g11"
     style="fill:#ffffff;stroke:#ffffff">
    <rect
       clip-path="url(#clipPath1)"
       id="rect13"
       height="709"
       style="stroke:none"
       width="945"
       y="0"
       x="0" />
  </g>
  <g
     id="g15"
     style="fill:#ffffff;stroke:#ffffff">
    <rect
       clip-path="url(#clipPath1)"
       id="rect17"
       height="709"
       style="stroke:none"
       width="945"
       y="0"
       x="0" />
    <path
       inkscape:connector-curvature="0"
       id="path19"
       d="m 123,631 732,0 0,-578 -732,0 z"
       style="stroke:none" />
  </g>
  <g
     id="g21"
     style="font-size:17px;fill:#262626;stroke:#262626;font-family:CMU Serif"
     transform="translate(489,658.0093)">
    <path
       inkscape:connector-curvature="0"
       id="path23"
       d="m -66.1245,17.5932 0,-0.5312 0.4062,0 q 0.9219,0 1.1328,-0.1485 0.211,-0.1484 0.211,-0.6484 l 0,-8.9531 q 0,-0.5 -0.211,-0.6485 -0.2109,-0.1484 -1.1328,-0.1484 l -0.4062,0 0,-0.5312 6,0 q 1.7187,0 2.8671,0.9453 1.1485,0.9453 1.1485,2.2109 0,1.2656 -1.1641,2.1719 -1.164,0.9062 -2.7109,0.9062 l -2.875,0 0,4.0469 q 0,0.5 0.2109,0.6484 0.211,0.1485 1.1328,0.1485 l 0.4063,0 0,0.5312 q -0.5938,-0.0468 -2.5156,-0.0468 -1.9063,0 -2.5,0.0468 z m 3.2187,-5.8125 2.3438,0 q 0.7656,0 1.3203,-0.2109 0.5547,-0.2109 0.8047,-0.4766 0.25,-0.2656 0.3984,-0.6875 0.1484,-0.4218 0.1641,-0.664 0.0156,-0.2422 0.0156,-0.6016 0,-0.375 -0.0156,-0.6094 -0.0157,-0.2343 -0.1641,-0.664 -0.1484,-0.4297 -0.3984,-0.6875 -0.25,-0.2578 -0.8047,-0.461 -0.5547,-0.2031 -1.3203,-0.2031 l -1.5157,0 q -0.5781,0 -0.7031,0.1172 -0.125,0.1172 -0.125,0.5547 l 0,4.5937 z m 8.4651,4.2032 q 0,-1.4532 1.6875,-2.2188 1.0312,-0.4844 3.1406,-0.6094 l 0,-0.625 q 0,-1.0625 -0.5547,-1.6172 -0.5547,-0.5546 -1.2578,-0.5546 -1.2344,0 -1.8281,0.7812 0.5,0.0156 0.6797,0.2656 0.1797,0.25 0.1797,0.5157 0,0.3281 -0.211,0.5546 -0.2109,0.2266 -0.5703,0.2266 -0.3281,0 -0.5547,-0.2187 -0.2265,-0.2188 -0.2265,-0.5782 0,-0.8437 0.75,-1.3828 0.75,-0.539 1.8281,-0.539 1.3906,0 2.3281,0.9218 0.2813,0.2969 0.4297,0.6719 0.1484,0.375 0.1641,0.6172 0.0156,0.2422 0.0156,0.7266 l 0,3.3906 q 0,0.1094 0.0312,0.2734 0.0313,0.1641 0.1875,0.375 0.1563,0.211 0.4063,0.211 0.6094,0 0.6094,-1.0938 l 0,-0.9531 0.4218,0 0,0.9531 q 0,0.9063 -0.4765,1.2656 -0.4766,0.3594 -0.9141,0.3594 -0.5625,0 -0.914,-0.4219 -0.3516,-0.4218 -0.4141,-0.9843 -0.25,0.6562 -0.8359,1.0703 -0.586,0.414 -1.3829,0.414 -0.6093,0 -1.1875,-0.1562 -0.5781,-0.1563 -1.0546,-0.5781 -0.4766,-0.4219 -0.4766,-1.0625 z m 1.2969,-0.0157 q 0,0.625 0.4531,1.0313 0.4531,0.4062 1.0781,0.4062 0.7188,0 1.3594,-0.5547 0.6406,-0.5546 0.6406,-1.6328 l 0,-1.7031 q -1.8906,0.0625 -2.7109,0.8125 -0.8203,0.75 -0.8203,1.6406 z m 6.9522,1.625 0,-0.5312 q 0.9063,0 1.1172,-0.1094 0.211,-0.1094 0.211,-0.6562 l 0,-4.5469 q 0,-0.6406 -0.2188,-0.7969 -0.2187,-0.1562 -1.1094,-0.1562 l 0,-0.5313 2.375,-0.1875 0,1.875 q 0.2344,-0.7344 0.7422,-1.3047 0.5078,-0.5703 1.3516,-0.5703 0.5312,0 0.8906,0.3047 0.3594,0.3047 0.3594,0.7266 0,0.375 -0.2266,0.5625 -0.2265,0.1875 -0.5078,0.1875 -0.2969,0 -0.5156,-0.1954 -0.2188,-0.1953 -0.2188,-0.5234 0,-0.2031 0.0938,-0.3672 0.0937,-0.164 0.1719,-0.2265 0.0781,-0.0625 0.125,-0.0782 -0.0313,-0.0156 -0.1719,-0.0156 -0.9375,0 -1.4766,0.9375 -0.539,0.9375 -0.539,2.2656 l 0,2.6094 q 0,0.5 0.2031,0.6484 0.2031,0.1485 1.0937,0.1485 l 0.3594,0 0,0.5312 q -0.6875,-0.0468 -2.1719,-0.0468 -0.2031,0 -0.5234,0.0078 -0.3203,0.0078 -0.7422,0.0234 -0.4219,0.0156 -0.6719,0.0156 z m 6.8964,-1.6093 q 0,-1.4532 1.6875,-2.2188 1.0312,-0.4844 3.1406,-0.6094 l 0,-0.625 q 0,-1.0625 -0.5547,-1.6172 -0.5547,-0.5546 -1.2578,-0.5546 -1.2344,0 -1.8281,0.7812 0.5,0.0156 0.6797,0.2656 0.1796,0.25 0.1796,0.5157 0,0.3281 -0.2109,0.5546 -0.2109,0.2266 -0.5703,0.2266 -0.3281,0 -0.5547,-0.2187 -0.2266,-0.2188 -0.2266,-0.5782 0,-0.8437 0.75,-1.3828 0.75,-0.539 1.8282,-0.539 1.3906,0 2.3281,0.9218 0.2812,0.2969 0.4297,0.6719 0.1484,0.375 0.164,0.6172 0.0157,0.2422 0.0157,0.7266 l 0,3.3906 q 0,0.1094 0.0312,0.2734 0.0313,0.1641 0.1875,0.375 0.1563,0.211 0.4063,0.211 0.6093,0 0.6093,-1.0938 l 0,-0.9531 0.4219,0 0,0.9531 q 0,0.9063 -0.4765,1.2656 -0.4766,0.3594 -0.9141,0.3594 -0.5625,0 -0.9141,-0.4219 -0.3515,-0.4218 -0.414,-0.9843 -0.25,0.6562 -0.836,1.0703 -0.5859,0.414 -1.3828,0.414 -0.6094,0 -1.1875,-0.1562 -0.5781,-0.1563 -1.0547,-0.5781 -0.4765,-0.4219 -0.4765,-1.0625 z m 1.2968,-0.0157 q 0,0.625 0.4532,1.0313 0.4531,0.4062 1.0781,0.4062 0.7187,0 1.3594,-0.5547 0.6406,-0.5546 0.6406,-1.6328 l 0,-1.7031 q -1.8906,0.0625 -2.7109,0.8125 -0.8204,0.75 -0.8204,1.6406 z m 7.0304,1.625 0,-0.5312 q 0.8907,0 1.1094,-0.1094 0.2188,-0.1094 0.2188,-0.6562 l 0,-4.5469 q 0,-0.6406 -0.2266,-0.7969 -0.2266,-0.1562 -1.1016,-0.1562 l 0,-0.5313 2.3907,-0.1875 0,1.7813 q 0.7968,-1.7813 2.5156,-1.7813 2,0 2.2656,1.6719 0.2813,-0.6563 0.8985,-1.1641 0.6171,-0.5078 1.5703,-0.5078 1.2656,0 1.7812,0.625 0.375,0.4375 0.4531,0.9063 0.0782,0.4687 0.0782,1.7031 l 0,3.25 q 0.0156,0.3437 0.289,0.4219 0.2735,0.0781 1.0391,0.0781 l 0,0.5312 q -1.7344,-0.0468 -1.9063,-0.0468 -0.1406,0 -1.9218,0.0468 l 0,-0.5312 q 0.8906,0 1.1093,-0.1094 0.2188,-0.1094 0.2188,-0.6562 l 0,-3.9532 q 0,-0.875 -0.2656,-1.3828 -0.2657,-0.5078 -1,-0.5078 -0.875,0 -1.586,0.7422 -0.7109,0.7422 -0.7109,1.9766 l 0,3.125 q 0,0.5468 0.2109,0.6562 0.211,0.1094 1.1172,0.1094 l 0,0.5312 q -1.7344,-0.0468 -1.9062,-0.0468 -0.125,0 -1.9219,0.0468 l 0,-0.5312 q 0.9062,0 1.1172,-0.1094 0.2109,-0.1094 0.2109,-0.6562 l 0,-3.9532 q 0,-0.875 -0.2656,-1.3828 -0.2656,-0.5078 -0.9844,-0.5078 -0.8906,0 -1.5937,0.7422 -0.7032,0.7422 -0.7032,1.9766 l 0,3.125 q 0,0.5468 0.211,0.6562 0.2109,0.1094 1.1172,0.1094 l 0,0.5312 q -1.7344,-0.0468 -1.9063,-0.0468 -0.1406,0 -1.9219,0.0468 z m 14.0815,-3.7343 q 0,-1.6094 1.0312,-2.7422 1.0313,-1.1328 2.5157,-1.1328 1.5,0 2.2734,0.9687 0.7734,0.9688 0.7734,2.3594 0,0.25 -0.0703,0.3047 -0.0703,0.0547 -0.3672,0.0547 l -4.7343,0 q 0,1.7343 0.5,2.5468 0.7187,1.1407 1.9218,1.1407 0.1719,0 0.3672,-0.0391 0.1953,-0.0391 0.6016,-0.1797 0.4062,-0.1406 0.7656,-0.5312 0.3594,-0.3907 0.5625,-1 0.0469,-0.25 0.2188,-0.25 0.2343,0 0.2343,0.2187 0,0.1406 -0.164,0.4766 -0.1641,0.3359 -0.4688,0.7343 -0.3047,0.3985 -0.8984,0.6954 -0.5938,0.2968 -1.3125,0.2968 -1.5,0 -2.625,-1.1328 -1.125,-1.1328 -1.125,-2.789 z m 1.4375,-0.5469 4.0312,0 q 0,-0.3594 -0.0625,-0.7578 -0.0625,-0.3985 -0.2421,-0.9532 -0.1797,-0.5546 -0.5938,-0.8984 -0.4141,-0.3437 -1.0234,-0.3437 -0.2813,0 -0.5782,0.1171 -0.2968,0.1172 -0.6484,0.3985 -0.3516,0.2812 -0.6016,0.914 -0.25,0.6329 -0.2812,1.5235 z m 5.9691,-2.5156 0,-0.375 Q -8.6986,10.3901 -8.183,9.8354 -7.6674,9.2807 -7.4877,8.601 -7.308,7.9214 -7.2924,7.1401 l 0.4219,0 0,3.125 2.4375,0 0,0.5313 -2.4375,0 0,4.7187 q 0,1.8438 1.1406,1.8438 0.5,0 0.8203,-0.5 0.3203,-0.5 0.3203,-1.4063 l 0,-0.9375 0.4219,0 0,0.9688 q 0,0.9218 -0.4219,1.6093 -0.4218,0.6875 -1.25,0.6875 -0.3125,0 -0.6172,-0.0781 -0.3046,-0.0781 -0.6953,-0.2812 -0.3906,-0.2032 -0.6406,-0.7032 -0.25,-0.5 -0.25,-1.2343 l 0,-4.6875 -1.4375,0 z m 6.736,3.0625 q 0,-1.6094 1.0312,-2.7422 1.0313,-1.1328 2.5156,-1.1328 1.5,0 2.2735,0.9687 0.7734,0.9688 0.7734,2.3594 0,0.25 -0.0703,0.3047 -0.0703,0.0547 -0.3672,0.0547 l -4.7344,0 q 0,1.7343 0.5,2.5468 0.7188,1.1407 1.9219,1.1407 0.1719,0 0.3672,-0.0391 0.1953,-0.0391 0.6016,-0.1797 0.4062,-0.1406 0.7656,-0.5312 0.3594,-0.3907 0.5625,-1 0.0469,-0.25 0.2187,-0.25 0.2344,0 0.2344,0.2187 0,0.1406 -0.164,0.4766 -0.1641,0.3359 -0.4688,0.7343 -0.3047,0.3985 -0.8984,0.6954 -0.5938,0.2968 -1.3125,0.2968 -1.5,0 -2.625,-1.1328 -1.125,-1.1328 -1.125,-2.789 z m 1.4375,-0.5469 4.0312,0 q 0,-0.3594 -0.0625,-0.7578 Q 2.5998,12.1557 2.4201,11.601 2.2404,11.0464 1.8264,10.7026 1.4123,10.3589 0.8029,10.3589 q -0.2812,0 -0.5781,0.1171 -0.2969,0.1172 -0.6484,0.3985 -0.3516,0.2812 -0.6016,0.914 -0.25,0.6329 -0.2812,1.5235 z m 6.1097,4.2812 0,-0.5312 q 0.9063,0 1.1172,-0.1094 0.2109,-0.1094 0.2109,-0.6562 l 0,-4.5469 q 0,-0.6406 -0.2187,-0.7969 -0.2188,-0.1562 -1.1094,-0.1562 l 0,-0.5313 2.375,-0.1875 0,1.875 q 0.2344,-0.7344 0.7422,-1.3047 0.5078,-0.5703 1.3516,-0.5703 0.5312,0 0.8906,0.3047 0.3594,0.3047 0.3594,0.7266 0,0.375 -0.2266,0.5625 -0.2266,0.1875 -0.5078,0.1875 -0.2969,0 -0.5156,-0.1954 -0.2188,-0.1953 -0.2188,-0.5234 0,-0.2031 0.0938,-0.3672 0.0937,-0.164 0.1718,-0.2265 0.0782,-0.0625 0.125,-0.0782 -0.0312,-0.0156 -0.1718,-0.0156 -0.9375,0 -1.4766,0.9375 -0.5391,0.9375 -0.5391,2.2656 l 0,2.6094 q 0,0.5 0.2032,0.6484 0.2031,0.1485 1.0937,0.1485 l 0.3594,0 0,0.5312 q -0.6875,-0.0468 -2.1719,-0.0468 -0.2031,0 -0.5234,0.0078 -0.3203,0.0078 -0.7422,0.0234 -0.4219,0.0156 -0.6719,0.0156 z m 12.4005,-0.2187 0,-2.25 q 0,-0.1875 0.0078,-0.25 0.0079,-0.0625 0.0625,-0.1172 0.0547,-0.0547 0.1485,-0.0547 0.125,0 0.164,0.0547 0.0391,0.0547 0.0704,0.2422 0.2656,1.1719 0.8125,1.789 0.5468,0.6172 1.5625,0.6172 0.9375,0 1.4218,-0.4218 0.4844,-0.4219 0.4844,-1.125 0,-1.2344 -1.7656,-1.5625 -1.0156,-0.2032 -1.4375,-0.3438 -0.4219,-0.1406 -0.7969,-0.4375 -0.7344,-0.5937 -0.7344,-1.4453 0,-0.8516 0.6485,-1.4688 0.6484,-0.6171 2.0703,-0.6171 0.9531,0 1.5937,0.4687 0.1875,-0.1562 0.2969,-0.2656 0.2188,-0.2031 0.3438,-0.2031 0.125,0 0.1484,0.0781 0.0234,0.0781 0.0234,0.3281 l 0,1.7188 q 0,0.1875 -0.0078,0.25 -0.0078,0.0625 -0.0547,0.1093 -0.0468,0.0469 -0.1562,0.0469 -0.1875,0 -0.2031,-0.1562 -0.125,-2.0625 -1.9844,-2.0625 -1,0 -1.4531,0.3828 -0.4532,0.3828 -0.4532,0.914 0,0.2813 0.1407,0.5078 0.1406,0.2266 0.3125,0.3516 0.1718,0.125 0.5078,0.2422 0.3359,0.1172 0.539,0.1641 0.2032,0.0468 0.5938,0.125 1.3594,0.25 1.9375,0.8125 0.7187,0.7187 0.7187,1.625 0,1 -0.6797,1.6796 -0.6796,0.6797 -2.0546,0.6797 -1.1094,0 -1.875,-0.7343 -0.1094,0.1093 -0.1797,0.1953 -0.0703,0.0859 -0.1016,0.1172 -0.0312,0.0312 -0.0391,0.0468 -0.0078,0.0157 -0.0234,0.0313 -0.3437,0.3437 -0.4219,0.3437 -0.1406,0 -0.164,-0.0859 -0.0235,-0.0859 -0.0235,-0.3203 z m 6.6036,-3.5156 q 0,-1.6094 1.0313,-2.7422 1.0312,-1.1328 2.5156,-1.1328 1.5,0 2.2734,0.9687 0.7735,0.9688 0.7735,2.3594 0,0.25 -0.0704,0.3047 -0.0703,0.0547 -0.3671,0.0547 l -4.7344,0 q 0,1.7343 0.5,2.5468 0.7187,1.1407 1.9219,1.1407 0.1718,0 0.3671,-0.0391 0.1954,-0.0391 0.6016,-0.1797 0.4063,-0.1406 0.7656,-0.5312 0.3594,-0.3907 0.5625,-1 0.0469,-0.25 0.2188,-0.25 0.2344,0 0.2344,0.2187 0,0.1406 -0.1641,0.4766 -0.1641,0.3359 -0.4688,0.7343 -0.3046,0.3985 -0.8984,0.6954 -0.5937,0.2968 -1.3125,0.2968 -1.5,0 -2.625,-1.1328 -1.125,-1.1328 -1.125,-2.789 z m 1.4375,-0.5469 4.0313,0 q 0,-0.3594 -0.0625,-0.7578 -0.0625,-0.3985 -0.2422,-0.9532 -0.1797,-0.5546 -0.5938,-0.8984 -0.414,-0.3437 -1.0234,-0.3437 -0.2813,0 -0.5781,0.1171 -0.2969,0.1172 -0.6485,0.3985 -0.3515,0.2812 -0.6015,0.914 -0.25,0.6329 -0.2813,1.5235 z m 5.9691,-2.5156 0,-0.375 q 0.7813,-0.0313 1.2969,-0.586 0.5156,-0.5547 0.6953,-1.2344 0.1797,-0.6796 0.1953,-1.4609 l 0.4219,0 0,3.125 2.4375,0 0,0.5313 -2.4375,0 0,4.7187 q 0,1.8438 1.1406,1.8438 0.5,0 0.8203,-0.5 0.3203,-0.5 0.3203,-1.4063 l 0,-0.9375 0.4219,0 0,0.9688 q 0,0.9218 -0.4219,1.6093 -0.4218,0.6875 -1.25,0.6875 -0.3125,0 -0.6171,-0.0781 -0.3047,-0.0781 -0.6954,-0.2812 -0.3906,-0.2032 -0.6406,-0.7032 -0.25,-0.5 -0.25,-1.2343 l 0,-4.6875 -1.4375,0 z m 6.5954,0 0,-0.375 q 0.7812,-0.0313 1.2968,-0.586 0.5157,-0.5547 0.6953,-1.2344 0.1797,-0.6796 0.1954,-1.4609 l 0.4218,0 0,3.125 2.4375,0 0,0.5313 -2.4375,0 0,4.7187 q 0,1.8438 1.1407,1.8438 0.5,0 0.8203,-0.5 0.3203,-0.5 0.3203,-1.4063 l 0,-0.9375 0.4219,0 0,0.9688 q 0,0.9218 -0.4219,1.6093 -0.4219,0.6875 -1.25,0.6875 -0.3125,0 -0.6172,-0.0781 -0.3047,-0.0781 -0.6953,-0.2812 -0.3906,-0.2032 -0.6406,-0.7032 -0.25,-0.5 -0.25,-1.2343 l 0,-4.6875 -1.4375,0 z m 6.8297,6.7968 0,-0.5312 q 0.9062,0 1.1172,-0.1094 0.2109,-0.1094 0.2109,-0.6562 l 0,-4.5625 q 0,-0.6407 -0.2109,-0.7891 -0.211,-0.1484 -1.0547,-0.1484 l 0,-0.5313 2.3906,-0.1875 0,6.2344 q 0,0.5156 0.1719,0.6328 0.1718,0.1172 1.0156,0.1172 l 0,0.5312 q -1.7344,-0.0468 -1.7656,-0.0468 -0.25,0 -1.875,0.0468 z M 45.3578,7.1245 q 0,-0.3438 0.2578,-0.625 0.2578,-0.2813 0.6328,-0.2813 0.375,0 0.6407,0.2578 0.2656,0.2579 0.2656,0.6485 0,0.3906 -0.2656,0.6406 -0.2657,0.25 -0.6407,0.25 -0.3906,0 -0.6406,-0.2656 -0.25,-0.2656 -0.25,-0.625 z m 3.9742,10.4687 0,-0.5312 q 0.8906,0 1.1093,-0.1094 0.2188,-0.1094 0.2188,-0.6562 l 0,-4.5469 q 0,-0.6406 -0.2266,-0.7969 -0.2265,-0.1562 -1.1015,-0.1562 l 0,-0.5313 2.3906,-0.1875 0,1.7813 q 0.7969,-1.7813 2.5156,-1.7813 1.2813,0 1.7813,0.625 0.375,0.4375 0.4531,0.9063 0.0781,0.4687 0.0781,1.7031 l 0,3.25 q 0.0156,0.3437 0.2891,0.4219 0.2734,0.0781 1.039,0.0781 l 0,0.5312 q -1.7343,-0.0468 -1.9062,-0.0468 -0.125,0 -1.9219,0.0468 l 0,-0.5312 q 0.9063,0 1.1172,-0.1094 0.2109,-0.1094 0.2109,-0.6562 l 0,-3.9532 q 0,-0.875 -0.2656,-1.3828 -0.2656,-0.5078 -0.9844,-0.5078 -0.8906,0 -1.5937,0.7422 -0.7031,0.7422 -0.7031,1.9766 l 0,3.125 q 0,0.5468 0.2109,0.6562 0.2109,0.1094 1.1172,0.1094 l 0,0.5312 q -1.7344,-0.0468 -1.9063,-0.0468 -0.1406,0 -1.9218,0.0468 z m 9.3559,1.3438 q 0,-0.5469 0.4219,-1.0235 0.4218,-0.4765 1.1562,-0.6796 -0.75,-0.4688 -0.75,-1.5157 0,-0.7968 0.5156,-1.4062 -0.7968,-0.6563 -0.7968,-1.75 0,-1 0.8047,-1.7422 0.8046,-0.7422 1.9609,-0.7422 1.0156,0 1.7969,0.6094 0.8125,-0.7969 1.7968,-0.7969 0.4375,0 0.6563,0.2734 0.2187,0.2735 0.2187,0.5547 0,0.2657 -0.164,0.3907 -0.1641,0.125 -0.336,0.125 -0.2031,0 -0.3437,-0.1329 -0.1406,-0.1328 -0.1406,-0.3515 0,-0.3594 0.2656,-0.4688 -0.0469,-0.0156 -0.1719,-0.0156 -0.8281,0 -1.5312,0.6719 0.7031,0.6406 0.7031,1.6406 0,1 -0.7969,1.7422 -0.7969,0.7422 -1.9531,0.7422 -0.9531,0 -1.6875,-0.5313 -0.2969,0.3438 -0.2969,0.7969 0,0.4219 0.2578,0.7578 0.2578,0.336 0.6485,0.3828 0.125,0.0157 1.2812,0.0157 0.6719,0 1.0469,0.0156 0.375,0.0156 0.9141,0.1328 0.539,0.1172 0.9609,0.3359 1.0937,0.6094 1.0937,1.9375 0,0.9688 -1.1093,1.5782 -1.1094,0.6093 -2.6563,0.6093 -1.5625,0 -2.664,-0.6172 -1.1016,-0.6171 -1.1016,-1.539 z m 0.8906,0 q 0,0.7031 0.8281,1.2344 0.8282,0.5312 2.0625,0.5312 1.2188,0 2.0469,-0.5234 0.8281,-0.5235 0.8281,-1.2422 0,-0.5156 -0.289,-0.836 -0.2891,-0.3203 -0.8828,-0.4453 -0.5938,-0.125 -1.0157,-0.1562 -0.4218,-0.0313 -1.1875,-0.0313 l -1,0 q -0.5781,0.0469 -0.9843,0.4688 -0.4063,0.4219 -0.4063,1 z m 0.9375,-6.3594 q 0,2.0938 1.4844,2.0938 0.7344,0 1.2031,-0.6875 0.2656,-0.4532 0.2656,-1.4219 0,-2.0938 -1.4687,-2.0938 -0.75,0 -1.2188,0.6875 -0.2656,0.4532 -0.2656,1.4219 z"
       style="stroke:none" />
  </g>
  <g
     id="g25"
     style="fill:#262626;stroke:#262626">
    <line
       id="line27"
       y1="631"
       x2="855"
       x1="123"
       style="fill:none"
       y2="631" />
    <line
       id="line29"
       y1="631"
       x2="123"
       x1="123"
       style="fill:none"
       y2="623.67999" />
    <line
       id="line31"
       y1="631"
       x2="269.39999"
       x1="269.39999"
       style="fill:none"
       y2="623.67999" />
    <line
       id="line33"
       y1="631"
       x2="415.79999"
       x1="415.79999"
       style="fill:none"
       y2="623.67999" />
    <line
       id="line35"
       y1="631"
       x2="562.20001"
       x1="562.20001"
       style="fill:none"
       y2="623.67999" />
    <line
       id="line37"
       y1="631"
       x2="708.59998"
       x1="708.59998"
       style="fill:none"
       y2="623.67999" />
    <line
       id="line39"
       y1="631"
       x2="855"
       x1="855"
       style="fill:none"
       y2="623.67999" />
  </g>
  <g
     id="g41"
     style="font-size:17px;fill:#262626;stroke:#262626;font-family:CMU Serif"
     transform="translate(123,637.1334)">
    <path
       inkscape:connector-curvature="0"
       id="path43"
       d="m -3.5933,12.1557 q 0,-2.5 0.6406,-3.8593 0.875,-2.0313 2.9531,-2.0313 0.4375,0 0.8985,0.125 0.4609,0.125 1.0468,0.5781 0.586,0.4532 0.9454,1.2032 0.6718,1.4531 0.6718,3.9843 0,2.4844 -0.625,3.8438 -0.9218,1.9687 -2.9531,1.9687 -0.7656,0 -1.5391,-0.3906 -0.7734,-0.3906 -1.2734,-1.3281 -0.7656,-1.4063 -0.7656,-4.0938 z m 1.4219,-0.2031 q 0,2.5625 0.1875,3.5781 0.2031,1.1094 0.7734,1.586 0.5703,0.4765 1.1953,0.4765 0.6719,0 1.2422,-0.5078 0.5703,-0.5078 0.7422,-1.6172 0.1875,-1.0937 0.1875,-3.5156 0,-2.3594 -0.1719,-3.3125 Q 1.7661,7.5307 1.1723,7.0854 0.5786,6.6401 -0.0152,6.6401 q -0.2187,0 -0.4609,0.0703 -0.2422,0.0703 -0.5782,0.2578 -0.3359,0.1875 -0.6015,0.6641 -0.2656,0.4766 -0.3906,1.1953 -0.125,0.9063 -0.125,3.125 z"
       style="stroke:none" />
  </g>
  <g
     id="g45"
     style="font-size:17px;fill:#262626;stroke:#262626;font-family:CMU Serif"
     transform="translate(269.4,637.1334)">
    <path
       inkscape:connector-curvature="0"
       id="path47"
       d="m -3.4058,14.8589 q 0,-0.5157 0.2734,-0.711 0.2735,-0.1953 0.5703,-0.1953 0.3907,0 0.6172,0.25 0.2266,0.25 0.2266,0.5859 0,0.336 -0.2266,0.586 -0.2265,0.25 -0.6172,0.25 -0.1875,0 -0.2968,-0.0313 0.2187,0.7813 0.9062,1.336 0.6875,0.5547 1.5938,0.5547 1.1406,0 1.8281,-1.0938 0.4062,-0.7187 0.4062,-2.3281 0,-1.4375 -0.3125,-2.1406 -0.4687,-1.0938 -1.4375,-1.0938 -1.3906,0 -2.2031,1.1875 -0.0937,0.1563 -0.2187,0.1563 -0.1719,0 -0.2032,-0.0938 -0.0312,-0.0937 -0.0312,-0.3437 l 0,-5.0313 q 0,-0.4219 0.1719,-0.4219 0.0625,0 0.2031,0.0625 1.0625,0.4688 2.2656,0.4688 1.2188,0 2.2969,-0.4844 0.0937,-0.0625 0.1406,-0.0625 0.1719,0 0.1719,0.1875 0,0.0781 -0.1328,0.2734 -0.1328,0.1954 -0.4219,0.4454 -0.2891,0.25 -0.6641,0.4921 -0.375,0.2422 -0.9218,0.4063 -0.5469,0.1641 -1.1407,0.1641 -0.7187,0 -1.4375,-0.2344 l 0,3.3281 q 0.875,-0.875 2.1563,-0.875 1.3594,0 2.2969,1.0938 0.9375,1.0937 0.9375,2.625 0,1.6093 -1.1094,2.7031 -1.1094,1.0937 -2.6094,1.0937 -1.3594,0 -2.2187,-0.9687 -0.8594,-0.9688 -0.8594,-2.1406 z"
       style="stroke:none" />
  </g>
  <g
     id="g49"
     style="font-size:17px;fill:#262626;stroke:#262626;font-family:CMU Serif"
     transform="translate(415.8,637.1334)">
    <path
       inkscape:connector-curvature="0"
       id="path51"
       d="m -6.9835,7.8901 0,-0.5312 q 2.0312,0 3.0937,-1.0938 0.2813,0 0.336,0.0703 0.0547,0.0703 0.0547,0.3828 l 0,9.5313 q 0,0.5156 0.2421,0.664 0.2422,0.1485 1.336,0.1485 l 0.5469,0 0,0.5312 q -0.5938,-0.0468 -2.7579,-0.0468 -2.164,0 -2.7578,0.0468 l 0,-0.5312 0.5469,0 q 1.0781,0 1.3281,-0.1485 0.25,-0.1484 0.25,-0.664 l 0,-8.8125 q -0.875,0.4531 -2.2187,0.4531 z m 7.6397,4.2656 q 0,-2.5 0.6407,-3.8593 0.875,-2.0313 2.9531,-2.0313 0.4375,0 0.8984,0.125 0.461,0.125 1.0469,0.5781 0.5859,0.4532 0.9453,1.2032 0.6719,1.4531 0.6719,3.9843 0,2.4844 -0.625,3.8438 -0.9219,1.9687 -2.9531,1.9687 -0.7656,0 -1.5391,-0.3906 Q 1.9219,17.187 1.4219,16.2495 0.6562,14.8432 0.6562,12.1557 z m 1.4219,-0.2031 q 0,2.5625 0.1875,3.5781 0.2032,1.1094 0.7735,1.586 0.5703,0.4765 1.1953,0.4765 0.6718,0 1.2422,-0.5078 0.5703,-0.5078 0.7422,-1.6172 0.1874,-1.0937 0.1874,-3.5156 0,-2.3594 -0.1718,-3.3125 Q 6.0156,7.5307 5.4219,7.0854 4.8281,6.6401 4.2344,6.6401 4.0156,6.6401 3.7734,6.7104 3.5312,6.7807 3.1953,6.9682 2.8594,7.1557 2.5938,7.6323 2.3281,8.1089 2.2031,8.8276 q -0.125,0.9063 -0.125,3.125 z"
       style="stroke:none" />
  </g>
  <g
     id="g53"
     style="font-size:17px;fill:#262626;stroke:#262626;font-family:CMU Serif"
     transform="translate(562.2,637.1334)">
    <path
       inkscape:connector-curvature="0"
       id="path55"
       d="m -6.9835,7.8901 0,-0.5312 q 2.0312,0 3.0937,-1.0938 0.2813,0 0.336,0.0703 0.0547,0.0703 0.0547,0.3828 l 0,9.5313 q 0,0.5156 0.2421,0.664 0.2422,0.1485 1.336,0.1485 l 0.5469,0 0,0.5312 q -0.5938,-0.0468 -2.7579,-0.0468 -2.164,0 -2.7578,0.0468 l 0,-0.5312 0.5469,0 q 1.0781,0 1.3281,-0.1485 0.25,-0.1484 0.25,-0.664 l 0,-8.8125 q -0.875,0.4531 -2.2187,0.4531 z m 7.8273,6.9688 q 0,-0.5157 0.2734,-0.711 0.2734,-0.1953 0.5703,-0.1953 0.3906,0 0.6172,0.25 0.2265,0.25 0.2265,0.5859 0,0.336 -0.2265,0.586 -0.2266,0.25 -0.6172,0.25 -0.1875,0 -0.2969,-0.0313 0.2188,0.7813 0.9063,1.336 0.6875,0.5547 1.5937,0.5547 1.1406,0 1.8282,-1.0938 0.4062,-0.7187 0.4062,-2.3281 0,-1.4375 -0.3125,-2.1406 -0.4687,-1.0938 -1.4375,-1.0938 -1.3906,0 -2.2031,1.1875 -0.0938,0.1563 -0.2188,0.1563 -0.1719,0 -0.2031,-0.0938 -0.0312,-0.0937 -0.0312,-0.3437 l 0,-5.0313 q 0,-0.4219 0.1718,-0.4219 0.0625,0 0.2032,0.0625 1.0624,0.4688 2.2656,0.4688 1.2187,0 2.2968,-0.4844 0.0938,-0.0625 0.1407,-0.0625 0.1719,0 0.1719,0.1875 0,0.0781 -0.1329,0.2734 Q 6.7031,6.9214 6.4141,7.1714 6.125,7.4214 5.75,7.6635 5.375,7.9057 4.8281,8.0698 4.2812,8.2339 3.6875,8.2339 2.9688,8.2339 2.25,7.9995 l 0,3.3281 q 0.875,-0.875 2.1562,-0.875 1.3594,0 2.2969,1.0938 0.9375,1.0937 0.9375,2.625 0,1.6093 -1.1094,2.7031 -1.1093,1.0937 -2.6093,1.0937 -1.3594,0 -2.2188,-0.9687 -0.8593,-0.9688 -0.8593,-2.1406 z"
       style="stroke:none" />
  </g>
  <g
     id="g57"
     style="font-size:17px;fill:#262626;stroke:#262626;font-family:CMU Serif"
     transform="translate(708.6,637.1334)">
    <path
       inkscape:connector-curvature="0"
       id="path59"
       d="m -7.6554,17.5932 q 0,-0.3125 0.0313,-0.4062 0.0312,-0.0938 0.1562,-0.2188 l 3.2656,-3.6406 q 1.7969,-2 1.7969,-3.7656 0,-1.125 -0.6016,-1.9453 -0.6015,-0.8203 -1.6796,-0.8203 -0.75,0 -1.3829,0.4609 -0.6328,0.4609 -0.914,1.2734 0.0469,-0.0156 0.2187,-0.0156 0.4219,0 0.6641,0.2656 0.2422,0.2657 0.2422,0.625 0,0.4532 -0.2969,0.6719 -0.2969,0.2188 -0.5937,0.2188 -0.125,0 -0.2735,-0.0235 -0.1484,-0.0234 -0.3906,-0.2578 -0.2422,-0.2344 -0.2422,-0.6719 0,-1.1875 0.9063,-2.1328 0.9062,-0.9453 2.2812,-0.9453 1.5625,0 2.5859,0.9297 1.0235,0.9297 1.0235,2.3672 0,0.5156 -0.1563,0.9765 -0.1562,0.461 -0.3593,0.8204 -0.2032,0.3593 -0.75,0.9218 -0.5469,0.5625 -0.9844,0.9766 -0.4375,0.4141 -1.4219,1.2734 l -1.8125,1.75 3.0625,0 q 1.5,0 1.6094,-0.125 0.1719,-0.25 0.375,-1.5156 l 0.4375,0 -0.4844,2.9531 -6.3125,0 z m 8.3116,-5.4375 q 0,-2.5 0.6407,-3.8593 0.875,-2.0313 2.9531,-2.0313 0.4375,0 0.8984,0.125 0.461,0.125 1.0469,0.5781 0.5859,0.4532 0.9453,1.2032 0.6719,1.4531 0.6719,3.9843 0,2.4844 -0.625,3.8438 -0.9219,1.9687 -2.9531,1.9687 -0.7656,0 -1.5391,-0.3906 Q 1.9219,17.187 1.4219,16.2495 0.6562,14.8432 0.6562,12.1557 z m 1.4219,-0.2031 q 0,2.5625 0.1875,3.5781 0.2032,1.1094 0.7735,1.586 0.5703,0.4765 1.1953,0.4765 0.6718,0 1.2422,-0.5078 0.5703,-0.5078 0.7422,-1.6172 0.1874,-1.0937 0.1874,-3.5156 0,-2.3594 -0.1718,-3.3125 Q 6.0156,7.5307 5.4219,7.0854 4.8281,6.6401 4.2344,6.6401 4.0156,6.6401 3.7734,6.7104 3.5312,6.7807 3.1953,6.9682 2.8594,7.1557 2.5938,7.6323 2.3281,8.1089 2.2031,8.8276 q -0.125,0.9063 -0.125,3.125 z"
       style="stroke:none" />
  </g>
  <g
     id="g61"
     style="font-size:17px;fill:#262626;stroke:#262626;font-family:CMU Serif"
     transform="translate(855,637.1334)">
    <path
       inkscape:connector-curvature="0"
       id="path63"
       d="m -7.6554,17.5932 q 0,-0.3125 0.0313,-0.4062 0.0312,-0.0938 0.1562,-0.2188 l 3.2656,-3.6406 q 1.7969,-2 1.7969,-3.7656 0,-1.125 -0.6016,-1.9453 -0.6015,-0.8203 -1.6796,-0.8203 -0.75,0 -1.3829,0.4609 -0.6328,0.4609 -0.914,1.2734 0.0469,-0.0156 0.2187,-0.0156 0.4219,0 0.6641,0.2656 0.2422,0.2657 0.2422,0.625 0,0.4532 -0.2969,0.6719 -0.2969,0.2188 -0.5937,0.2188 -0.125,0 -0.2735,-0.0235 -0.1484,-0.0234 -0.3906,-0.2578 -0.2422,-0.2344 -0.2422,-0.6719 0,-1.1875 0.9063,-2.1328 0.9062,-0.9453 2.2812,-0.9453 1.5625,0 2.5859,0.9297 1.0235,0.9297 1.0235,2.3672 0,0.5156 -0.1563,0.9765 -0.1562,0.461 -0.3593,0.8204 -0.2032,0.3593 -0.75,0.9218 -0.5469,0.5625 -0.9844,0.9766 -0.4375,0.4141 -1.4219,1.2734 l -1.8125,1.75 3.0625,0 q 1.5,0 1.6094,-0.125 0.1719,-0.25 0.375,-1.5156 l 0.4375,0 -0.4844,2.9531 -6.3125,0 z m 8.4992,-2.7343 q 0,-0.5157 0.2734,-0.711 0.2734,-0.1953 0.5703,-0.1953 0.3906,0 0.6172,0.25 0.2265,0.25 0.2265,0.5859 0,0.336 -0.2265,0.586 -0.2266,0.25 -0.6172,0.25 -0.1875,0 -0.2969,-0.0313 0.2188,0.7813 0.9063,1.336 0.6875,0.5547 1.5937,0.5547 1.1406,0 1.8282,-1.0938 0.4062,-0.7187 0.4062,-2.3281 0,-1.4375 -0.3125,-2.1406 -0.4687,-1.0938 -1.4375,-1.0938 -1.3906,0 -2.2031,1.1875 -0.0938,0.1563 -0.2188,0.1563 -0.1719,0 -0.2031,-0.0938 -0.0312,-0.0937 -0.0312,-0.3437 l 0,-5.0313 q 0,-0.4219 0.1718,-0.4219 0.0625,0 0.2032,0.0625 1.0624,0.4688 2.2656,0.4688 1.2187,0 2.2968,-0.4844 0.0938,-0.0625 0.1407,-0.0625 0.1719,0 0.1719,0.1875 0,0.0781 -0.1329,0.2734 Q 6.7031,6.9214 6.4141,7.1714 6.125,7.4214 5.75,7.6635 5.375,7.9057 4.8281,8.0698 4.2812,8.2339 3.6875,8.2339 2.9688,8.2339 2.25,7.9995 l 0,3.3281 q 0.875,-0.875 2.1562,-0.875 1.3594,0 2.2969,1.0938 0.9375,1.0937 0.9375,2.625 0,1.6093 -1.1094,2.7031 -1.1093,1.0937 -2.6093,1.0937 -1.3594,0 -2.2188,-0.9687 -0.8593,-0.9688 -0.8593,-2.1406 z"
       style="stroke:none" />
  </g>
  <g
     id="g65"
     style="font-size:17px;fill:#262626;stroke:#262626;font-family:CMU Serif"
     transform="matrix(0,-1,1,0,91.1429,342)">
    <path
       inkscape:connector-curvature="0"
       id="path67"
       d="m -99.7132,-1.9494 0,-0.5313 0.4063,0 q 0.9219,0 1.1328,-0.1484 0.2109,-0.1484 0.2109,-0.6484 l 0,-8.9532 q 0,-0.5 -0.2109,-0.6484 -0.2109,-0.1484 -1.1328,-0.1484 l -0.4063,0 0,-0.5313 6,0 q 1.7188,0 2.8672,0.9453 1.1485,0.9453 1.1485,2.211 0,1.2656 -1.1641,2.1718 -1.1641,0.9063 -2.7109,0.9063 l -2.875,0 0,4.0469 q 0,0.5 0.2109,0.6484 0.2109,0.1484 1.1328,0.1484 l 0.4063,0 0,0.5313 q -0.5938,-0.0469 -2.5157,-0.0469 -1.9062,0 -2.5,0.0469 z m 3.2188,-5.8125 2.3437,0 q 0.7657,0 1.3203,-0.2109 0.5547,-0.211 0.8047,-0.4766 0.25,-0.2656 0.3985,-0.6875 0.1484,-0.4219 0.164,-0.6641 0.0157,-0.2422 0.0157,-0.6015 0,-0.375 -0.0157,-0.6094 -0.0156,-0.2344 -0.164,-0.6641 -0.1485,-0.4297 -0.3985,-0.6875 -0.25,-0.2578 -0.8047,-0.4609 -0.5546,-0.2031 -1.3203,-0.2031 l -1.5156,0 q -0.5781,0 -0.7031,0.1172 -0.125,0.1171 -0.125,0.5546 l 0,4.5938 z m 8.2151,5.8125 0,-0.5313 q 0.9062,0 1.1172,-0.1093 0.2109,-0.1094 0.2109,-0.6563 l 0,-4.5469 q 0,-0.6406 -0.2188,-0.7968 -0.2187,-0.1563 -1.1093,-0.1563 l 0,-0.5312 2.375,-0.1875 0,1.875 q 0.2343,-0.7344 0.7422,-1.3047 0.5078,-0.5703 1.3515,-0.5703 0.5313,0 0.8906,0.3047 0.3594,0.3046 0.3594,0.7265 0,0.375 -0.2265,0.5625 -0.2266,0.1875 -0.5079,0.1875 -0.2968,0 -0.5156,-0.1953 -0.2187,-0.1953 -0.2187,-0.5234 0,-0.2032 0.0937,-0.3672 0.0938,-0.1641 0.1719,-0.2266 0.0781,-0.0625 0.125,-0.0781 -0.0313,-0.0156 -0.1719,-0.0156 -0.9375,0 -1.4765,0.9375 -0.5391,0.9375 -0.5391,2.2656 l 0,2.6094 q 0,0.5 0.2031,0.6484 0.2031,0.1484 1.0938,0.1484 l 0.3593,0 0,0.5313 q -0.6875,-0.0469 -2.1718,-0.0469 -0.2032,0 -0.5235,0.0078 -0.3203,0.0078 -0.7422,0.0235 -0.4218,0.0156 -0.6718,0.0156 z m 6.6463,-3.7344 q 0,-1.6094 1.0313,-2.7422 1.0312,-1.1328 2.5156,-1.1328 1.5,0 2.2734,0.9688 0.7735,0.9687 0.7735,2.3593 0,0.25 -0.0704,0.3047 -0.0703,0.0547 -0.3671,0.0547 l -4.7344,0 q 0,1.7344 0.5,2.5469 0.7187,1.1406 1.9219,1.1406 0.1718,0 0.3671,-0.039 0.1954,-0.0391 0.6016,-0.1797 0.4063,-0.1407 0.7656,-0.5313 0.3594,-0.3906 0.5625,-1 0.0469,-0.25 0.2188,-0.25 0.2344,0 0.2344,0.2188 0,0.1406 -0.1641,0.4765 -0.1641,0.336 -0.4688,0.7344 -0.3046,0.3984 -0.8984,0.6953 -0.5937,0.2969 -1.3125,0.2969 -1.5,0 -2.625,-1.1328 -1.125,-1.1328 -1.125,-2.7891 z m 1.4375,-0.5469 4.0313,0 q 0,-0.3593 -0.0625,-0.7578 -0.0625,-0.3984 -0.2422,-0.9531 -0.1797,-0.5547 -0.5938,-0.8984 -0.414,-0.3438 -1.0234,-0.3438 -0.2813,0 -0.5781,0.1172 -0.2969,0.1172 -0.6485,0.3984 -0.3515,0.2813 -0.6015,0.9141 -0.25,0.6328 -0.2813,1.5234 z m 6.2191,0.6094 q 0,-1.6094 1.0625,-2.7734 1.0625,-1.1641 2.625,-1.1641 1.0313,0 1.8203,0.4922 0.7891,0.4922 0.7891,1.3203 0,0.375 -0.2266,0.586 -0.2265,0.2109 -0.5547,0.2109 -0.3593,0 -0.5781,-0.2188 -0.2187,-0.2187 -0.2187,-0.5625 0,-0.1562 0.0547,-0.2968 0.0546,-0.1407 0.2421,-0.3047 0.1875,-0.1641 0.5157,-0.1797 -0.625,-0.625 -1.8282,-0.625 -0.8593,0 -1.5781,0.8125 -0.7187,0.8125 -0.7187,2.6719 0,0.9687 0.2422,1.6797 0.2421,0.7109 0.6328,1.0781 0.3906,0.3672 0.7734,0.539 0.3828,0.1719 0.7578,0.1719 1.6563,0 2.2188,-1.7812 0.0468,-0.1719 0.2187,-0.1719 0.2344,0 0.2344,0.1719 0,0.0781 -0.0703,0.289 -0.0703,0.211 -0.2735,0.5547 -0.2031,0.3438 -0.5,0.6406 -0.2968,0.2969 -0.8203,0.5079 -0.5234,0.2109 -1.164,0.2109 -1.5,0 -2.5782,-1.125 -1.0781,-1.125 -1.0781,-2.7344 z m 7.5316,3.6719 0,-0.5313 q 0.9063,0 1.1172,-0.1093 0.211,-0.1094 0.211,-0.6563 l 0,-4.5625 q 0,-0.6406 -0.211,-0.789 -0.2109,-0.1485 -1.0547,-0.1485 l 0,-0.5312 2.3907,-0.1875 0,6.2343 q 0,0.5157 0.1718,0.6329 0.1719,0.1171 1.0157,0.1171 l 0,0.5313 q -1.7344,-0.0469 -1.7657,-0.0469 -0.25,0 -1.875,0.0469 z m 0.7188,-10.4688 q 0,-0.3437 0.2578,-0.625 0.2578,-0.2812 0.6328,-0.2812 0.375,0 0.6406,0.2578 0.2657,0.2578 0.2657,0.6484 0,0.3907 -0.2657,0.6407 -0.2656,0.25 -0.6406,0.25 -0.3906,0 -0.6406,-0.2657 -0.25,-0.2656 -0.25,-0.625 z m 3.9898,10.25 0,-2.25 q 0,-0.1875 0.0078,-0.25 0.0078,-0.0625 0.0625,-0.1171 0.0547,-0.0547 0.1484,-0.0547 0.125,0 0.1641,0.0547 0.039,0.0546 0.0703,0.2421 0.2656,1.1719 0.8125,1.7891 0.5469,0.6172 1.5625,0.6172 0.9375,0 1.4219,-0.4219 0.4843,-0.4219 0.4843,-1.125 0,-1.2344 -1.7656,-1.5625 -1.0156,-0.2031 -1.4375,-0.3437 -0.4219,-0.1407 -0.7969,-0.4375 -0.7343,-0.5938 -0.7343,-1.4453 0,-0.8516 0.6484,-1.4688 0.6484,-0.6172 2.0703,-0.6172 0.9531,0 1.5938,0.4688 0.1875,-0.1563 0.2968,-0.2657 0.2188,-0.2031 0.3438,-0.2031 0.125,0 0.1484,0.0781 0.0235,0.0782 0.0235,0.3282 l 0,1.7187 q 0,0.1875 -0.0078,0.25 -0.0079,0.0625 -0.0547,0.1094 -0.0469,0.0469 -0.1563,0.0469 -0.1875,0 -0.2031,-0.1563 -0.125,-2.0625 -1.9844,-2.0625 -1,0 -1.4531,0.3828 -0.4531,0.3828 -0.4531,0.9141 0,0.2812 0.1406,0.5078 0.1406,0.2266 0.3125,0.3516 0.1719,0.125 0.5078,0.2422 0.3359,0.1171 0.5391,0.164 0.2031,0.0469 0.5937,0.125 1.3594,0.25 1.9375,0.8125 0.7188,0.7188 0.7188,1.625 0,1 -0.6797,1.6797 -0.6797,0.6797 -2.0547,0.6797 -1.1094,0 -1.875,-0.7344 -0.1094,0.1094 -0.1797,0.1953 -0.0703,0.086 -0.1016,0.1172 -0.0312,0.0313 -0.039,0.0469 -0.0078,0.0156 -0.0235,0.0312 -0.3437,0.3438 -0.4218,0.3438 -0.1407,0 -0.1641,-0.0859 -0.0234,-0.086 -0.0234,-0.3204 z m 6.6973,0.2188 0,-0.5313 q 0.9062,0 1.1172,-0.1093 0.2109,-0.1094 0.2109,-0.6563 l 0,-4.5625 q 0,-0.6406 -0.2109,-0.789 -0.211,-0.1485 -1.0547,-0.1485 l 0,-0.5312 2.3906,-0.1875 0,6.2343 q 0,0.5157 0.1719,0.6329 0.1719,0.1171 1.0156,0.1171 l 0,0.5313 q -1.7344,-0.0469 -1.7656,-0.0469 -0.25,0 -1.875,0.0469 z m 0.7187,-10.4688 q 0,-0.3437 0.2579,-0.625 0.2578,-0.2812 0.6328,-0.2812 0.375,0 0.6406,0.2578 0.2656,0.2578 0.2656,0.6484 0,0.3907 -0.2656,0.6407 -0.2656,0.25 -0.6406,0.25 -0.3907,0 -0.6407,-0.2657 -0.25,-0.2656 -0.25,-0.625 z m 3.8961,6.836 q 0,-1.6172 1.1015,-2.7969 1.1016,-1.1797 2.6797,-1.1797 1.5469,0 2.6485,1.1719 1.1015,1.1719 1.1015,2.7969 0,1.5937 -1.1094,2.7109 -1.1093,1.1172 -2.6562,1.1172 -1.5156,0 -2.6406,-1.1016 -1.125,-1.1015 -1.125,-2.7187 z m 1.4218,-0.1485 q 0,1.6563 0.4219,2.4063 0.6563,1.1406 1.9375,1.1406 0.625,0 1.1563,-0.3437 0.5312,-0.3438 0.8125,-0.9219 0.375,-0.75 0.375,-2.2813 0,-1.625 -0.4375,-2.3593 -0.6719,-1.0938 -1.9219,-1.0938 -0.5469,0 -1.0781,0.2891 -0.5313,0.289 -0.8594,0.8359 -0.4063,0.75 -0.4063,2.3281 z m 7.1554,3.7813 0,-0.5313 q 0.8907,0 1.1094,-0.1093 0.2188,-0.1094 0.2188,-0.6563 l 0,-4.5469 q 0,-0.6406 -0.2266,-0.7968 -0.2266,-0.1563 -1.1016,-0.1563 l 0,-0.5312 2.3907,-0.1875 0,1.7812 q 0.7968,-1.7812 2.5156,-1.7812 1.2812,0 1.7812,0.625 0.375,0.4375 0.4532,0.9062 0.0781,0.4688 0.0781,1.7031 l 0,3.25 q 0.0156,0.3438 0.289,0.4219 0.2735,0.0781 1.0391,0.0781 l 0,0.5313 q -1.7344,-0.0469 -1.9062,-0.0469 -0.125,0 -1.9219,0.0469 l 0,-0.5313 q 0.9062,0 1.1172,-0.1093 0.2109,-0.1094 0.2109,-0.6563 l 0,-3.9531 q 0,-0.875 -0.2656,-1.3828 -0.2656,-0.5078 -0.9844,-0.5078 -0.8906,0 -1.5937,0.7422 -0.7032,0.7421 -0.7032,1.9765 l 0,3.125 q 0,0.5469 0.211,0.6563 0.2109,0.1093 1.1172,0.1093 l 0,0.5313 q -1.7344,-0.0469 -1.9063,-0.0469 -0.1406,0 -1.9219,0.0469 z m 15.8914,-6.9219 q 0,-0.375 0.2656,-0.6406 0.2656,-0.2656 0.6406,-0.2656 0.375,0 0.6407,0.2656 0.2656,0.2656 0.2656,0.6406 0,0.375 -0.2656,0.6406 -0.2657,0.2657 -0.6407,0.2657 -0.375,0 -0.6406,-0.2657 -0.2656,-0.2656 -0.2656,-0.6406 z m 0,6 q 0,-0.375 0.2656,-0.6406 0.2656,-0.2656 0.6406,-0.2656 0.375,0 0.6407,0.2656 0.2656,0.2656 0.2656,0.6406 0,0.375 -0.2656,0.6406 -0.2657,0.2657 -0.6407,0.2657 -0.375,0 -0.6406,-0.2657 -0.2656,-0.2656 -0.2656,-0.6406 z m 9.619,0.9219 0,-0.5313 0.4062,0 q 0.9219,0 1.1328,-0.1484 0.211,-0.1484 0.211,-0.6484 l 0,-8.9532 q 0,-0.5 -0.211,-0.6484 -0.2109,-0.1484 -1.1328,-0.1484 l -0.4062,0 0,-0.5313 6,0 q 1.7187,0 2.8671,0.9453 1.1485,0.9453 1.1485,2.211 0,1.2656 -1.1641,2.1718 -1.164,0.9063 -2.7109,0.9063 l -2.875,0 0,4.0469 q 0,0.5 0.2109,0.6484 0.211,0.1484 1.1328,0.1484 l 0.4063,0 0,0.5313 q -0.5938,-0.0469 -2.5156,-0.0469 -1.9063,0 -2.5,0.0469 z m 3.2187,-5.8125 2.3438,0 q 0.7656,0 1.3203,-0.2109 0.5547,-0.211 0.8047,-0.4766 0.25,-0.2656 0.3984,-0.6875 0.1484,-0.4219 0.1641,-0.6641 0.0156,-0.2422 0.0156,-0.6015 0,-0.375 -0.0156,-0.6094 -0.0157,-0.2344 -0.1641,-0.6641 -0.1484,-0.4297 -0.3984,-0.6875 -0.25,-0.2578 -0.8047,-0.4609 -0.5547,-0.2031 -1.3203,-0.2031 l -1.5157,0 q -0.5781,0 -0.7031,0.1172 -0.125,0.1171 -0.125,0.5546 l 0,4.5938 z m 8.2151,5.8125 0,-0.5313 q 0.9062,0 1.1172,-0.1093 0.2109,-0.1094 0.2109,-0.6563 l 0,-4.5469 q 0,-0.6406 -0.2187,-0.7968 -0.2188,-0.1563 -1.1094,-0.1563 l 0,-0.5312 2.375,-0.1875 0,1.875 q 0.2344,-0.7344 0.7422,-1.3047 0.5078,-0.5703 1.3515,-0.5703 0.5313,0 0.8907,0.3047 0.3593,0.3046 0.3593,0.7265 0,0.375 -0.2265,0.5625 -0.2266,0.1875 -0.5078,0.1875 -0.2969,0 -0.5157,-0.1953 -0.2187,-0.1953 -0.2187,-0.5234 0,-0.2032 0.0937,-0.3672 0.0938,-0.1641 0.1719,-0.2266 0.0781,-0.0625 0.125,-0.0781 Q -0.2933,-9.09 -0.434,-9.09 q -0.9375,0 -1.4765,0.9375 -0.5391,0.9375 -0.5391,2.2656 l 0,2.6094 q 0,0.5 0.2031,0.6484 0.2032,0.1484 1.0938,0.1484 l 0.3594,0 0,0.5313 q -0.6875,-0.0469 -2.1719,-0.0469 -0.2031,0 -0.5234,0.0078 -0.3204,0.0078 -0.7422,0.0235 -0.4219,0.0156 -0.6719,0.0156 z m 6.6463,-3.7344 q 0,-1.6094 1.0313,-2.7422 1.0312,-1.1328 2.5156,-1.1328 1.5,0 2.2734,0.9688 0.7735,0.9687 0.7735,2.3593 0,0.25 -0.0703,0.3047 -0.0704,0.0547 -0.3672,0.0547 l -4.7344,0 q 0,1.7344 0.5,2.5469 0.7187,1.1406 1.9219,1.1406 0.1718,0 0.3672,-0.039 0.1953,-0.0391 0.6015,-0.1797 0.4063,-0.1407 0.7656,-0.5313 0.3594,-0.3906 0.5625,-1 0.0469,-0.25 0.2188,-0.25 0.2344,0 0.2344,0.2188 0,0.1406 -0.1641,0.4765 -0.1641,0.336 -0.4687,0.7344 -0.3047,0.3984 -0.8985,0.6953 -0.5937,0.2969 -1.3125,0.2969 -1.5,0 -2.625,-1.1328 -1.125,-1.1328 -1.125,-2.7891 z m 1.4375,-0.5469 4.0313,0 Q 7.2124,-6.59 7.1499,-6.9885 7.0874,-7.3869 6.9077,-7.9416 6.728,-8.4963 6.3139,-8.84 5.8999,-9.1838 5.2905,-9.1838 q -0.2813,0 -0.5781,0.1172 -0.2969,0.1172 -0.6485,0.3984 -0.3515,0.2813 -0.6015,0.9141 -0.25,0.6328 -0.2813,1.5234 z m 6.2191,0.625 q 0,-1.6093 1.1329,-2.7343 1.1328,-1.125 2.664,-1.125 1.2813,0 2.1406,1.0625 l 0,-3.6719 q 0,-0.6406 -0.2265,-0.7969 -0.2266,-0.1562 -1.1016,-0.1562 l 0,-0.5313 2.4531,-0.1875 0,10.3125 q 0,0.6406 0.2188,0.7969 0.2187,0.1562 1.0937,0.1562 l 0,0.5313 -2.5,0.1875 0,-1.125 q -0.875,1.125 -2.2656,1.125 -1.4687,0 -2.539,-1.125 -1.0704,-1.125 -1.0704,-2.7188 z m 1.4063,0.0157 q 0,1.5781 0.5,2.3593 0.6719,1.0938 1.7812,1.0938 1.2657,0 2,-1.1875 0.1875,-0.2969 0.1875,-0.625 l 0,-3.4844 q 0,-0.3437 -0.1875,-0.6406 -0.6875,-1.0156 -1.8281,-1.0156 -1.1875,0 -1.9219,1.0937 -0.5312,0.8125 -0.5312,2.4063 z m 8.0122,3.6406 0,-0.5313 q 0.9062,0 1.1172,-0.1093 0.2109,-0.1094 0.2109,-0.6563 l 0,-4.5625 q 0,-0.6406 -0.2109,-0.789 -0.211,-0.1485 -1.0547,-0.1485 l 0,-0.5312 2.3906,-0.1875 0,6.2343 q 0,0.5157 0.1719,0.6329 0.1718,0.1171 1.0156,0.1171 l 0,0.5313 q -1.7344,-0.0469 -1.7656,-0.0469 -0.25,0 -1.875,0.0469 z m 0.7187,-10.4688 q 0,-0.3437 0.2578,-0.625 0.2578,-0.2812 0.6328,-0.2812 0.375,0 0.6407,0.2578 0.2656,0.2578 0.2656,0.6484 0,0.3907 -0.2656,0.6407 -0.2657,0.25 -0.6407,0.25 -0.3906,0 -0.6406,-0.2657 -0.25,-0.2656 -0.25,-0.625 z m 4.0054,6.7969 q 0,-1.6094 1.0625,-2.7734 1.0625,-1.1641 2.625,-1.1641 1.0313,0 1.8203,0.4922 0.7891,0.4922 0.7891,1.3203 0,0.375 -0.2266,0.586 -0.2265,0.2109 -0.5547,0.2109 -0.3593,0 -0.5781,-0.2188 -0.2187,-0.2187 -0.2187,-0.5625 0,-0.1562 0.0547,-0.2968 0.0546,-0.1407 0.2421,-0.3047 0.1875,-0.1641 0.5157,-0.1797 -0.625,-0.625 -1.8282,-0.625 -0.8593,0 -1.5781,0.8125 -0.7187,0.8125 -0.7187,2.6719 0,0.9687 0.2422,1.6797 0.2421,0.7109 0.6328,1.0781 0.3906,0.3672 0.7734,0.539 0.3828,0.1719 0.7578,0.1719 1.6563,0 2.2188,-1.7812 0.0468,-0.1719 0.2187,-0.1719 0.2344,0 0.2344,0.1719 0,0.0781 -0.0703,0.289 -0.0703,0.211 -0.2735,0.5547 -0.2031,0.3438 -0.5,0.6406 -0.2968,0.2969 -0.8203,0.5079 -0.5234,0.2109 -1.164,0.2109 -1.5,0 -2.5782,-1.125 -1.0781,-1.125 -1.0781,-2.7344 z m 7.2973,-3.125 0,-0.375 q 0.7812,-0.0312 1.2968,-0.5859 0.5157,-0.5547 0.6953,-1.2344 0.1797,-0.6797 0.1954,-1.4609 l 0.4218,0 0,3.125 2.4375,0 0,0.5312 -2.4375,0 0,4.7188 q 0,1.8437 1.1407,1.8437 0.5,0 0.8203,-0.5 0.3203,-0.5 0.3203,-1.4062 l 0,-0.9375 0.4219,0 0,0.9687 q 0,0.9219 -0.4219,1.6094 -0.4219,0.6875 -1.25,0.6875 -0.3125,0 -0.6172,-0.0781 -0.3047,-0.0782 -0.6953,-0.2813 -0.3906,-0.2031 -0.6406,-0.7031 -0.25,-0.5 -0.25,-1.2344 l 0,-4.6875 -1.4375,0 z m 6.8297,6.7969 0,-0.5313 q 0.9062,0 1.1172,-0.1093 0.2109,-0.1094 0.2109,-0.6563 l 0,-4.5625 q 0,-0.6406 -0.2109,-0.789 -0.211,-0.1485 -1.0547,-0.1485 l 0,-0.5312 2.3906,-0.1875 0,6.2343 q 0,0.5157 0.1719,0.6329 0.1718,0.1171 1.0156,0.1171 l 0,0.5313 q -1.7344,-0.0469 -1.7656,-0.0469 -0.25,0 -1.875,0.0469 z m 0.7187,-10.4688 q 0,-0.3437 0.2578,-0.625 0.2578,-0.2812 0.6328,-0.2812 0.375,0 0.6407,0.2578 0.2656,0.2578 0.2656,0.6484 0,0.3907 -0.2656,0.6407 -0.2657,0.25 -0.6407,0.25 -0.3906,0 -0.6406,-0.2657 -0.25,-0.2656 -0.25,-0.625 z m 3.896,6.836 q 0,-1.6172 1.1016,-2.7969 1.1016,-1.1797 2.6797,-1.1797 1.5469,0 2.6484,1.1719 1.1016,1.1719 1.1016,2.7969 0,1.5937 -1.1094,2.7109 -1.1094,1.1172 -2.6562,1.1172 -1.5157,0 -2.6407,-1.1016 -1.125,-1.1015 -1.125,-2.7187 z m 1.4219,-0.1485 q 0,1.6563 0.4219,2.4063 0.6562,1.1406 1.9375,1.1406 0.625,0 1.1562,-0.3437 0.5313,-0.3438 0.8125,-0.9219 0.375,-0.75 0.375,-2.2813 0,-1.625 -0.4375,-2.3593 -0.6718,-1.0938 -1.9218,-1.0938 -0.5469,0 -1.0782,0.2891 -0.5312,0.289 -0.8593,0.8359 -0.4063,0.75 -0.4063,2.3281 z m 7.1554,3.7813 0,-0.5313 q 0.8906,0 1.1094,-0.1093 0.2187,-0.1094 0.2187,-0.6563 l 0,-4.5469 q 0,-0.6406 -0.2265,-0.7968 -0.2266,-0.1563 -1.1016,-0.1563 l 0,-0.5312 2.3906,-0.1875 0,1.7812 q 0.7969,-1.7812 2.5157,-1.7812 1.2812,0 1.7812,0.625 0.375,0.4375 0.4531,0.9062 0.0782,0.4688 0.0782,1.7031 l 0,3.25 q 0.0156,0.3438 0.289,0.4219 0.2735,0.0781 1.0391,0.0781 l 0,0.5313 q -1.7344,-0.0469 -1.9063,-0.0469 -0.125,0 -1.9218,0.0469 l 0,-0.5313 q 0.9062,0 1.1172,-0.1093 0.2109,-0.1094 0.2109,-0.6563 l 0,-3.9531 q 0,-0.875 -0.2656,-1.3828 -0.2657,-0.5078 -0.9844,-0.5078 -0.8906,0 -1.5938,0.7422 -0.7031,0.7421 -0.7031,1.9765 l 0,3.125 q 0,0.5469 0.211,0.6563 0.2109,0.1093 1.1171,0.1093 l 0,0.5313 q -1.7343,-0.0469 -1.9062,-0.0469 -0.1406,0 -1.9219,0.0469 z m 16.2351,-4.25 q 0,-2.875 1.0625,-5.1875 0.4688,-0.9688 1.1016,-1.7813 0.6328,-0.8125 1.0625,-1.1718 0.4297,-0.3594 0.539,-0.3594 0.1719,0 0.1719,0.1719 0,0.0781 -0.2187,0.2812 -2.7344,2.7969 -2.7344,8.0469 0,5.2656 2.6719,7.9531 0.2812,0.2969 0.2812,0.375 0,0.1719 -0.1719,0.1719 -0.1093,0 -0.5234,-0.3438 Q 69.925,1.6131 69.3,0.8318 68.675,0.0506 68.2219,-0.9025 67.0969,-3.215 67.0969,-6.1994 z m 5.6266,1.9531 q 0,-0.5156 0.2891,-0.75 0.289,-0.2344 0.664,-0.2344 0.3907,0 0.6719,0.2579 0.2813,0.2578 0.2813,0.6953 0,0.4687 -0.336,0.7343 -0.3359,0.2657 -0.789,0.2032 0.4062,0.6718 1.1562,0.9765 0.75,0.3047 1.4375,0.3047 0.7344,0 1.3281,-0.625 0.5938,-0.625 0.5938,-2.1719 0,-1.3125 -0.5078,-2.0703 -0.5078,-0.7578 -1.5078,-0.7578 l -0.75,0 q -0.2657,0 -0.336,-0.0234 -0.0703,-0.0235 -0.0703,-0.1641 0,-0.1719 0.25,-0.2031 0.25,0 0.6563,-0.0469 1,-0.0312 1.5156,-0.8906 0.4844,-0.7969 0.4844,-1.9375 0,-1.0313 -0.4922,-1.4609 -0.4922,-0.4297 -1.1485,-0.4297 -0.5937,0 -1.25,0.2422 -0.6562,0.2421 -1,0.8046 1.0469,0 1.0469,0.8438 0,0.375 -0.2344,0.625 -0.2343,0.25 -0.625,0.25 -0.375,0 -0.625,-0.2422 -0.25,-0.2422 -0.25,-0.6484 0,-0.9688 0.8672,-1.6407 0.8672,-0.6718 2.1485,-0.6718 1.25,0 2.1875,0.664 0.9375,0.6641 0.9375,1.6953 0,1 -0.6641,1.8204 -0.6641,0.8203 -1.7109,1.164 1.2812,0.25 2.0546,1.125 0.7735,0.875 0.7735,1.9531 0,1.3282 -1.0469,2.3047 -1.0469,0.9766 -2.5781,0.9766 -1.4063,0 -2.4141,-0.7656 -1.0078,-0.7657 -1.0078,-1.9063 z m 9.1242,-4.625 q 0,-0.375 0.2656,-0.6406 0.2656,-0.2656 0.6406,-0.2656 0.375,0 0.6406,0.2656 0.2657,0.2656 0.2657,0.6406 0,0.375 -0.2657,0.6406 -0.2656,0.2657 -0.6406,0.2657 -0.375,0 -0.6406,-0.2657 -0.2656,-0.2656 -0.2656,-0.6406 z m 0,6 q 0,-0.375 0.2656,-0.6406 0.2656,-0.2656 0.6406,-0.2656 0.375,0 0.6406,0.2656 0.2657,0.2656 0.2657,0.6406 0,0.375 -0.2657,0.6406 -0.2656,0.2657 -0.6406,0.2657 -0.375,0 -0.6406,-0.2657 -0.2656,-0.2656 -0.2656,-0.6406 z m 4.8804,-8.7812 0,-0.5313 q 2.0312,0 3.0937,-1.0937 0.2813,0 0.3359,0.0703 0.0547,0.0703 0.0547,0.3828 l 0,9.5312 q 0,0.5157 0.2422,0.6641 0.2422,0.1484 1.336,0.1484 l 0.5468,0 0,0.5313 q -0.5937,-0.0469 -2.7578,-0.0469 -2.164,0 -2.7578,0.0469 l 0,-0.5313 0.5469,0 q 1.0781,0 1.3281,-0.1484 0.25,-0.1484 0.25,-0.6641 l 0,-8.8125 q -0.875,0.4532 -2.2187,0.4532 z m 7.9522,13.7812 q 0,-0.0781 0.2188,-0.2812 2.7344,-2.7969 2.7344,-8.0469 0,-5.2656 -2.625,-7.9375 -0.3282,-0.3125 -0.3282,-0.3906 0,-0.1719 0.1719,-0.1719 0.125,0 0.5313,0.3437 0.4062,0.3438 1.0312,1.125 0.625,0.7813 1.0938,1.7344 1.1093,2.3125 1.1093,5.2969 0,2.875 -1.0625,5.1875 -0.4531,0.9687 -1.0937,1.7812 -0.6406,0.8125 -1.0625,1.1719 -0.4219,0.3594 -0.5469,0.3594 -0.1719,0 -0.1719,-0.1719 z"
       style="stroke:none" />
  </g>
  <g
     id="g69"
     style="fill:#262626;stroke:#262626">
    <line
       id="line71"
       y1="631"
       x2="123"
       x1="123"
       style="fill:none"
       y2="53" />
    <line
       id="line73"
       y1="631"
       x2="130.32001"
       x1="123"
       style="fill:none"
       y2="631" />
    <line
       id="line75"
       y1="548.42859"
       x2="130.32001"
       x1="123"
       style="fill:none"
       y2="548.42859" />
    <line
       id="line77"
       y1="465.85709"
       x2="130.32001"
       x1="123"
       style="fill:none"
       y2="465.85709" />
    <line
       id="line79"
       y1="383.28571"
       x2="130.32001"
       x1="123"
       style="fill:none"
       y2="383.28571" />
    <line
       id="line81"
       y1="300.71429"
       x2="130.32001"
       x1="123"
       style="fill:none"
       y2="300.71429" />
    <line
       id="line83"
       y1="218.1429"
       x2="130.32001"
       x1="123"
       style="fill:none"
       y2="218.1429" />
    <line
       id="line85"
       y1="135.5714"
       x2="130.32001"
       x1="123"
       style="fill:none"
       y2="135.5714" />
    <line
       id="line87"
       y1="53"
       x2="130.32001"
       x1="123"
       style="fill:none"
       y2="53" />
  </g>
  <g
     id="g89"
     style="font-size:17px;fill:#262626;stroke:#262626;font-family:CMU Serif"
     transform="translate(116.8667,631)">
    <path
       inkscape:connector-curvature="0"
       id="path91"
       d="m -7.8429,2.3844 q 0,-2.5 0.6406,-3.8594 0.875,-2.0312 2.9532,-2.0312 0.4375,0 0.8984,0.125 0.4609,0.125 1.0469,0.5781 0.5859,0.4531 0.9453,1.2031 0.6719,1.4532 0.6719,3.9844 0,2.4844 -0.625,3.8438 -0.9219,1.9687 -2.9532,1.9687 -0.7656,0 -1.539,-0.3906 Q -6.5773,7.4157 -7.0773,6.4782 -7.8429,5.0719 -7.8429,2.3844 z M -6.421,2.1813 q 0,2.5625 0.1875,3.5781 0.2031,1.1094 0.7734,1.586 0.5703,0.4765 1.1953,0.4765 0.6719,0 1.2422,-0.5078 0.5703,-0.5078 0.7422,-1.6172 0.1875,-1.0937 0.1875,-3.5156 0,-2.3594 -0.1719,-3.3125 -0.2187,-1.1094 -0.8125,-1.5547 -0.5937,-0.4453 -1.1875,-0.4453 -0.2187,0 -0.4609,0.0703 -0.2422,0.0703 -0.5781,0.2578 -0.336,0.1875 -0.6016,0.6641 -0.2656,0.4765 -0.3906,1.1953 -0.125,0.9062 -0.125,3.125 z"
       style="stroke:none" />
  </g>
  <g
     id="g93"
     style="font-size:17px;fill:#262626;stroke:#262626;font-family:CMU Serif"
     transform="translate(116.8667,548.4286)">
    <path
       inkscape:connector-curvature="0"
       id="path95"
       d="m -21.0676,2.3844 q 0,-2.5 0.6407,-3.8594 0.875,-2.0312 2.9531,-2.0312 0.4375,0 0.8984,0.125 0.461,0.125 1.0469,0.5781 0.5859,0.4531 0.9453,1.2031 0.6719,1.4532 0.6719,3.9844 0,2.4844 -0.625,3.8438 -0.9219,1.9687 -2.9531,1.9687 -0.7657,0 -1.5391,-0.3906 -0.7734,-0.3906 -1.2734,-1.3281 -0.7657,-1.4063 -0.7657,-4.0938 z m 1.4219,-0.2031 q 0,2.5625 0.1875,3.5781 0.2031,1.1094 0.7734,1.586 0.5704,0.4765 1.1954,0.4765 0.6718,0 1.2421,-0.5078 0.5704,-0.5078 0.7422,-1.6172 0.1875,-1.0937 0.1875,-3.5156 0,-2.3594 -0.1718,-3.3125 -0.2188,-1.1094 -0.8125,-1.5547 -0.5938,-0.4453 -1.1875,-0.4453 -0.2188,0 -0.461,0.0703 -0.2422,0.0703 -0.5781,0.2578 -0.3359,0.1875 -0.6016,0.6641 -0.2656,0.4765 -0.3906,1.1953 -0.125,0.9062 -0.125,3.125 z m 7.8585,4.7344 q 0,-0.3594 0.2578,-0.6172 0.2579,-0.2578 0.6485,-0.2578 0.375,0 0.6328,0.2422 0.2578,0.2421 0.2578,0.6328 0,0.3906 -0.2734,0.6484 -0.2735,0.2578 -0.6172,0.2578 -0.3906,0 -0.6485,-0.2734 -0.2578,-0.2735 -0.2578,-0.6328 z m 4.8037,-8.7969 0,-0.5313 q 2.0312,0 3.0937,-1.0937 0.2813,0 0.336,0.0703 0.0547,0.0703 0.0547,0.3828 l 0,9.5313 q 0,0.5156 0.2421,0.664 0.2422,0.1485 1.336,0.1485 l 0.5469,0 0,0.5312 Q -1.9679,7.775 -4.132,7.775 q -2.164,0 -2.7578,0.0469 l 0,-0.5312 0.5469,0 q 1.0781,0 1.3281,-0.1485 0.25,-0.1484 0.25,-0.664 l 0,-8.8125 q -0.875,0.4531 -2.2187,0.4531 z"
       style="stroke:none" />
  </g>
  <g
     id="g97"
     style="font-size:17px;fill:#262626;stroke:#262626;font-family:CMU Serif"
     transform="translate(116.8667,465.8571)">
    <path
       inkscape:connector-curvature="0"
       id="path99"
       d="m -21.0676,2.3844 q 0,-2.5 0.6407,-3.8594 0.875,-2.0312 2.9531,-2.0312 0.4375,0 0.8984,0.125 0.461,0.125 1.0469,0.5781 0.5859,0.4531 0.9453,1.2031 0.6719,1.4532 0.6719,3.9844 0,2.4844 -0.625,3.8438 -0.9219,1.9687 -2.9531,1.9687 -0.7657,0 -1.5391,-0.3906 -0.7734,-0.3906 -1.2734,-1.3281 -0.7657,-1.4063 -0.7657,-4.0938 z m 1.4219,-0.2031 q 0,2.5625 0.1875,3.5781 0.2031,1.1094 0.7734,1.586 0.5704,0.4765 1.1954,0.4765 0.6718,0 1.2421,-0.5078 0.5704,-0.5078 0.7422,-1.6172 0.1875,-1.0937 0.1875,-3.5156 0,-2.3594 -0.1718,-3.3125 -0.2188,-1.1094 -0.8125,-1.5547 -0.5938,-0.4453 -1.1875,-0.4453 -0.2188,0 -0.461,0.0703 -0.2422,0.0703 -0.5781,0.2578 -0.3359,0.1875 -0.6016,0.6641 -0.2656,0.4765 -0.3906,1.1953 -0.125,0.9062 -0.125,3.125 z m 7.8585,4.7344 q 0,-0.3594 0.2578,-0.6172 0.2579,-0.2578 0.6485,-0.2578 0.375,0 0.6328,0.2422 0.2578,0.2421 0.2578,0.6328 0,0.3906 -0.2734,0.6484 -0.2735,0.2578 -0.6172,0.2578 -0.3906,0 -0.6485,-0.2734 -0.2578,-0.2735 -0.2578,-0.6328 z m 4.1318,0.9062 q 0,-0.3125 0.0313,-0.4062 0.0312,-0.0938 0.1562,-0.2188 l 3.2656,-3.6406 q 1.7969,-2 1.7969,-3.7656 0,-1.125 -0.6016,-1.9453 -0.6015,-0.8204 -1.6796,-0.8204 -0.75,0 -1.3829,0.461 -0.6328,0.4609 -0.914,1.2734 0.0469,-0.0156 0.2187,-0.0156 0.4219,0 0.6641,0.2656 0.2422,0.2656 0.2422,0.625 0,0.4531 -0.2969,0.6719 -0.2969,0.2187 -0.5937,0.2187 -0.125,0 -0.2735,-0.0234 -0.1484,-0.0234 -0.3906,-0.2578 -0.2422,-0.2344 -0.2422,-0.6719 0,-1.1875 0.9063,-2.1328 0.9062,-0.9453 2.2812,-0.9453 1.5625,0 2.5859,0.9297 1.0235,0.9297 1.0235,2.3672 0,0.5156 -0.1563,0.9765 -0.1562,0.461 -0.3593,0.8203 -0.2032,0.3594 -0.75,0.9219 Q -2.671,3.0719 -3.1085,3.486 -3.546,3.9 -4.5304,4.7594 l -1.8125,1.75 3.0625,0 q 1.5,0 1.6094,-0.125 0.1719,-0.25 0.375,-1.5156 l 0.4375,0 -0.4844,2.9531 -6.3125,0 z"
       style="stroke:none" />
  </g>
  <g
     id="g101"
     style="font-size:17px;fill:#262626;stroke:#262626;font-family:CMU Serif"
     transform="translate(116.8667,383.2857)">
    <path
       inkscape:connector-curvature="0"
       id="path103"
       d="m -21.0676,2.3844 q 0,-2.5 0.6407,-3.8594 0.875,-2.0312 2.9531,-2.0312 0.4375,0 0.8984,0.125 0.461,0.125 1.0469,0.5781 0.5859,0.4531 0.9453,1.2031 0.6719,1.4532 0.6719,3.9844 0,2.4844 -0.625,3.8438 -0.9219,1.9687 -2.9531,1.9687 -0.7657,0 -1.5391,-0.3906 -0.7734,-0.3906 -1.2734,-1.3281 -0.7657,-1.4063 -0.7657,-4.0938 z m 1.4219,-0.2031 q 0,2.5625 0.1875,3.5781 0.2031,1.1094 0.7734,1.586 0.5704,0.4765 1.1954,0.4765 0.6718,0 1.2421,-0.5078 0.5704,-0.5078 0.7422,-1.6172 0.1875,-1.0937 0.1875,-3.5156 0,-2.3594 -0.1718,-3.3125 -0.2188,-1.1094 -0.8125,-1.5547 -0.5938,-0.4453 -1.1875,-0.4453 -0.2188,0 -0.461,0.0703 -0.2422,0.0703 -0.5781,0.2578 -0.3359,0.1875 -0.6016,0.6641 -0.2656,0.4765 -0.3906,1.1953 -0.125,0.9062 -0.125,3.125 z m 7.8585,4.7344 q 0,-0.3594 0.2578,-0.6172 0.2579,-0.2578 0.6485,-0.2578 0.375,0 0.6328,0.2422 0.2578,0.2421 0.2578,0.6328 0,0.3906 -0.2734,0.6484 -0.2735,0.2578 -0.6172,0.2578 -0.3906,0 -0.6485,-0.2734 -0.2578,-0.2735 -0.2578,-0.6328 z M -7.7804,5.525 q 0,-0.5156 0.2891,-0.75 0.289,-0.2343 0.664,-0.2343 0.3907,0 0.6719,0.2578 0.2813,0.2578 0.2813,0.6953 0,0.4687 -0.336,0.7344 -0.3359,0.2656 -0.789,0.2031 0.4062,0.6719 1.1562,0.9766 0.75,0.3046 1.4375,0.3046 0.7344,0 1.3281,-0.625 0.5938,-0.625 0.5938,-2.1718 0,-1.3125 -0.5078,-2.0703 -0.5078,-0.7579 -1.5078,-0.7579 l -0.75,0 q -0.2657,0 -0.336,-0.0234 Q -5.6554,2.0407 -5.6554,1.9 q 0,-0.1718 0.25,-0.2031 0.25,0 0.6563,-0.0469 1,-0.0312 1.5156,-0.8906 0.4844,-0.7969 0.4844,-1.9375 0,-1.0312 -0.4922,-1.4609 -0.4922,-0.4297 -1.1485,-0.4297 -0.5937,0 -1.25,0.2422 -0.6562,0.2422 -1,0.8047 1.0469,0 1.0469,0.8437 0,0.375 -0.2344,0.625 -0.2343,0.25 -0.625,0.25 -0.375,0 -0.625,-0.2422 -0.25,-0.2422 -0.25,-0.6484 0,-0.9688 0.8672,-1.6406 0.8672,-0.6719 2.1485,-0.6719 1.25,0 2.1875,0.6641 0.9375,0.664 0.9375,1.6953 0,1 -0.6641,1.8203 -0.6641,0.8203 -1.7109,1.164 1.2812,0.25 2.0546,1.125 0.7735,0.875 0.7735,1.9532 0,1.3281 -1.0469,2.3047 -1.0469,0.9765 -2.5781,0.9765 -1.4063,0 -2.4141,-0.7656 Q -7.7804,6.6657 -7.7804,5.525 z"
       style="stroke:none" />
  </g>
  <g
     id="g105"
     style="font-size:17px;fill:#262626;stroke:#262626;font-family:CMU Serif"
     transform="translate(116.8667,300.7143)">
    <path
       inkscape:connector-curvature="0"
       id="path107"
       d="m -21.0676,2.3844 q 0,-2.5 0.6407,-3.8594 0.875,-2.0312 2.9531,-2.0312 0.4375,0 0.8984,0.125 0.461,0.125 1.0469,0.5781 0.5859,0.4531 0.9453,1.2031 0.6719,1.4532 0.6719,3.9844 0,2.4844 -0.625,3.8438 -0.9219,1.9687 -2.9531,1.9687 -0.7657,0 -1.5391,-0.3906 -0.7734,-0.3906 -1.2734,-1.3281 -0.7657,-1.4063 -0.7657,-4.0938 z m 1.4219,-0.2031 q 0,2.5625 0.1875,3.5781 0.2031,1.1094 0.7734,1.586 0.5704,0.4765 1.1954,0.4765 0.6718,0 1.2421,-0.5078 0.5704,-0.5078 0.7422,-1.6172 0.1875,-1.0937 0.1875,-3.5156 0,-2.3594 -0.1718,-3.3125 -0.2188,-1.1094 -0.8125,-1.5547 -0.5938,-0.4453 -1.1875,-0.4453 -0.2188,0 -0.461,0.0703 -0.2422,0.0703 -0.5781,0.2578 -0.3359,0.1875 -0.6016,0.6641 -0.2656,0.4765 -0.3906,1.1953 -0.125,0.9062 -0.125,3.125 z m 7.8585,4.7344 q 0,-0.3594 0.2578,-0.6172 0.2579,-0.2578 0.6485,-0.2578 0.375,0 0.6328,0.2422 0.2578,0.2421 0.2578,0.6328 0,0.3906 -0.2734,0.6484 -0.2735,0.2578 -0.6172,0.2578 -0.3906,0 -0.6485,-0.2734 -0.2578,-0.2735 -0.2578,-0.6328 z m 3.7568,-1.9063 0,-0.5156 5.2188,-7.9844 q 0.1406,-0.2031 0.3437,-0.2031 0.1875,0 0.2344,0.0781 0.0469,0.0781 0.0469,0.375 l 0,7.7344 1.6875,0 0,0.5156 -1.6875,0 0,1.4844 q 0,0.5 0.2031,0.6484 0.2031,0.1485 1.0781,0.1485 l 0.3594,0 0,0.5312 Q -1.2335,7.775 -2.8585,7.775 q -1.5938,0 -2.2969,0.0469 l 0,-0.5312 0.3594,0 q 0.8906,0 1.0937,-0.1485 0.2032,-0.1484 0.2032,-0.6484 l 0,-1.4844 -4.5313,0 z m 0.4844,-0.5156 4.1406,0 0,-6.3438 -4.1406,6.3438 z"
       style="stroke:none" />
  </g>
  <g
     id="g109"
     style="font-size:17px;fill:#262626;stroke:#262626;font-family:CMU Serif"
     transform="translate(116.8667,218.1429)">
    <path
       inkscape:connector-curvature="0"
       id="path111"
       d="m -21.0676,2.3844 q 0,-2.5 0.6407,-3.8594 0.875,-2.0312 2.9531,-2.0312 0.4375,0 0.8984,0.125 0.461,0.125 1.0469,0.5781 0.5859,0.4531 0.9453,1.2031 0.6719,1.4532 0.6719,3.9844 0,2.4844 -0.625,3.8438 -0.9219,1.9687 -2.9531,1.9687 -0.7657,0 -1.5391,-0.3906 -0.7734,-0.3906 -1.2734,-1.3281 -0.7657,-1.4063 -0.7657,-4.0938 z m 1.4219,-0.2031 q 0,2.5625 0.1875,3.5781 0.2031,1.1094 0.7734,1.586 0.5704,0.4765 1.1954,0.4765 0.6718,0 1.2421,-0.5078 0.5704,-0.5078 0.7422,-1.6172 0.1875,-1.0937 0.1875,-3.5156 0,-2.3594 -0.1718,-3.3125 -0.2188,-1.1094 -0.8125,-1.5547 -0.5938,-0.4453 -1.1875,-0.4453 -0.2188,0 -0.461,0.0703 -0.2422,0.0703 -0.5781,0.2578 -0.3359,0.1875 -0.6016,0.6641 -0.2656,0.4765 -0.3906,1.1953 -0.125,0.9062 -0.125,3.125 z m 7.8585,4.7344 q 0,-0.3594 0.2578,-0.6172 0.2579,-0.2578 0.6485,-0.2578 0.375,0 0.6328,0.2422 0.2578,0.2421 0.2578,0.6328 0,0.3906 -0.2734,0.6484 -0.2735,0.2578 -0.6172,0.2578 -0.3906,0 -0.6485,-0.2734 -0.2578,-0.2735 -0.2578,-0.6328 z m 4.1318,-1.8282 q 0,-0.5156 0.2734,-0.7109 0.2735,-0.1953 0.5704,-0.1953 0.3906,0 0.6171,0.25 0.2266,0.25 0.2266,0.5859 0,0.336 -0.2266,0.586 -0.2265,0.25 -0.6171,0.25 -0.1875,0 -0.2969,-0.0313 0.2187,0.7813 0.9062,1.336 0.6875,0.5546 1.5938,0.5546 1.1406,0 1.8281,-1.0937 0.4063,-0.7188 0.4063,-2.3281 0,-1.4375 -0.3125,-2.1407 -0.4688,-1.0937 -1.4375,-1.0937 -1.3907,0 -2.2032,1.1875 Q -6.421,2.4 -6.546,2.4 -6.7179,2.4 -6.7491,2.3063 -6.7804,2.2125 -6.7804,1.9625 l 0,-5.0312 q 0,-0.4219 0.1719,-0.4219 0.0625,0 0.2031,0.0625 1.0625,0.4688 2.2656,0.4688 1.2188,0 2.2969,-0.4844 0.0938,-0.0625 0.1406,-0.0625 0.1719,0 0.1719,0.1875 0,0.0781 -0.1328,0.2734 -0.1328,0.1953 -0.4219,0.4453 -0.289,0.25 -0.664,0.4922 -0.375,0.2422 -0.9219,0.4063 -0.5469,0.164 -1.1406,0.164 -0.7188,0 -1.4375,-0.2343 l 0,3.3281 q 0.875,-0.875 2.1562,-0.875 1.3594,0 2.2969,1.0937 0.9375,1.0938 0.9375,2.625 0,1.6094 -1.1094,2.7032 -1.1094,1.0937 -2.6094,1.0937 -1.3593,0 -2.2187,-0.9687 -0.8594,-0.9688 -0.8594,-2.1407 z"
       style="stroke:none" />
  </g>
  <g
     id="g113"
     style="font-size:17px;fill:#262626;stroke:#262626;font-family:CMU Serif"
     transform="translate(116.8667,135.5714)">
    <path
       inkscape:connector-curvature="0"
       id="path115"
       d="m -21.0676,2.3844 q 0,-2.5 0.6407,-3.8594 0.875,-2.0312 2.9531,-2.0312 0.4375,0 0.8984,0.125 0.461,0.125 1.0469,0.5781 0.5859,0.4531 0.9453,1.2031 0.6719,1.4532 0.6719,3.9844 0,2.4844 -0.625,3.8438 -0.9219,1.9687 -2.9531,1.9687 -0.7657,0 -1.5391,-0.3906 -0.7734,-0.3906 -1.2734,-1.3281 -0.7657,-1.4063 -0.7657,-4.0938 z m 1.4219,-0.2031 q 0,2.5625 0.1875,3.5781 0.2031,1.1094 0.7734,1.586 0.5704,0.4765 1.1954,0.4765 0.6718,0 1.2421,-0.5078 0.5704,-0.5078 0.7422,-1.6172 0.1875,-1.0937 0.1875,-3.5156 0,-2.3594 -0.1718,-3.3125 -0.2188,-1.1094 -0.8125,-1.5547 -0.5938,-0.4453 -1.1875,-0.4453 -0.2188,0 -0.461,0.0703 -0.2422,0.0703 -0.5781,0.2578 -0.3359,0.1875 -0.6016,0.6641 -0.2656,0.4765 -0.3906,1.1953 -0.125,0.9062 -0.125,3.125 z m 7.8585,4.7344 q 0,-0.3594 0.2578,-0.6172 0.2579,-0.2578 0.6485,-0.2578 0.375,0 0.6328,0.2422 0.2578,0.2421 0.2578,0.6328 0,0.3906 -0.2734,0.6484 -0.2735,0.2578 -0.6172,0.2578 -0.3906,0 -0.6485,-0.2734 -0.2578,-0.2735 -0.2578,-0.6328 z m 4.0068,-4.4688 q 0,-2.6719 1.3594,-4.3125 1.3594,-1.6406 3.1094,-1.6406 1.0156,0 1.5859,0.5234 0.5703,0.5235 0.5703,1.3203 0,0.4375 -0.2578,0.625 -0.2578,0.1875 -0.5234,0.1875 -0.3125,0 -0.5469,-0.2031 -0.2344,-0.2031 -0.2344,-0.5781 0,-0.7656 0.9375,-0.7656 -0.4531,-0.6719 -1.5,-0.6719 -0.3281,0 -0.6562,0.0937 -0.3282,0.0938 -0.7657,0.4063 -0.4375,0.3125 -0.7656,0.8125 -0.3281,0.5 -0.5547,1.4375 -0.2265,0.9375 -0.2265,2.1562 l 0,0.4063 q 0.6875,-1.6875 2.1171,-1.6875 1.4297,0 2.4141,1.0937 0.9844,1.0938 0.9844,2.7032 0,1.6562 -1.0235,2.75 -1.0234,1.0937 -2.4765,1.0937 -0.6406,0 -1.2266,-0.2734 Q -6.046,7.65 -6.5929,7.0407 -7.1398,6.4313 -7.4601,5.2516 -7.7804,4.0719 -7.7804,2.4469 z m 1.5625,1.5313 q 0,1.6718 0.2969,2.4687 0.0625,0.1406 0.1719,0.3125 0.1093,0.1719 0.3046,0.4141 0.1954,0.2422 0.5157,0.3906 0.3203,0.1484 0.6953,0.1484 1.1406,0 1.6875,-1.0937 0.2812,-0.6094 0.2812,-2.2813 0,-1.7031 -0.2968,-2.3281 -0.5313,-1.0625 -1.5782,-1.0625 -0.7187,0 -1.2109,0.5 -0.4922,0.5 -0.6797,1.1485 -0.1875,0.6484 -0.1875,1.3828 z"
       style="stroke:none" />
  </g>
  <g
     id="g117"
     style="font-size:17px;fill:#262626;stroke:#262626;font-family:CMU Serif"
     transform="translate(116.8667,53)">
    <path
       inkscape:connector-curvature="0"
       id="path119"
       d="m -21.0676,2.3844 q 0,-2.5 0.6407,-3.8594 0.875,-2.0312 2.9531,-2.0312 0.4375,0 0.8984,0.125 0.461,0.125 1.0469,0.5781 0.5859,0.4531 0.9453,1.2031 0.6719,1.4532 0.6719,3.9844 0,2.4844 -0.625,3.8438 -0.9219,1.9687 -2.9531,1.9687 -0.7657,0 -1.5391,-0.3906 -0.7734,-0.3906 -1.2734,-1.3281 -0.7657,-1.4063 -0.7657,-4.0938 z m 1.4219,-0.2031 q 0,2.5625 0.1875,3.5781 0.2031,1.1094 0.7734,1.586 0.5704,0.4765 1.1954,0.4765 0.6718,0 1.2421,-0.5078 0.5704,-0.5078 0.7422,-1.6172 0.1875,-1.0937 0.1875,-3.5156 0,-2.3594 -0.1718,-3.3125 -0.2188,-1.1094 -0.8125,-1.5547 -0.5938,-0.4453 -1.1875,-0.4453 -0.2188,0 -0.461,0.0703 -0.2422,0.0703 -0.5781,0.2578 -0.3359,0.1875 -0.6016,0.6641 -0.2656,0.4765 -0.3906,1.1953 -0.125,0.9062 -0.125,3.125 z m 7.8585,4.7344 q 0,-0.3594 0.2578,-0.6172 0.2579,-0.2578 0.6485,-0.2578 0.375,0 0.6328,0.2422 0.2578,0.2421 0.2578,0.6328 0,0.3906 -0.2734,0.6484 -0.2735,0.2578 -0.6172,0.2578 -0.3906,0 -0.6485,-0.2734 -0.2578,-0.2735 -0.2578,-0.6328 z m 4.2412,-7.0782 0.5625,-3.5 0.4219,0 q 0.0468,0.2032 0.1328,0.2969 0.0859,0.0938 0.5703,0.1641 0.4844,0.0703 1.4687,0.0703 l 4.1407,0 q 0,0.3906 -0.1563,0.5937 L -2.7023,0.6969 Q -3.4366,1.7125 -3.7491,3.6032 -3.9366,4.8688 -3.9366,6.4 l 0,0.8594 q 0,0.9375 -0.7891,0.9375 -0.7891,0 -0.7891,-0.9375 0,-3.25 2.0938,-6.3906 0.2187,-0.3281 1.0469,-1.4844 0.8281,-1.1562 0.8593,-1.2031 l -3.5156,0 q -1.5469,0 -1.6719,0.1094 -0.1718,0.1406 -0.4218,1.5468 l -0.4219,0 z"
       style="stroke:none" />
  </g>
  <g
     id="g121"
     style="fill:#3a6e90;stroke:#00ff00;fill-opacity:1">
    <path
       inkscape:connector-curvature="0"
       id="path123"
       d="m 140.568,631 0,-385.0286 23.424,0 0,385.0286 z"
       style="stroke:none;fill:#3a6e90;fill-opacity:1" />
    <path
       inkscape:connector-curvature="0"
       id="path125"
       d="m 169.848,631 0,-423.6855 23.424,0 0,423.6855 z"
       style="stroke:none;fill:#3a6e90;fill-opacity:1" />
    <path
       inkscape:connector-curvature="0"
       id="path127"
       d="m 199.128,631 0,-285.5867 23.424,0 0,285.5867 z"
       style="stroke:none;fill:#3a6e90;fill-opacity:1" />
    <path
       inkscape:connector-curvature="0"
       id="path129"
       d="m 228.408,631 0,-337.0749 23.424,0 0,337.0749 z"
       style="stroke:none;fill:#3a6e90;fill-opacity:1" />
    <path
       inkscape:connector-curvature="0"
       id="path131"
       d="m 257.688,631 0,-357.441 23.424,0 0,357.441 z"
       style="stroke:none;fill:#3a6e90;fill-opacity:1" />
    <path
       inkscape:connector-curvature="0"
       id="path133"
       d="m 286.968,631 0,-271.2491 23.424,0 0,271.2491 z"
       style="stroke:none;fill:#3a6e90;fill-opacity:1" />
    <path
       inkscape:connector-curvature="0"
       id="path135"
       d="m 316.248,631 0,-437.9324 23.424,0 0,437.9324 z"
       style="stroke:none;fill:#3a6e90;fill-opacity:1" />
    <path
       inkscape:connector-curvature="0"
       id="path137"
       d="m 345.528,631 0,-469.5318 23.424,0 0,469.5318 z"
       style="stroke:none;fill:#3a6e90;fill-opacity:1" />
    <path
       inkscape:connector-curvature="0"
       id="path139"
       d="m 374.808,631 0,-394.5189 23.424,0 0,394.5189 z"
       style="stroke:none;fill:#3a6e90;fill-opacity:1" />
    <path
       inkscape:connector-curvature="0"
       id="path141"
       d="m 404.088,631 0,-519.3009 23.424,0 0,519.3009 z"
       style="stroke:none;fill:#3a6e90;fill-opacity:1" />
    <path
       inkscape:connector-curvature="0"
       id="path143"
       d="m 433.368,631 0,-491.4643 23.424,0 0,491.4643 z"
       style="stroke:none;fill:#3a6e90;fill-opacity:1" />
    <path
       inkscape:connector-curvature="0"
       id="path145"
       d="m 462.648,631 0,-424.6897 23.424,0 0,424.6897 z"
       style="stroke:none;fill:#3a6e90;fill-opacity:1" />
    <path
       inkscape:connector-curvature="0"
       id="path147"
       d="m 491.928,631 0,-435.3984 23.424,0 0,435.3984 z"
       style="stroke:none;fill:#3a6e90;fill-opacity:1" />
    <path
       inkscape:connector-curvature="0"
       id="path149"
       d="m 521.208,631 0,-311.6099 23.424,0 0,311.6099 z"
       style="stroke:none;fill:#3a6e90;fill-opacity:1" />
    <path
       inkscape:connector-curvature="0"
       id="path151"
       d="m 550.488,631 0,-237.1373 23.424,0 0,237.1373 z"
       style="stroke:none;fill:#3a6e90;fill-opacity:1" />
    <path
       inkscape:connector-curvature="0"
       id="path153"
       d="m 579.768,631 0,-197.7404 23.424,0 0,197.7404 z"
       style="stroke:none;fill:#3a6e90;fill-opacity:1" />
    <path
       inkscape:connector-curvature="0"
       id="path155"
       d="m 609.048,631 0,-192.1352 23.424,0 0,192.1352 z"
       style="stroke:none;fill:#3a6e90;fill-opacity:1" />
    <path
       inkscape:connector-curvature="0"
       id="path157"
       d="m 638.328,631 0,-157.3571 23.424,0 0,157.3571 z"
       style="stroke:none;fill:#3a6e90;fill-opacity:1" />
    <path
       inkscape:connector-curvature="0"
       id="path159"
       d="m 667.608,631 0,-118.137 23.424,0 0,118.137 z"
       style="stroke:none;fill:#3a6e90;fill-opacity:1" />
    <path
       inkscape:connector-curvature="0"
       id="path161"
       d="m 696.888,631 0,-132.6977 23.424,0 0,132.6977 z"
       style="stroke:none;fill:#3a6e90;fill-opacity:1" />
    <path
       inkscape:connector-curvature="0"
       id="path163"
       d="m 726.168,631 0,-77.2338 23.424,0 0,77.2338 z"
       style="stroke:none;fill:#3a6e90;fill-opacity:1" />
    <path
       inkscape:connector-curvature="0"
       id="path165"
       d="m 755.448,631 0,-63.5162 23.424,0 0,63.5162 z"
       style="stroke:none;fill:#3a6e90;fill-opacity:1" />
    <path
       inkscape:connector-curvature="0"
       id="path167"
       d="m 784.728,631 0,-55.9695 23.424,0 0,55.9695 z"
       style="stroke:none;fill:#3a6e90;fill-opacity:1" />
    <path
       inkscape:connector-curvature="0"
       id="path169"
       d="m 814.008,631 0,-36.6691 23.424,0 0,36.6691 z"
       style="stroke:none;fill:#3a6e90;fill-opacity:1" />
  </g>
  <g
     id="g171">
    <path
       inkscape:connector-curvature="0"
       id="path173"
       style="fill:none"
       d="m 140.568,631 0,-385.0286 23.424,0 0,385.0286 -23.424,0" />
    <path
       inkscape:connector-curvature="0"
       id="path175"
       style="fill:none"
       d="m 169.848,631 0,-423.6855 23.424,0 0,423.6855 -23.424,0" />
    <path
       inkscape:connector-curvature="0"
       id="path177"
       style="fill:none"
       d="m 199.128,631 0,-285.5867 23.424,0 0,285.5867 -23.424,0" />
    <path
       inkscape:connector-curvature="0"
       id="path179"
       style="fill:none"
       d="m 228.408,631 0,-337.0749 23.424,0 0,337.0749 -23.424,0" />
    <path
       inkscape:connector-curvature="0"
       id="path181"
       style="fill:none"
       d="m 257.688,631 0,-357.441 23.424,0 0,357.441 -23.424,0" />
    <path
       inkscape:connector-curvature="0"
       id="path183"
       style="fill:none"
       d="m 286.968,631 0,-271.2491 23.424,0 0,271.2491 -23.424,0" />
    <path
       inkscape:connector-curvature="0"
       id="path185"
       style="fill:none"
       d="m 316.248,631 0,-437.9324 23.424,0 0,437.9324 -23.424,0" />
    <path
       inkscape:connector-curvature="0"
       id="path187"
       style="fill:none"
       d="m 345.528,631 0,-469.5318 23.424,0 0,469.5318 -23.424,0" />
    <path
       inkscape:connector-curvature="0"
       id="path189"
       style="fill:none"
       d="m 374.808,631 0,-394.5189 23.424,0 0,394.5189 -23.424,0" />
    <path
       inkscape:connector-curvature="0"
       id="path191"
       style="fill:none"
       d="m 404.088,631 0,-519.3009 23.424,0 0,519.3009 -23.424,0" />
    <path
       inkscape:connector-curvature="0"
       id="path193"
       style="fill:none"
       d="m 433.368,631 0,-491.4643 23.424,0 0,491.4643 -23.424,0" />
    <path
       inkscape:connector-curvature="0"
       id="path195"
       style="fill:none"
       d="m 462.648,631 0,-424.6897 23.424,0 0,424.6897 -23.424,0" />
    <path
       inkscape:connector-curvature="0"
       id="path197"
       style="fill:none"
       d="m 491.928,631 0,-435.3984 23.424,0 0,435.3984 -23.424,0" />
    <path
       inkscape:connector-curvature="0"
       id="path199"
       style="fill:none"
       d="m 521.208,631 0,-311.6099 23.424,0 0,311.6099 -23.424,0" />
    <path
       inkscape:connector-curvature="0"
       id="path201"
       style="fill:none"
       d="m 550.488,631 0,-237.1373 23.424,0 0,237.1373 -23.424,0" />
    <path
       inkscape:connector-curvature="0"
       id="path203"
       style="fill:none"
       d="m 579.768,631 0,-197.7404 23.424,0 0,197.7404 -23.424,0" />
    <path
       inkscape:connector-curvature="0"
       id="path205"
       style="fill:none"
       d="m 609.048,631 0,-192.1352 23.424,0 0,192.1352 -23.424,0" />
    <path
       inkscape:connector-curvature="0"
       id="path207"
       style="fill:none"
       d="m 638.328,631 0,-157.3571 23.424,0 0,157.3571 -23.424,0" />
    <path
       inkscape:connector-curvature="0"
       id="path209"
       style="fill:none"
       d="m 667.608,631 0,-118.137 23.424,0 0,118.137 -23.424,0" />
    <path
       inkscape:connector-curvature="0"
       id="path211"
       style="fill:none"
       d="m 696.888,631 0,-132.6977 23.424,0 0,132.6977 -23.424,0" />
    <path
       inkscape:connector-curvature="0"
       id="path213"
       style="fill:none"
       d="m 726.168,631 0,-77.2338 23.424,0 0,77.2338 -23.424,0" />
    <path
       inkscape:connector-curvature="0"
       id="path215"
       style="fill:none"
       d="m 755.448,631 0,-63.5162 23.424,0 0,63.5162 -23.424,0" />
    <path
       inkscape:connector-curvature="0"
       id="path217"
       style="fill:none"
       d="m 784.728,631 0,-55.9695 23.424,0 0,55.9695 -23.424,0" />
    <path
       inkscape:connector-curvature="0"
       id="path219"
       style="fill:none"
       d="m 814.008,631 0,-36.6691 23.424,0 0,36.6691 -23.424,0" />
  </g>
  <g
     id="g221"
     style="fill:#a4e2c2;stroke:#a4e2c2">
    <path
       inkscape:connector-curvature="0"
       id="path223"
       d="m 140.568,631 0,-385.0286 23.424,0 0,385.0286 z"
       style="stroke:none" />
    <path
       inkscape:connector-curvature="0"
       id="path225"
       d="m 169.848,631 0,-423.6855 23.424,0 0,423.6855 z"
       style="stroke:none" />
    <path
       inkscape:connector-curvature="0"
       id="path227"
       d="m 199.128,631 0,-285.5867 23.424,0 0,285.5867 z"
       style="stroke:none" />
    <path
       inkscape:connector-curvature="0"
       id="path229"
       d="m 228.408,631 0,-337.0749 23.424,0 0,337.0749 z"
       style="stroke:none" />
    <path
       inkscape:connector-curvature="0"
       id="path231"
       d="m 257.688,631 0,-357.441 23.424,0 0,357.441 z"
       style="stroke:none" />
    <path
       inkscape:connector-curvature="0"
       id="path233"
       d="m 286.968,631 0,-271.2491 23.424,0 0,271.2491 z"
       style="stroke:none" />
    <path
       inkscape:connector-curvature="0"
       id="path235"
       d="m 316.248,631 0,-437.9324 23.424,0 0,437.9324 z"
       style="stroke:none" />
    <path
       inkscape:connector-curvature="0"
       id="path237"
       d="m 345.528,631 0,-469.5318 23.424,0 0,469.5318 z"
       style="stroke:none" />
    <path
       inkscape:connector-curvature="0"
       id="path239"
       d="m 374.808,631 0,-394.5189 23.424,0 0,394.5189 z"
       style="stroke:none" />
    <path
       inkscape:connector-curvature="0"
       id="path241"
       d="m 404.088,631 0,-519.3009 23.424,0 0,519.3009 z"
       style="stroke:none;fill:#3a6e90;fill-opacity:0" />
    <path
       inkscape:connector-curvature="0"
       id="path243"
       d="m 433.368,631 0,-491.4643 23.424,0 0,491.4643 z"
       style="stroke:none" />
    <path
       inkscape:connector-curvature="0"
       id="path245"
       d="m 462.648,631 0,-424.6897 23.424,0 0,424.6897 z"
       style="stroke:none" />
    <path
       inkscape:connector-curvature="0"
       id="path247"
       d="m 491.928,631 0,-435.3984 23.424,0 0,435.3984 z"
       style="stroke:none" />
    <path
       inkscape:connector-curvature="0"
       id="path249"
       d="m 521.208,631 0,-311.6099 23.424,0 0,311.6099 z"
       style="stroke:none" />
    <path
       inkscape:connector-curvature="0"
       id="path251"
       d="m 550.488,631 0,-237.1373 23.424,0 0,237.1373 z"
       style="stroke:none" />
    <path
       inkscape:connector-curvature="0"
       id="path253"
       d="m 579.768,631 0,-197.7404 23.424,0 0,197.7404 z"
       style="stroke:none" />
    <path
       inkscape:connector-curvature="0"
       id="path255"
       d="m 609.048,631 0,-192.1352 23.424,0 0,192.1352 z"
       style="stroke:none" />
    <path
       inkscape:connector-curvature="0"
       id="path257"
       d="m 638.328,631 0,-157.3571 23.424,0 0,157.3571 z"
       style="stroke:none" />
    <path
       inkscape:connector-curvature="0"
       id="path259"
       d="m 667.608,631 0,-118.137 23.424,0 0,118.137 z"
       style="stroke:none" />
    <path
       inkscape:connector-curvature="0"
       id="path261"
       d="m 696.888,631 0,-132.6977 23.424,0 0,132.6977 z"
       style="stroke:none" />
    <path
       inkscape:connector-curvature="0"
       id="path263"
       d="m 726.168,631 0,-77.2338 23.424,0 0,77.2338 z"
       style="stroke:none" />
    <path
       inkscape:connector-curvature="0"
       id="path265"
       d="m 755.448,631 0,-63.5162 23.424,0 0,63.5162 z"
       style="stroke:none" />
    <path
       inkscape:connector-curvature="0"
       id="path267"
       d="m 784.728,631 0,-55.9695 23.424,0 0,55.9695 z"
       style="stroke:none" />
    <path
       inkscape:connector-curvature="0"
       id="path269"
       d="m 814.008,631 0,-36.6691 23.424,0 0,36.6691 z"
       style="stroke:none" />
  </g>
  <g
     id="g271"
     style="font-size:17px;font-weight:bold;font-family:CMU Serif"
     transform="translate(489,48.6667)">
    <path
       inkscape:connector-curvature="0"
       id="path273"
       d="m -170.3794,-6.6384 q 0,-1.75 1.1484,-2.875 1.1484,-1.125 3.1797,-1.125 2.0312,0 3.1875,1.125 1.1562,1.125 1.1562,2.875 0,1.6406 -1.1406,2.7265 -1.1406,1.086 -3.1953,1.086 -2.0547,0 -3.1953,-1.086 -1.1406,-1.0859 -1.1406,-2.7265 z m 2.1718,-0.1875 q 0,0.5 0.008,0.7656 0.008,0.2656 0.0704,0.7344 0.0625,0.4687 0.1953,0.7265 0.1328,0.2578 0.3672,0.5469 0.2343,0.2891 0.6171,0.4141 0.3829,0.125 0.9063,0.125 0.5234,0 0.9062,-0.125 0.3829,-0.125 0.6094,-0.4141 0.2266,-0.2891 0.3672,-0.5469 0.1406,-0.2578 0.1953,-0.7265 0.0547,-0.4688 0.0625,-0.7344 0.008,-0.2656 0.008,-0.7656 0,-1.75 -0.3437,-2.3282 -0.5469,-0.875 -1.8125,-0.875 -1.3594,0 -1.8594,0.9844 -0.2969,0.5781 -0.2969,2.2188 z m 7.6803,6.3906 1.1719,0 0,-8.5625 q 0,-0.4844 -0.1797,-0.5703 -0.1797,-0.086 -0.9922,-0.086 l 0,-0.7968 3.0156,-0.1407 0,0.8438 q 1.0625,-0.8438 2.5625,-0.8438 1.8282,0 2.9141,1.0704 1.0859,1.0703 1.0859,2.789 0,1.7813 -1.1797,2.8438 -1.1796,1.0625 -3.1015,1.0625 -1.25,0 -2.1875,-0.7657 l 0,3.1563 1.1719,0 0,0.7969 q -1.4219,-0.0469 -2.1329,-0.0469 -0.7109,0 -2.1484,0.0469 l 0,-0.7969 z m 3.1094,-4.4844 q 0,0.25 0.0312,0.3203 0.0313,0.0703 0.1563,0.2422 0.7656,0.9063 1.8125,0.9063 0.9219,0 1.6094,-0.8047 0.6875,-0.8047 0.6875,-2.4766 0,-1.5312 -0.6016,-2.3515 -0.6016,-0.8204 -1.4922,-0.8204 -1.1562,0 -1.9375,0.7969 -0.1875,0.1875 -0.2266,0.2656 -0.039,0.0782 -0.039,0.3125 l 0,3.6094 z m 7.4699,-4.7656 0,-0.6094 q 1.1875,-0.0312 1.8515,-1.0469 0.6641,-1.0156 0.6797,-2.3906 l 0.7969,0 0,3.25 2.4844,0 0,0.7969 -2.4844,0 0,4.6875 q 0,1.4844 0.9844,1.4844 0.4062,0 0.7109,-0.3828 0.3047,-0.3829 0.3047,-1.1797 l 0,-0.875 0.8125,0 0,0.9062 q 0,0.9531 -0.5547,1.586 -0.5547,0.6328 -1.5078,0.6328 -2.6875,0 -2.6875,-2.2032 l 0,-4.6562 -1.3906,0 z m 8.8013,-4.2578 q 0,-0.5391 0.3829,-0.9297 0.3828,-0.3906 0.9453,-0.3906 0.5468,0 0.9375,0.3906 0.3906,0.3906 0.3906,0.9297 0,0.539 -0.3906,0.9297 -0.3907,0.3906 -0.9375,0.3906 -0.5625,0 -0.9453,-0.3906 -0.3829,-0.3907 -0.3829,-0.9297 z m -0.7656,11.0078 0,-0.7969 1.1719,0 0,-5.25 q 0,-0.4844 -0.1719,-0.5781 -0.1719,-0.0938 -0.9531,-0.0938 l 0,-0.7968 2.9687,-0.1407 0,6.8594 1.0469,0 0,0.7969 q -1.8281,-0.0469 -1.9844,-0.0469 -0.5,0 -2.0781,0.0469 z m 5.2819,0 0,-0.7969 1.8437,0 0,-9.9687 -1.8437,0 0,-0.7969 10.2968,0 0.5157,4.0937 -0.7969,0 q -0.0781,-0.6718 -0.1797,-1.1093 -0.1016,-0.4375 -0.3281,-0.8907 -0.2266,-0.4531 -0.5703,-0.7109 -0.3438,-0.2578 -0.9219,-0.4219 -0.5781,-0.164 -1.375,-0.164 l -2.3906,0 0,4.5781 0.8593,0 q 1.1407,0 1.461,-0.4609 0.3203,-0.461 0.3203,-1.5235 l 0.7969,0 0,4.7656 -0.7969,0 q 0,-1.0625 -0.3203,-1.5234 -0.3203,-0.4609 -1.461,-0.4609 l -0.8593,0 0,4.5937 2.2968,0 0,0.7969 q -0.75,-0.0469 -3.4218,-0.0469 -2.4688,0 -3.125,0.0469 z m 13.196,-11.0078 q 0,-0.5391 0.3828,-0.9297 0.3828,-0.3906 0.9453,-0.3906 0.5469,0 0.9375,0.3906 0.3906,0.3906 0.3906,0.9297 0,0.539 -0.3906,0.9297 -0.3906,0.3906 -0.9375,0.3906 -0.5625,0 -0.9453,-0.3906 -0.3828,-0.3907 -0.3828,-0.9297 z m -0.7657,11.0078 0,-0.7969 1.1719,0 0,-5.25 q 0,-0.4844 -0.1719,-0.5781 -0.1718,-0.0938 -0.9531,-0.0938 l 0,-0.7968 2.9688,-0.1407 0,6.8594 1.0468,0 0,0.7969 q -1.8281,-0.0469 -1.9843,-0.0469 -0.5,0 -2.0782,0.0469 z m 5.3912,0 0,-0.7969 1.1719,0 0,-5.25 q 0,-0.4844 -0.1797,-0.5781 -0.1797,-0.0938 -0.9922,-0.0938 l 0,-0.7968 2.9219,-0.1407 0,1.8438 q 0.9375,-1.8438 2.9688,-1.8438 1.3125,0 1.9687,0.5704 0.6563,0.5703 0.6563,1.8828 l 0,4.4062 1.1718,0 0,0.7969 q -1.4218,-0.0469 -2.1406,-0.0469 -0.7187,0 -2.1406,0.0469 l 0,-0.7969 1.1719,0 0,-4.5937 q 0,-0.9219 -0.2344,-1.2813 -0.2344,-0.3594 -0.7031,-0.3594 -0.9375,0 -1.7344,0.7032 -0.7969,0.7031 -0.7969,1.9687 l 0,3.5625 1.1719,0 0,0.7969 q -1.4219,-0.0469 -2.1406,-0.0469 -0.7188,0 -2.1407,0.0469 z m 10.72,-3.75 q 0,-1.7813 1.1953,-2.8438 1.1953,-1.0625 3.0703,-1.0625 1.3125,0 2.2969,0.7657 l 0,-3.3125 q 0,-0.4688 -0.1797,-0.5625 -0.1797,-0.0938 -0.9922,-0.0938 l 0,-0.7969 3.0156,-0.1406 0,10.3281 q 0,0.4844 0.1797,0.5782 0.1797,0.0937 0.9922,0.0937 l 0,0.7969 -3.1094,0.1094 0,-0.8438 q -1.0469,0.8438 -2.3906,0.8438 -1.8594,0 -2.9688,-1.086 -1.1093,-1.0859 -1.1093,-2.7734 z m 2.1875,0 q 0,0.4219 0.008,0.6641 0.008,0.2421 0.0547,0.6875 0.0468,0.4453 0.1875,0.7265 0.1406,0.2813 0.3593,0.5781 0.2188,0.2969 0.5938,0.4375 0.375,0.1407 0.8594,0.1407 1.3125,0 2.2187,-1.2344 l 0,-4.25 q -0.7812,-1.0313 -2.0312,-1.0313 -1.2032,0 -1.8125,0.875 -0.4375,0.6719 -0.4375,2.4063 z m 8.5636,-0.0781 q 0,-1.6563 1.1094,-2.7657 1.1094,-1.1093 3.0937,-1.1093 1.75,0 2.7032,0.9218 0.9375,0.9532 0.9375,2.6094 0,0.3281 -0.1094,0.3985 -0.1094,0.0703 -0.4219,0.0703 l -5.1406,0 q 0,3.125 2.4219,3.125 0.8281,0 1.4922,-0.375 0.664,-0.375 0.9296,-0.9844 0.0938,-0.2188 0.1563,-0.2891 0.0625,-0.0703 0.2656,-0.0703 0.4063,0 0.4063,0.3125 0,0.1094 -0.086,0.3281 -0.0859,0.2188 -0.3359,0.5313 -0.25,0.3125 -0.6172,0.5859 -0.3672,0.2735 -0.9844,0.461 -0.6172,0.1875 -1.3828,0.1875 -2.0312,0 -3.2344,-1.1016 -1.2031,-1.1016 -1.2031,-2.8359 z m 2.1719,-0.4375 4.0625,0 q -0.0781,-2.8282 -2.0313,-2.8282 -1.0468,0 -1.625,0.8907 -0.3437,0.5312 -0.4062,1.9375 z m 6.8643,4.2656 0,-0.7969 1.1719,0 0,-5.25 q 0,-0.4844 -0.1797,-0.5781 -0.1797,-0.0938 -0.9922,-0.0938 l 0,-0.7968 2.8282,-0.1407 0,1.9219 q 0.6875,-1.9219 2.2656,-1.9219 0.7031,0 1.25,0.375 0.5469,0.375 0.5469,1.0313 0,0.4687 -0.3125,0.75 -0.3125,0.2812 -0.7266,0.2812 -0.4141,0 -0.7266,-0.2734 -0.3125,-0.2734 -0.3125,-0.7578 0,-0.4688 0.3282,-0.7813 -0.5938,0 -1.0391,0.3282 -0.4453,0.3281 -0.6641,0.8672 -0.2187,0.539 -0.3203,1.0468 -0.1015,0.5078 -0.1015,1.0078 l 0,2.9844 1.4687,0 0,0.7969 q -0.6094,-0.0469 -2.3437,-0.0469 -0.3594,0 -2.1407,0.0469 z m 14.1287,-2.9531 0,-1.6563 5.2031,0 0,1.6563 -5.2031,0 z m 13.4738,2.9531 0,-0.7969 1.8438,0 0,-10.0625 -1.8438,0 0,-0.7969 7.0938,0 q 2.0781,0 3.289,0.9297 1.211,0.9297 1.211,2.375 0,1.4453 -1.2422,2.3282 -1.2422,0.8828 -3.086,0.8828 l -3.0156,0 0,4.3437 1.8438,0 0,0.7969 q -0.6407,-0.0469 -3.0391,-0.0469 -2.3984,0 -3.0547,0.0469 z m 4.1563,-5.8281 2.2812,0 q 0.5156,0 0.9375,-0.086 0.4219,-0.0859 0.6953,-0.1953 0.2735,-0.1094 0.4532,-0.3281 0.1796,-0.2188 0.2734,-0.3984 0.0937,-0.1797 0.1406,-0.4922 0.0469,-0.3125 0.0547,-0.4922 0.0078,-0.1797 0.0078,-0.5235 0,-0.4062 -0.0156,-0.625 -0.0156,-0.2187 -0.0781,-0.5625 -0.0625,-0.3437 -0.2188,-0.539 -0.1562,-0.1953 -0.4297,-0.3985 -0.2734,-0.2031 -0.7343,-0.2968 -0.461,-0.0938 -1.0704,-0.0938 l -2.2968,0 0,5.0313 z m 9.1731,5.8281 0,-0.7969 1.1719,0 0,-5.25 q 0,-0.4844 -0.1797,-0.5781 -0.1797,-0.0938 -0.9922,-0.0938 l 0,-0.7968 2.8282,-0.1407 0,1.9219 q 0.6875,-1.9219 2.2656,-1.9219 0.7031,0 1.25,0.375 0.5469,0.375 0.5469,1.0313 0,0.4687 -0.3125,0.75 -0.3125,0.2812 -0.7266,0.2812 -0.4141,0 -0.7266,-0.2734 -0.3125,-0.2734 -0.3125,-0.7578 0,-0.4688 0.3282,-0.7813 -0.5938,0 -1.0391,0.3282 -0.4453,0.3281 -0.6641,0.8672 -0.2187,0.539 -0.3203,1.0468 -0.1015,0.5078 -0.1015,1.0078 l 0,2.9844 1.4687,0 0,0.7969 q -0.6094,-0.0469 -2.3437,-0.0469 -0.3594,0 -2.1407,0.0469 z m 7.9621,-3.8281 q 0,-1.6563 1.1094,-2.7657 1.1093,-1.1093 3.0937,-1.1093 1.75,0 2.7031,0.9218 0.9375,0.9532 0.9375,2.6094 0,0.3281 -0.1093,0.3985 -0.1094,0.0703 -0.4219,0.0703 l -5.1406,0 q 0,3.125 2.4218,3.125 0.8282,0 1.4922,-0.375 0.6641,-0.375 0.9297,-0.9844 0.0938,-0.2188 0.1563,-0.2891 0.0625,-0.0703 0.2656,-0.0703 0.4062,0 0.4062,0.3125 0,0.1094 -0.0859,0.3281 -0.0859,0.2188 -0.3359,0.5313 -0.25,0.3125 -0.6172,0.5859 -0.3672,0.2735 -0.9844,0.461 -0.6172,0.1875 -1.3828,0.1875 -2.0313,0 -3.2344,-1.1016 -1.2031,-1.1016 -1.2031,-2.8359 z m 2.1719,-0.4375 4.0625,0 q -0.0782,-2.8282 -2.0313,-2.8282 -1.0469,0 -1.625,0.8907 -0.3437,0.5312 -0.4062,1.9375 z m 6.8799,0.4843 q 0,-1.625 1.086,-2.7734 1.0859,-1.1484 3.2265,-1.1484 2.9532,0 2.9532,1.5625 0,0.5156 -0.3203,0.7968 -0.3204,0.2813 -0.7579,0.2813 -0.3906,0 -0.7187,-0.2813 -0.3281,-0.2812 -0.3281,-0.7968 0,-0.4688 0.3437,-0.7813 -0.4531,-0.0937 -1.1094,-0.0937 -0.625,0 -1.0703,0.25 -0.4453,0.25 -0.6562,0.5703 -0.211,0.3203 -0.3203,0.8359 -0.1094,0.5156 -0.125,0.7969 -0.0157,0.2812 -0.0157,0.7031 0,3.2813 2.3594,3.2813 1.5469,0 2.125,-1.3907 0.0625,-0.1718 0.125,-0.2187 0.0625,-0.0469 0.2813,-0.0469 0.4062,0 0.4062,0.25 0,0.0625 -0.0703,0.2578 -0.0703,0.1953 -0.2891,0.5157 -0.2187,0.3203 -0.5546,0.6015 -0.336,0.2813 -0.961,0.5 -0.625,0.2188 -1.3906,0.2188 -1.9375,0 -3.0781,-1.086 -1.1407,-1.0859 -1.1407,-2.8047 z m 9.608,-7.2265 q 0,-0.5391 0.3829,-0.9297 0.3828,-0.3906 0.9453,-0.3906 0.5468,0 0.9375,0.3906 0.3906,0.3906 0.3906,0.9297 0,0.539 -0.3906,0.9297 -0.3907,0.3906 -0.9375,0.3906 -0.5625,0 -0.9453,-0.3906 -0.3829,-0.3907 -0.3829,-0.9297 z m -0.7656,11.0078 0,-0.7969 1.1719,0 0,-5.25 q 0,-0.4844 -0.1719,-0.5781 -0.1719,-0.0938 -0.9531,-0.0938 l 0,-0.7968 2.9687,-0.1407 0,6.8594 1.0469,0 0,0.7969 q -1.8281,-0.0469 -1.9844,-0.0469 -0.5,0 -2.0781,0.0469 z m 5.2662,-0.375 0,-1.8594 q 0,-0.3125 0.0625,-0.3984 0.0625,-0.086 0.3438,-0.086 0.2187,0 0.289,0.0313 0.0703,0.0312 0.1328,0.2031 0.0938,0.3594 0.2188,0.6328 0.125,0.2735 0.3906,0.6172 0.2656,0.3438 0.7344,0.5313 0.4687,0.1875 1.0937,0.1875 1.9375,0 1.9375,-1.2657 0,-0.3593 -0.1875,-0.6171 -0.1875,-0.2579 -0.539,-0.3985 -0.3516,-0.1406 -0.586,-0.2031 -0.2343,-0.0625 -0.5625,-0.1094 -0.8437,-0.1562 -1.164,-0.2265 -0.3203,-0.0704 -0.7344,-0.2422 -0.4141,-0.1719 -0.7422,-0.4688 -0.6875,-0.5781 -0.6875,-1.4219 0,-0.5312 0.1875,-0.9375 0.1875,-0.4062 0.5235,-0.6406 0.3359,-0.2344 0.6562,-0.375 0.3203,-0.1406 0.7344,-0.1953 0.414,-0.0547 0.6094,-0.0703 0.1953,-0.0156 0.4296,-0.0156 1.0625,0 1.7032,0.3281 0.6718,-0.3281 0.7656,-0.3281 0.2031,0 0.2578,0.0937 0.0547,0.0938 0.0547,0.3906 l 0,1.3594 q 0,0.3125 -0.0625,0.3906 -0.0625,0.0782 -0.3438,0.0782 -0.25,0 -0.3125,-0.0703 -0.0625,-0.0704 -0.0781,-0.2735 -0.1406,-1.4219 -2.0156,-1.4219 -1.8906,0 -1.8906,1.0469 0,0.2969 0.1562,0.5 0.1563,0.2031 0.4922,0.3203 0.3359,0.1172 0.5234,0.1719 0.1875,0.0547 0.5625,0.1172 1.0938,0.1875 1.5782,0.3359 0.4843,0.1485 0.9531,0.4766 0.9375,0.75 0.9375,1.8125 0,0.5937 -0.1875,1.0391 -0.1875,0.4453 -0.5234,0.7031 -0.336,0.2578 -0.6563,0.4219 -0.3203,0.164 -0.75,0.2187 -0.4297,0.0547 -0.6172,0.0781 -0.1875,0.0235 -0.4219,0.0235 -1.2187,0 -2,-0.5469 l -0.4375,0.2812 q -0.3593,0.2657 -0.5156,0.2657 -0.2031,0 -0.2578,-0.1094 -0.0547,-0.1094 -0.0547,-0.375 z m 8.6221,-10.6328 q 0,-0.5391 0.3828,-0.9297 0.3828,-0.3906 0.9453,-0.3906 0.5469,0 0.9375,0.3906 0.3907,0.3906 0.3907,0.9297 0,0.539 -0.3907,0.9297 -0.3906,0.3906 -0.9375,0.3906 -0.5625,0 -0.9453,-0.3906 -0.3828,-0.3907 -0.3828,-0.9297 z m -0.7656,11.0078 0,-0.7969 1.1719,0 0,-5.25 q 0,-0.4844 -0.1719,-0.5781 -0.1719,-0.0938 -0.9531,-0.0938 l 0,-0.7968 2.9687,-0.1407 0,6.8594 1.0469,0 0,0.7969 q -1.8281,-0.0469 -1.9844,-0.0469 -0.5,0 -2.0781,0.0469 z m 5.1725,-3.7031 q 0,-1.75 1.1484,-2.875 1.1484,-1.125 3.1797,-1.125 2.0312,0 3.1875,1.125 1.1562,1.125 1.1562,2.875 0,1.6406 -1.1406,2.7265 -1.1406,1.086 -3.1953,1.086 -2.0547,0 -3.1953,-1.086 -1.1406,-1.0859 -1.1406,-2.7265 z m 2.1718,-0.1875 q 0,0.5 0.0078,0.7656 0.0079,0.2656 0.0704,0.7344 0.0625,0.4687 0.1953,0.7265 0.1328,0.2578 0.3672,0.5469 0.2343,0.2891 0.6171,0.4141 0.3829,0.125 0.9063,0.125 0.5234,0 0.9062,-0.125 0.3829,-0.125 0.6094,-0.4141 0.2266,-0.2891 0.3672,-0.5469 0.1406,-0.2578 0.1953,-0.7265 0.0547,-0.4688 0.0625,-0.7344 0.0078,-0.2656 0.0078,-0.7656 0,-1.75 -0.3437,-2.3282 -0.5469,-0.875 -1.8125,-0.875 -1.3594,0 -1.8594,0.9844 -0.2969,0.5781 -0.2969,2.2188 z m 7.8209,3.8906 0,-0.7969 1.1719,0 0,-5.25 q 0,-0.4844 -0.1797,-0.5781 Q 7.587,-9.6541 6.7745,-9.6541 l 0,-0.7968 2.9219,-0.1407 0,1.8438 q 0.9375,-1.8438 2.9687,-1.8438 1.3125,0 1.9688,0.5704 0.6562,0.5703 0.6562,1.8828 l 0,4.4062 1.1719,0 0,0.7969 q -1.4219,-0.0469 -2.1406,-0.0469 -0.7188,0 -2.1406,0.0469 l 0,-0.7969 1.1718,0 0,-4.5937 q 0,-0.9219 -0.2343,-1.2813 -0.2344,-0.3594 -0.7032,-0.3594 -0.9375,0 -1.7343,0.7032 -0.7969,0.7031 -0.7969,1.9687 l 0,3.5625 1.1719,0 0,0.7969 q -1.4219,-0.0469 -2.1407,-0.0469 -0.7187,0 -2.1406,0.0469 z m 18.1522,-6.0078 q 0,-0.5391 0.3828,-0.9297 0.3828,-0.3906 0.9453,-0.3906 0.5469,0 0.9375,0.3906 0.3906,0.3906 0.3906,0.9297 0,0.539 -0.3906,0.9297 -0.3906,0.3906 -0.9375,0.3906 -0.5625,0 -0.9453,-0.3906 -0.3828,-0.3907 -0.3828,-0.9297 z m 0,5 q 0,-0.5391 0.3828,-0.9297 0.3828,-0.3906 0.9453,-0.3906 0.5469,0 0.9375,0.3906 0.3906,0.3906 0.3906,0.9297 0,0.539 -0.3906,0.9297 -0.3906,0.3906 -0.9375,0.3906 -0.5625,0 -0.9453,-0.3906 -0.3828,-0.3907 -0.3828,-0.9297 z m 11.0265,1.0078 0,-0.7969 1.8438,0 0,-10.0625 -1.8438,0 0,-0.7969 7.0938,0 q 2.0781,0 3.289,0.9297 1.211,0.9297 1.211,2.375 0,1.4453 -1.2422,2.3282 -1.2422,0.8828 -3.086,0.8828 l -3.0156,0 0,4.3437 1.8438,0 0,0.7969 q -0.6407,-0.0469 -3.0391,-0.0469 -2.3984,0 -3.0547,0.0469 z m 4.1563,-5.8281 2.2812,0 q 0.5156,0 0.9375,-0.086 0.4219,-0.0859 0.6953,-0.1953 0.2735,-0.1094 0.4531,-0.3281 0.1797,-0.2188 0.2735,-0.3984 0.0937,-0.1797 0.1406,-0.4922 0.0469,-0.3125 0.0547,-0.4922 0.0078,-0.1797 0.0078,-0.5235 0,-0.4062 -0.0156,-0.625 -0.0156,-0.2187 -0.0781,-0.5625 -0.0625,-0.3437 -0.2188,-0.539 -0.1562,-0.1953 -0.4297,-0.3985 -0.2734,-0.2031 -0.7344,-0.2968 -0.4609,-0.0938 -1.0703,-0.0938 l -2.2968,0 0,5.0313 z m 9.1731,5.8281 0,-0.7969 1.1719,0 0,-5.25 q 0,-0.4844 -0.1797,-0.5781 -0.1797,-0.0938 -0.9922,-0.0938 l 0,-0.7968 2.8281,-0.1407 0,1.9219 q 0.6875,-1.9219 2.2657,-1.9219 0.7031,0 1.25,0.375 0.5468,0.375 0.5468,1.0313 0,0.4687 -0.3125,0.75 -0.3125,0.2812 -0.7265,0.2812 -0.4141,0 -0.7266,-0.2734 -0.3125,-0.2734 -0.3125,-0.7578 0,-0.4688 0.3281,-0.7813 -0.5937,0 -1.039,0.3282 -0.4453,0.3281 -0.6641,0.8672 -0.2187,0.539 -0.3203,1.0468 -0.1016,0.5078 -0.1016,1.0078 l 0,2.9844 1.4688,0 0,0.7969 q -0.6094,-0.0469 -2.3438,-0.0469 -0.3593,0 -2.1406,0.0469 z m 7.9621,-3.8281 q 0,-1.6563 1.1093,-2.7657 1.1094,-1.1093 3.0938,-1.1093 1.75,0 2.7031,0.9218 0.9375,0.9532 0.9375,2.6094 0,0.3281 -0.1094,0.3985 -0.1093,0.0703 -0.4218,0.0703 l -5.1407,0 q 0,3.125 2.4219,3.125 0.8281,0 1.4922,-0.375 0.6641,-0.375 0.9297,-0.9844 0.0937,-0.2188 0.1562,-0.2891 0.0625,-0.0703 0.2657,-0.0703 0.4062,0 0.4062,0.3125 0,0.1094 -0.0859,0.3281 -0.086,0.2188 -0.336,0.5313 -0.25,0.3125 -0.6171,0.5859 -0.3672,0.2735 -0.9844,0.461 -0.6172,0.1875 -1.3828,0.1875 -2.0313,0 -3.2344,-1.1016 -1.2031,-1.1016 -1.2031,-2.8359 z m 2.1718,-0.4375 4.0625,0 q -0.0781,-2.8282 -2.0312,-2.8282 -1.0469,0 -1.625,0.8907 -0.3438,0.5312 -0.4063,1.9375 z m 6.88,0.5156 q 0,-1.7813 1.1953,-2.8438 1.1953,-1.0625 3.0703,-1.0625 1.3125,0 2.2969,0.7657 l 0,-3.3125 q 0,-0.4688 -0.1797,-0.5625 -0.1797,-0.0938 -0.9922,-0.0938 l 0,-0.7969 3.0157,-0.1406 0,10.3281 q 0,0.4844 0.1797,0.5782 0.1796,0.0937 0.9921,0.0937 l 0,0.7969 -3.1093,0.1094 0,-0.8438 q -1.0469,0.8438 -2.3907,0.8438 -1.8593,0 -2.9687,-1.086 -1.1094,-1.0859 -1.1094,-2.7734 z m 2.1875,0 q 0,0.4219 0.0078,0.6641 0.0078,0.2421 0.0547,0.6875 0.0469,0.4453 0.1875,0.7265 0.1406,0.2813 0.3594,0.5781 0.2187,0.2969 0.5937,0.4375 0.375,0.1407 0.8594,0.1407 1.3125,0 2.2188,-1.2344 l 0,-4.25 q -0.7813,-1.0313 -2.0313,-1.0313 -1.2031,0 -1.8125,0.875 -0.4375,0.6719 -0.4375,2.4063 z m 9.5793,-7.2578 q 0,-0.5391 0.3828,-0.9297 0.3828,-0.3906 0.9453,-0.3906 0.5469,0 0.9375,0.3906 0.3907,0.3906 0.3907,0.9297 0,0.539 -0.3907,0.9297 -0.3906,0.3906 -0.9375,0.3906 -0.5625,0 -0.9453,-0.3906 -0.3828,-0.3907 -0.3828,-0.9297 z m -0.7656,11.0078 0,-0.7969 1.1719,0 0,-5.25 q 0,-0.4844 -0.1719,-0.5781 -0.1719,-0.0938 -0.9531,-0.0938 l 0,-0.7968 2.9687,-0.1407 0,6.8594 1.0469,0 0,0.7969 q -1.8281,-0.0469 -1.9844,-0.0469 -0.5,0 -2.0781,0.0469 z m 5.2662,-3.7813 q 0,-1.625 1.0859,-2.7734 1.086,-1.1484 3.2266,-1.1484 2.9531,0 2.9531,1.5625 0,0.5156 -0.3203,0.7968 -0.3203,0.2813 -0.7578,0.2813 -0.3906,0 -0.7188,-0.2813 -0.3281,-0.2812 -0.3281,-0.7968 0,-0.4688 0.3438,-0.7813 -0.4532,-0.0937 -1.1094,-0.0937 -0.625,0 -1.0703,0.25 -0.4453,0.25 -0.6563,0.5703 -0.2109,0.3203 -0.3203,0.8359 -0.1094,0.5156 -0.125,0.7969 -0.0156,0.2812 -0.0156,0.7031 0,3.2813 2.3594,3.2813 1.5468,0 2.125,-1.3907 0.0625,-0.1718 0.125,-0.2187 0.0625,-0.0469 0.2812,-0.0469 0.4063,0 0.4063,0.25 0,0.0625 -0.0703,0.2578 -0.0704,0.1953 -0.2891,0.5157 -0.2188,0.3203 -0.5547,0.6015 -0.3359,0.2813 -0.9609,0.5 -0.625,0.2188 -1.3907,0.2188 -1.9375,0 -3.0781,-1.086 -1.1406,-1.0859 -1.1406,-2.8047 z m 8.4049,-2.9687 0,-0.6094 q 1.1875,-0.0312 1.8515,-1.0469 0.6641,-1.0156 0.6797,-2.3906 l 0.7969,0 0,3.25 2.4844,0 0,0.7969 -2.4844,0 0,4.6875 q 0,1.4844 0.9844,1.4844 0.4062,0 0.7109,-0.3828 0.3047,-0.3829 0.3047,-1.1797 l 0,-0.875 0.8125,0 0,0.9062 q 0,0.9531 -0.5547,1.586 -0.5547,0.6328 -1.5078,0.6328 -2.6875,0 -2.6875,-2.2032 l 0,-4.6562 -1.3906,0 z m 8.8013,-4.2578 q 0,-0.5391 0.3828,-0.9297 0.3829,-0.3906 0.9454,-0.3906 0.5468,0 0.9375,0.3906 0.3906,0.3906 0.3906,0.9297 0,0.539 -0.3906,0.9297 -0.3907,0.3906 -0.9375,0.3906 -0.5625,0 -0.9454,-0.3906 -0.3828,-0.3907 -0.3828,-0.9297 z m -0.7656,11.0078 0,-0.7969 1.1719,0 0,-5.25 q 0,-0.4844 -0.1719,-0.5781 -0.1719,-0.0938 -0.9531,-0.0938 l 0,-0.7968 2.9687,-0.1407 0,6.8594 1.0469,0 0,0.7969 q -1.8281,-0.0469 -1.9844,-0.0469 -0.5,0 -2.0781,0.0469 z m 5.1725,-3.7031 q 0,-1.75 1.1484,-2.875 1.1484,-1.125 3.1797,-1.125 2.0312,0 3.1875,1.125 1.1562,1.125 1.1562,2.875 0,1.6406 -1.1406,2.7265 -1.1406,1.086 -3.1953,1.086 -2.0547,0 -3.1953,-1.086 -1.1406,-1.0859 -1.1406,-2.7265 z m 2.1718,-0.1875 q 0,0.5 0.008,0.7656 0.008,0.2656 0.0704,0.7344 0.0625,0.4687 0.1953,0.7265 0.1328,0.2578 0.3672,0.5469 0.2343,0.2891 0.6171,0.4141 0.3829,0.125 0.9063,0.125 0.5234,0 0.9062,-0.125 0.3829,-0.125 0.6094,-0.4141 0.2266,-0.2891 0.3672,-0.5469 0.1406,-0.2578 0.1953,-0.7265 0.0547,-0.4688 0.0625,-0.7344 0.008,-0.2656 0.008,-0.7656 0,-1.75 -0.3437,-2.3282 -0.5469,-0.875 -1.8125,-0.875 -1.3594,0 -1.8594,0.9844 -0.2969,0.5781 -0.2969,2.2188 z m 7.8209,3.8906 0,-0.7969 1.1719,0 0,-5.25 q 0,-0.4844 -0.1797,-0.5781 -0.1797,-0.0938 -0.9922,-0.0938 l 0,-0.7968 2.9219,-0.1407 0,1.8438 q 0.9375,-1.8438 2.9687,-1.8438 1.3125,0 1.9688,0.5704 0.6562,0.5703 0.6562,1.8828 l 0,4.4062 1.1719,0 0,0.7969 q -1.4219,-0.0469 -2.1406,-0.0469 -0.7188,0 -2.1406,0.0469 l 0,-0.7969 1.1718,0 0,-4.5937 q 0,-0.9219 -0.2343,-1.2813 -0.2344,-0.3594 -0.7032,-0.3594 -0.9375,0 -1.7343,0.7032 -0.7969,0.7031 -0.7969,1.9687 l 0,3.5625 1.1719,0 0,0.7969 q -1.4219,-0.0469 -2.1407,-0.0469 -0.7187,0 -2.1406,0.0469 z m 18.4334,-4.2656 q 0,-4.5469 3.0313,-7.5625 0.9687,-0.9219 1.3125,-0.9219 0.3125,0 0.3125,0.2344 0,0.0937 -0.2813,0.3593 -2.7344,2.75 -2.7344,7.9063 0,2.4531 0.6407,4.4062 0.7187,2.1875 2.3125,3.6719 0,0 0.0156,0.0469 0.0469,0.0625 0.0469,0.125 0,0.2344 -0.3125,0.2344 -0.1875,0 -0.6563,-0.3516 -0.4687,-0.3516 -1.1484,-1.0937 -0.6797,-0.7422 -1.1797,-1.6485 -1.3594,-2.4062 -1.3594,-5.4062 z m 6.567,1.9062 q 0,-0.625 0.375,-0.9765 0.375,-0.3516 0.9375,-0.3516 0.5625,0 0.9297,0.3594 0.3672,0.3593 0.3672,0.9375 0,1 -0.9844,1.2656 0.9062,0.5781 2.1406,0.5781 0.5,0 0.8594,-0.2031 0.3594,-0.2031 0.5312,-0.4453 0.1719,-0.2422 0.2657,-0.6563 0.0937,-0.414 0.1015,-0.6406 0.008,-0.2266 0.008,-0.5859 0,-0.375 -0.008,-0.6016 -0.008,-0.2266 -0.1093,-0.6484 -0.1016,-0.4219 -0.2813,-0.6563 -0.1797,-0.2344 -0.5547,-0.4297 -0.375,-0.1953 -0.9062,-0.1953 l -0.75,0 q -0.1875,0 -0.2578,-0.0078 -0.0704,-0.0078 -0.1407,-0.0781 -0.0703,-0.0703 -0.0703,-0.2266 0,-0.2656 0.2031,-0.2812 0.1875,-0.0313 0.8125,-0.0625 0.4219,-0.0313 0.75,-0.2032 0.3282,-0.1718 0.5079,-0.4609 0.1796,-0.2891 0.2968,-0.5625 0.1172,-0.2734 0.1641,-0.6016 0.0469,-0.3281 0.0547,-0.4687 0.008,-0.1406 0.008,-0.2656 0,-1.6407 -1.4531,-1.6407 -1.1094,0 -1.875,0.6094 0.9843,0.2344 0.9843,1.1875 0,0.5 -0.3203,0.836 -0.3203,0.3359 -0.8672,0.3359 -0.4843,0 -0.8281,-0.3281 -0.3437,-0.3282 -0.3437,-0.8594 0,-1.0313 0.9297,-1.7422 0.9296,-0.7109 2.414,-0.7109 1.7344,0 2.711,0.6718 0.9765,0.6719 0.9765,1.6954 0,1.0234 -0.7109,1.75 -0.711,0.7265 -1.6953,1.039 0.8593,0.1875 1.4843,0.5391 0.625,0.3515 0.9219,0.7812 0.2969,0.4297 0.4219,0.8125 0.125,0.3828 0.125,0.7891 0,1.3125 -1.0781,2.2812 -1.0782,0.9688 -3.2032,0.9688 -1.6718,0 -2.7578,-0.7031 -1.0859,-0.7032 -1.0859,-1.8438 z m 10.524,-3.6484 q 0,-0.5391 0.3828,-0.9297 0.3828,-0.3906 0.9453,-0.3906 0.5469,0 0.9375,0.3906 0.3907,0.3906 0.3907,0.9297 0,0.539 -0.3907,0.9297 -0.3906,0.3906 -0.9375,0.3906 -0.5625,0 -0.9453,-0.3906 -0.3828,-0.3907 -0.3828,-0.9297 z m 0,5 q 0,-0.5391 0.3828,-0.9297 0.3828,-0.3906 0.9453,-0.3906 0.5469,0 0.9375,0.3906 0.3907,0.3906 0.3907,0.9297 0,0.539 -0.3907,0.9297 -0.3906,0.3906 -0.9375,0.3906 -0.5625,0 -0.9453,-0.3906 -0.3828,-0.3907 -0.3828,-0.9297 z m 5.2975,-8.2422 0,-0.7969 0.3437,0 q 2.1094,0 3.4219,-0.9687 0.1562,-0.125 0.375,-0.125 0.2969,0 0.3672,0.1172 0.0703,0.1171 0.0703,0.4296 l 0,9.7969 2.375,0 0,0.7969 q -0.7344,-0.0469 -3.375,-0.0469 -2.6406,0 -3.3906,0.0469 l 0,-0.7969 2.375,0 0,-8.7969 q -1.0625,0.3438 -2.2188,0.3438 l -0.3437,0 z m 9.4302,13.25 q 0,-0.0938 0.2657,-0.3594 2.7343,-2.75 2.7343,-7.9062 0,-5.0782 -2.7187,-7.8594 -0.2813,-0.2656 -0.2813,-0.3906 0,-0.2344 0.2969,-0.2344 0.1875,0 0.6563,0.3516 0.4687,0.3515 1.1484,1.0937 0.6797,0.7422 1.1953,1.6484 1.3594,2.3907 1.3594,5.4063 0,4.5312 -3.0469,7.5625 -0.9687,0.9219 -1.3125,0.9219 -0.2969,0 -0.2969,-0.2344 z"
       style="stroke:none" />
  </g>
  <g
     id="g275"
     style="fill:#262626;stroke:#262626">
    <line
       id="line277"
       y1="631"
       x2="855"
       x1="123"
       style="fill:none"
       y2="631" />
  </g>
  <rect
     style="font-size:12px;font-style:normal;font-weight:normal;fill:#e4ebf3;fill-opacity:1;fill-rule:nonzero;stroke:#3a6e90;stroke-width:2;stroke-linecap:butt;stroke-linejoin:miter;stroke-miterlimit:4;stroke-opacity:1;stroke-dasharray:none;stroke-dashoffset:0;font-family:Dialog"
     id="rect4202"
     width="211.95825"
     height="69.350395"
     x="613.10205"
     y="138.99702"
     ry="4.4348917" />
  <text
     xml:space="preserve"
     style="font-size:20px;font-style:italic;font-variant:normal;font-weight:normal;font-stretch:normal;line-height:125%;letter-spacing:0px;word-spacing:0px;fill:#000000;fill-opacity:1;stroke:none;font-family:Ubuntu;-inkscape-font-specification:Sans Italic"
     x="639.4256"
     y="167.89223"
     id="text4196"
     sodipodi:linespacing="125%"><tspan
       sodipodi:role="line"
       id="tspan4198"
       x="639.4256"
       y="167.89223"
       style="font-style:normal;font-variant:normal;font-weight:500;font-stretch:normal;fill:#000000;fill-opacity:1;font-family:CMU Serif;-inkscape-font-specification:CMU Serif Medium">moveProb = 0.40</tspan><tspan
       sodipodi:role="line"
       x="639.4256"
       y="192.89223"
       id="tspan4200"
       style="font-style:normal;font-variant:normal;font-weight:500;font-stretch:normal;fill:#000000;fill-opacity:1;font-family:CMU Serif;-inkscape-font-specification:CMU Serif Medium">moveCorr = 0.033</tspan></text>
</svg>
